M48
; DRILL file {KiCad 5.1.10-6.fc34} date Sun Oct 24 11:19:10 2021
; FORMAT={-:-/ absolute / metric / decimal}
; #@! TF.CreationDate,2021-10-24T11:19:10+02:00
; #@! TF.GenerationSoftware,Kicad,Pcbnew,5.1.10-6.fc34
; #@! TF.FileFunction,Plated,1,2,PTH
FMAT,2
METRIC
T1C0.400
T2C0.900
T3C1.000
%
G90
G05
T1
X17.584Y-46.19
X18.969Y-43.183
X24.277Y-36.469
X26.972Y-42.149
X28.197Y-29.301
X30.782Y-32.22
X30.848Y-43.419
X30.848Y-48.138
X32.026Y-38.759
X32.241Y-28.378
X32.751Y-30.716
X33.8Y-37.795
X34.014Y-50.346
X34.026Y-51.382
X35.695Y-27.661
X37.06Y-37.03
X47.592Y-27.541
X47.724Y-48.484
X48.697Y-35.659
X48.74Y-27.554
X48.819Y-24.026
X49.479Y-31.59
X50.15Y-40.777
X50.523Y-36.187
X51.77Y-42.032
X51.78Y-40.983
X53.045Y-36.083
X53.543Y-38.357
X53.863Y-49.032
X54.011Y-32.667
X54.041Y-26.921
X54.072Y-42.136
X54.91Y-37.099
X55.659Y-26.896
X57.755Y-50.495
X57.935Y-28.39
X58.25Y-35.088
X58.25Y-37.94
X58.263Y-39.639
X59.035Y-32.027
X59.505Y-47.672
X59.803Y-34.643
X59.807Y-37.079
X60.795Y-27.704
X61.486Y-40.912
X61.491Y-42.705
X61.831Y-51.521
X62.672Y-30.389
X63.863Y-30.394
X63.881Y-51.285
X64.986Y-30.168
X66.575Y-34.75
X67.026Y-27.704
X67.65Y-36.152
X68.55Y-26.25
X68.732Y-18.372
X68.791Y-34.961
X72.876Y-37.365
X72.949Y-26.25
X76.444Y-30.475
X76.454Y-33.185
X76.591Y-51.137
X78.422Y-39.365
X79.192Y-33.652
X80.166Y-49.409
X80.175Y-50.409
X80.457Y-32.393
X80.579Y-42.939
X81.605Y-26.513
X81.61Y-23.005
X81.643Y-35.87
X82.125Y-47.45
X82.169Y-38.748
X82.24Y-49.637
X82.695Y-34.821
X82.761Y-31.516
X82.972Y-29.71
X83.673Y-20.096
X84.432Y-17.175
X84.704Y-25.761
X85.601Y-31.224
X85.606Y-35.847
X92.819Y-38.118
X93.853Y-20.828
X93.853Y-28.064
X95.103Y-36.933
X95.372Y-45.913
X95.758Y-38.735
X95.758Y-43.602
X96.266Y-33.528
X97.145Y-40.719
X98.582Y-52.669
X99.449Y-53.543
X99.747Y-43.377
X99.799Y-38.852
X100.081Y-44.646
X100.78Y-19.804
X101.13Y-28.179
X101.917Y-21.664
X102.22Y-41.846
X103.21Y-33.045
X103.215Y-31.572
X104.788Y-47.18
X105.763Y-21.245
X105.783Y-22.796
X105.783Y-24.572
X106.396Y-18.994
X106.578Y-35.573
X107.091Y-20.668
X110.058Y-25.469
X110.277Y-32.36
X111.266Y-18.6
X111.94Y-20.67
X111.979Y-22.639
X113.01Y-35.126
X113.655Y-17.714
X113.698Y-22.263
X116.576Y-21.605
X118.524Y-23.555
X118.524Y-25.819
X119.258Y-20.668
X121.712Y-18.6
X127.048Y-18.722
X129.69Y-21.478
X130.058Y-33.086
X130.241Y-25.319
X131.954Y-38.467
X134.041Y-29.131
X134.06Y-25.172
X135.367Y-40.824
X135.372Y-44.069
X138.999Y-29.131
X141.31Y-32.175
X144.046Y-46.309
X144.93Y-32.388
X178.798Y-24.722
X180.691Y-24.722
X184.544Y-24.171
X185.379Y-27.866
X186.461Y-17.092
X186.619Y-26.246
X196.093Y-21.831
X198.25Y-18.189
X201.839Y-18.189
T2
X66.575Y-40.641
X69.075Y-38.141
X69.075Y-43.141
X87.996Y-19.362
X87.996Y-24.562
X87.996Y-29.762
X87.996Y-34.962
X87.996Y-40.162
X90.536Y-19.362
X90.536Y-24.562
X90.536Y-29.762
X90.536Y-34.962
X90.536Y-40.162
X118.199Y-29.762
X120.739Y-29.762
X125.628Y-24.754
X125.628Y-29.754
X128.128Y-27.254
X148.219Y-19.368
X148.219Y-24.568
X148.219Y-29.768
X148.219Y-34.968
X148.219Y-40.168
X150.759Y-19.368
X150.759Y-24.568
X150.759Y-29.768
X150.759Y-34.968
X150.759Y-40.168
T3
X22.162Y-20.18
X22.162Y-22.72
X22.187Y-55.677
X22.187Y-58.217
X24.701Y-20.18
X24.701Y-22.72
X24.727Y-55.677
X24.727Y-58.217
X27.241Y-20.18
X27.241Y-22.72
X27.267Y-55.677
X27.267Y-58.217
X29.781Y-20.18
X29.781Y-22.72
X29.807Y-55.677
X29.807Y-58.217
X32.322Y-20.18
X32.322Y-22.72
X32.347Y-55.677
X32.347Y-58.217
X34.345Y-29.261
X34.345Y-47.561
X34.861Y-20.18
X34.861Y-22.72
X34.887Y-55.677
X34.887Y-58.217
X36.845Y-29.261
X36.845Y-47.561
X37.401Y-20.18
X37.401Y-22.72
X37.427Y-55.677
X37.427Y-58.217
X39.345Y-29.261
X39.345Y-47.561
X39.941Y-20.18
X39.941Y-22.72
X39.967Y-55.677
X39.967Y-58.217
X41.845Y-29.261
X41.845Y-47.561
X42.481Y-20.18
X42.481Y-22.72
X42.507Y-55.677
X42.507Y-58.217
X44.345Y-29.261
X44.345Y-47.561
X45.021Y-20.18
X45.021Y-22.72
X45.047Y-55.677
X45.047Y-58.217
X47.561Y-20.18
X47.561Y-22.72
X47.587Y-55.677
X47.587Y-58.217
X50.101Y-20.18
X50.101Y-22.72
X50.127Y-55.677
X50.127Y-58.217
X52.642Y-20.18
X52.642Y-22.72
X52.667Y-55.677
X52.667Y-58.217
X55.181Y-20.18
X55.181Y-22.72
X55.207Y-55.677
X55.207Y-58.217
X57.721Y-20.18
X57.721Y-22.72
X57.747Y-55.677
X57.747Y-58.217
X60.261Y-20.18
X60.261Y-22.72
X60.287Y-55.677
X60.287Y-58.217
X62.801Y-20.18
X62.801Y-22.72
X62.827Y-55.677
X62.827Y-58.217
X86.611Y-50.716
X86.611Y-55.796
X89.151Y-50.556
X89.151Y-55.956
X91.691Y-50.716
X91.691Y-55.796
X146.825Y-50.711
X146.825Y-55.791
X149.365Y-50.551
X149.365Y-55.951
X151.905Y-50.711
X151.905Y-55.791
X194.149Y-29.261
X194.149Y-47.561
X196.649Y-29.261
X196.649Y-47.561
X199.149Y-29.261
X199.149Y-47.561
X201.649Y-29.261
X201.649Y-47.561
X204.149Y-29.261
X204.149Y-47.561
T0
M30
