M48
; DRILL file {KiCad 5.1.10-6.fc34} date Mon Oct 25 16:54:22 2021
; FORMAT={-:-/ absolute / metric / decimal}
; #@! TF.CreationDate,2021-10-25T16:54:22+02:00
; #@! TF.GenerationSoftware,Kicad,Pcbnew,5.1.10-6.fc34
; #@! TF.FileFunction,Plated,1,2,PTH
FMAT,2
METRIC
T1C0.400
T2C0.900
T3C1.000
%
G90
G05
T1
X17.584Y-46.19
X18.969Y-43.183
X24.277Y-36.469
X26.972Y-42.149
X27.355Y-29.943
X30.848Y-43.419
X30.848Y-48.138
X32.322Y-28.298
X33.29Y-37.089
X34.014Y-50.346
X34.026Y-51.382
X34.138Y-38.844
X34.407Y-27.647
X40.899Y-37.775
X47.592Y-27.541
X47.724Y-48.484
X48.697Y-35.659
X48.74Y-27.554
X48.819Y-24.026
X49.479Y-31.59
X50.005Y-40.777
X50.445Y-36.157
X51.77Y-42.032
X51.78Y-40.983
X51.895Y-36.456
X53.543Y-38.357
X53.863Y-49.032
X54.041Y-26.921
X54.072Y-42.136
X54.171Y-32.667
X54.91Y-37.099
X55.659Y-26.896
X57.755Y-50.495
X57.935Y-28.39
X58.25Y-35.088
X58.25Y-37.94
X58.263Y-39.639
X59.035Y-32.027
X59.505Y-47.672
X59.803Y-34.643
X59.807Y-37.079
X60.795Y-27.704
X61.491Y-42.705
X61.496Y-40.658
X61.581Y-51.832
X62.672Y-30.389
X63.863Y-30.394
X63.881Y-51.285
X64.986Y-30.168
X66.575Y-34.75
X67.026Y-27.704
X67.65Y-36.152
X68.732Y-18.372
X68.791Y-34.961
X69.167Y-25.618
X72.876Y-37.365
X72.949Y-26.25
X76.444Y-30.475
X76.454Y-33.185
X76.591Y-51.137
X78.422Y-39.365
X79.192Y-33.652
X80.166Y-49.409
X80.175Y-50.409
X80.457Y-32.393
X80.579Y-42.939
X81.605Y-26.513
X81.608Y-23.241
X81.641Y-17.092
X82.0Y-30.719
X82.0Y-34.775
X82.0Y-38.748
X82.125Y-47.45
X82.24Y-49.637
X83.4Y-25.761
X83.434Y-35.87
X83.673Y-20.096
X85.217Y-41.628
X85.397Y-20.635
X85.606Y-35.847
X86.101Y-36.772
X92.753Y-32.909
X92.992Y-41.933
X93.205Y-37.638
X93.853Y-20.828
X93.853Y-28.064
X95.019Y-36.606
X95.372Y-45.913
X95.758Y-38.735
X95.758Y-43.602
X96.266Y-33.528
X97.145Y-41.095
X98.582Y-52.669
X99.449Y-53.543
X99.747Y-43.377
X99.799Y-38.44
X100.081Y-44.646
X100.78Y-19.804
X101.13Y-28.179
X101.917Y-21.664
X102.22Y-41.846
X103.21Y-33.045
X104.788Y-47.18
X105.189Y-29.738
X105.763Y-21.245
X105.783Y-22.796
X105.783Y-24.572
X106.396Y-18.994
X106.578Y-35.573
X107.091Y-20.668
X108.4Y-35.128
X110.058Y-25.469
X111.266Y-18.6
X111.94Y-20.67
X111.979Y-22.639
X113.01Y-35.126
X113.655Y-17.714
X113.698Y-22.263
X116.576Y-21.605
X118.524Y-23.494
X118.524Y-25.394
X119.258Y-20.668
X121.712Y-18.6
X127.048Y-18.722
X129.69Y-21.478
X130.058Y-33.086
X130.241Y-25.319
X131.75Y-29.754
X131.954Y-38.467
X134.06Y-25.172
X135.367Y-40.707
X135.372Y-44.069
X138.165Y-38.467
X141.628Y-33.106
X144.046Y-46.309
X144.93Y-32.388
X158.0Y-30.777
X158.0Y-34.087
X178.798Y-24.722
X180.691Y-24.722
X184.544Y-24.171
X185.379Y-27.866
X186.461Y-17.092
X186.619Y-26.246
X196.093Y-21.831
X198.25Y-18.189
X201.839Y-18.189
T2
X66.575Y-40.641
X69.075Y-38.141
X69.075Y-43.141
X89.24Y-18.092
X89.24Y-20.633
X89.24Y-23.293
X89.24Y-25.832
X89.24Y-28.492
X89.24Y-31.032
X89.24Y-33.692
X89.24Y-36.233
X89.24Y-38.892
X89.24Y-41.432
X119.24Y-28.47
X119.24Y-31.01
X125.628Y-24.754
X125.628Y-29.754
X128.128Y-27.254
X149.24Y-18.092
X149.24Y-20.633
X149.24Y-23.293
X149.24Y-25.832
X149.24Y-28.492
X149.24Y-31.032
X149.24Y-33.692
X149.24Y-36.233
X149.24Y-38.892
X149.24Y-41.432
T3
X22.162Y-20.18
X22.162Y-22.72
X22.187Y-55.677
X22.187Y-58.217
X24.701Y-20.18
X24.701Y-22.72
X24.727Y-55.677
X24.727Y-58.217
X27.241Y-20.18
X27.241Y-22.72
X27.267Y-55.677
X27.267Y-58.217
X29.781Y-20.18
X29.781Y-22.72
X29.807Y-55.677
X29.807Y-58.217
X32.322Y-20.18
X32.322Y-22.72
X32.347Y-55.677
X32.347Y-58.217
X34.24Y-29.59
X34.24Y-47.89
X34.861Y-20.18
X34.861Y-22.72
X34.887Y-55.677
X34.887Y-58.217
X36.74Y-29.59
X36.74Y-47.89
X37.401Y-20.18
X37.401Y-22.72
X37.427Y-55.677
X37.427Y-58.217
X39.24Y-29.59
X39.24Y-47.89
X39.941Y-20.18
X39.941Y-22.72
X39.967Y-55.677
X39.967Y-58.217
X41.74Y-29.59
X41.74Y-47.89
X42.481Y-20.18
X42.481Y-22.72
X42.507Y-55.677
X42.507Y-58.217
X44.24Y-29.59
X44.24Y-47.89
X45.021Y-20.18
X45.021Y-22.72
X45.047Y-55.677
X45.047Y-58.217
X47.561Y-20.18
X47.561Y-22.72
X47.587Y-55.677
X47.587Y-58.217
X50.101Y-20.18
X50.101Y-22.72
X50.127Y-55.677
X50.127Y-58.217
X52.642Y-20.18
X52.642Y-22.72
X52.667Y-55.677
X52.667Y-58.217
X55.181Y-20.18
X55.181Y-22.72
X55.207Y-55.677
X55.207Y-58.217
X57.721Y-20.18
X57.721Y-22.72
X57.747Y-55.677
X57.747Y-58.217
X60.261Y-20.18
X60.261Y-22.72
X60.287Y-55.677
X60.287Y-58.217
X62.801Y-20.18
X62.801Y-22.72
X62.827Y-55.677
X62.827Y-58.217
X86.7Y-50.7
X86.7Y-55.78
X89.24Y-50.54
X89.24Y-55.94
X91.78Y-50.7
X91.78Y-55.78
X146.7Y-50.7
X146.7Y-55.78
X149.24Y-50.54
X149.24Y-55.94
X151.78Y-50.7
X151.78Y-55.78
X194.24Y-29.59
X194.24Y-47.89
X196.74Y-29.59
X196.74Y-47.89
X199.24Y-29.59
X199.24Y-47.89
X201.74Y-29.59
X201.74Y-47.89
X204.24Y-29.59
X204.24Y-47.89
T0
M30
