%FSLAX45Y45*%
G04 Gerber Fmt 4.5, Leading zero omitted, Abs format (unit mm)*
G04 Created by KiCad (PCBNEW 5.1.10-6.fc34) date 2021-10-24 11:20:13*
%MOMM*%
%LPD*%
G01*
G04 APERTURE LIST*
%TA.AperFunction,Profile*%
%ADD10C,0.050000*%
%TD*%
%ADD11C,0.200000*%
%ADD12C,0.300000*%
G04 APERTURE END LIST*
D10*
X10665000Y-4736000D02*
G75*
G02*
X13183000Y-4736000I1259000J0D01*
G01*
X13183000Y-6224000D02*
X13183000Y-4736000D01*
X13183000Y-6224000D02*
X22324000Y-6224000D01*
X10665000Y-6224000D02*
X10665000Y-4736000D01*
X22324000Y-1524000D02*
X22324000Y-6224000D01*
X1524000Y-6224000D02*
X10665000Y-6224000D01*
X1524000Y-1524000D02*
X1524000Y-6224000D01*
X1524000Y-1524000D02*
X22324000Y-1524000D01*
D11*
X1738442Y-4598990D02*
X1778442Y-4638990D01*
X1778442Y-4598990D02*
X1738442Y-4638990D01*
X1876872Y-4298254D02*
X1916872Y-4338254D01*
X1916872Y-4298254D02*
X1876872Y-4338254D01*
X2407732Y-3626932D02*
X2447732Y-3666932D01*
X2447732Y-3626932D02*
X2407732Y-3666932D01*
X2677226Y-4194876D02*
X2717226Y-4234876D01*
X2717226Y-4194876D02*
X2677226Y-4234876D01*
X2799654Y-2910144D02*
X2839654Y-2950144D01*
X2839654Y-2910144D02*
X2799654Y-2950144D01*
X3058226Y-3201990D02*
X3098226Y-3241990D01*
X3098226Y-3201990D02*
X3058226Y-3241990D01*
X3064830Y-4321876D02*
X3104830Y-4361876D01*
X3104830Y-4321876D02*
X3064830Y-4361876D01*
X3064830Y-4793808D02*
X3104830Y-4833808D01*
X3104830Y-4793808D02*
X3064830Y-4833808D01*
X3182574Y-3855894D02*
X3222574Y-3895894D01*
X3222574Y-3855894D02*
X3182574Y-3895894D01*
X3204132Y-2817811D02*
X3244132Y-2857811D01*
X3244132Y-2817811D02*
X3204132Y-2857811D01*
X3255074Y-3051620D02*
X3295074Y-3091620D01*
X3295074Y-3051620D02*
X3255074Y-3091620D01*
X3359978Y-3759520D02*
X3399978Y-3799520D01*
X3399978Y-3759520D02*
X3359978Y-3799520D01*
X3381433Y-5014567D02*
X3421433Y-5054567D01*
X3421433Y-5014567D02*
X3381433Y-5054567D01*
X3382565Y-5118230D02*
X3422565Y-5158230D01*
X3422565Y-5118230D02*
X3382565Y-5158230D01*
X3549462Y-2746060D02*
X3589462Y-2786060D01*
X3589462Y-2746060D02*
X3549462Y-2786060D01*
X3686000Y-3683000D02*
X3726000Y-3723000D01*
X3726000Y-3683000D02*
X3686000Y-3723000D01*
X4739198Y-2734122D02*
X4779198Y-2774122D01*
X4779198Y-2734122D02*
X4739198Y-2774122D01*
X4752406Y-4828352D02*
X4792406Y-4868352D01*
X4792406Y-4828352D02*
X4752406Y-4868352D01*
X4849688Y-3545906D02*
X4889688Y-3585906D01*
X4889688Y-3545906D02*
X4849688Y-3585906D01*
X4854006Y-2735392D02*
X4894006Y-2775392D01*
X4894006Y-2735392D02*
X4854006Y-2775392D01*
X4861880Y-2382586D02*
X4901880Y-2422586D01*
X4901880Y-2382586D02*
X4861880Y-2422586D01*
X4927920Y-3138998D02*
X4967920Y-3178998D01*
X4967920Y-3138998D02*
X4927920Y-3178998D01*
X4994976Y-4057716D02*
X5034976Y-4097716D01*
X5034976Y-4057716D02*
X4994976Y-4097716D01*
X5032314Y-3598738D02*
X5072314Y-3638738D01*
X5072314Y-3598738D02*
X5032314Y-3638738D01*
X5157028Y-4183192D02*
X5197028Y-4223192D01*
X5197028Y-4183192D02*
X5157028Y-4223192D01*
X5158044Y-4078290D02*
X5198044Y-4118290D01*
X5198044Y-4078290D02*
X5158044Y-4118290D01*
X5284536Y-3588324D02*
X5324536Y-3628324D01*
X5324536Y-3588324D02*
X5284536Y-3628324D01*
X5334320Y-3815654D02*
X5374320Y-3855654D01*
X5374320Y-3815654D02*
X5334320Y-3855654D01*
X5366324Y-4883216D02*
X5406324Y-4923216D01*
X5406324Y-4883216D02*
X5366324Y-4923216D01*
X5381060Y-3246690D02*
X5421060Y-3286690D01*
X5421060Y-3246690D02*
X5381060Y-3286690D01*
X5384104Y-2672146D02*
X5424104Y-2712146D01*
X5424104Y-2672146D02*
X5384104Y-2712146D01*
X5387152Y-4193606D02*
X5427152Y-4233606D01*
X5427152Y-4193606D02*
X5387152Y-4233606D01*
X5470972Y-3689924D02*
X5510972Y-3729924D01*
X5510972Y-3689924D02*
X5470972Y-3729924D01*
X5545902Y-2669606D02*
X5585902Y-2709606D01*
X5585902Y-2669606D02*
X5545902Y-2709606D01*
X5755452Y-5029504D02*
X5795452Y-5069504D01*
X5795452Y-5029504D02*
X5755452Y-5069504D01*
X5773486Y-2818958D02*
X5813486Y-2858958D01*
X5813486Y-2818958D02*
X5773486Y-2858958D01*
X5804982Y-3488756D02*
X5844982Y-3528756D01*
X5844982Y-3488756D02*
X5804982Y-3528756D01*
X5804982Y-3773999D02*
X5844982Y-3813999D01*
X5844982Y-3773999D02*
X5804982Y-3813999D01*
X5806252Y-3943924D02*
X5846252Y-3983924D01*
X5846252Y-3943924D02*
X5806252Y-3983924D01*
X5883468Y-3182686D02*
X5923468Y-3222686D01*
X5923468Y-3182686D02*
X5883468Y-3222686D01*
X5930458Y-4747198D02*
X5970458Y-4787198D01*
X5970458Y-4747198D02*
X5930458Y-4787198D01*
X5960287Y-3444252D02*
X6000287Y-3484252D01*
X6000287Y-3444252D02*
X5960287Y-3484252D01*
X5960684Y-3687892D02*
X6000684Y-3727892D01*
X6000684Y-3687892D02*
X5960684Y-3727892D01*
X6059490Y-2750378D02*
X6099490Y-2790378D01*
X6099490Y-2750378D02*
X6059490Y-2790378D01*
X6128578Y-4071178D02*
X6168578Y-4111178D01*
X6168578Y-4071178D02*
X6128578Y-4111178D01*
X6129086Y-4250502D02*
X6169086Y-4290502D01*
X6169086Y-4250502D02*
X6129086Y-4290502D01*
X6163122Y-5132136D02*
X6203122Y-5172136D01*
X6203122Y-5132136D02*
X6163122Y-5172136D01*
X6247196Y-3018856D02*
X6287196Y-3058856D01*
X6287196Y-3018856D02*
X6247196Y-3058856D01*
X6366322Y-3019364D02*
X6406322Y-3059364D01*
X6406322Y-3019364D02*
X6366322Y-3059364D01*
X6368100Y-5108514D02*
X6408100Y-5148514D01*
X6408100Y-5108514D02*
X6368100Y-5148514D01*
X6478590Y-2996758D02*
X6518590Y-3036758D01*
X6518590Y-2996758D02*
X6478590Y-3036758D01*
X6637530Y-3455000D02*
X6677530Y-3495000D01*
X6677530Y-3455000D02*
X6637530Y-3495000D01*
X6682552Y-2750378D02*
X6722552Y-2790378D01*
X6722552Y-2750378D02*
X6682552Y-2790378D01*
X6745036Y-3595182D02*
X6785036Y-3635182D01*
X6785036Y-3595182D02*
X6745036Y-3635182D01*
X6834952Y-2604990D02*
X6874952Y-2644990D01*
X6874952Y-2604990D02*
X6834952Y-2644990D01*
X6853240Y-1817182D02*
X6893240Y-1857182D01*
X6893240Y-1817182D02*
X6853240Y-1857182D01*
X6859082Y-3476056D02*
X6899082Y-3516056D01*
X6899082Y-3476056D02*
X6859082Y-3516056D01*
X7267641Y-3716467D02*
X7307641Y-3756467D01*
X7307641Y-3716467D02*
X7267641Y-3756467D01*
X7274880Y-2604990D02*
X7314880Y-2644990D01*
X7314880Y-2604990D02*
X7274880Y-2644990D01*
X7624384Y-3027492D02*
X7664384Y-3067492D01*
X7664384Y-3027492D02*
X7624384Y-3067492D01*
X7625400Y-3298510D02*
X7665400Y-3338510D01*
X7665400Y-3298510D02*
X7625400Y-3338510D01*
X7639116Y-5093671D02*
X7679116Y-5133671D01*
X7679116Y-5093671D02*
X7639116Y-5133671D01*
X7822250Y-3916492D02*
X7862250Y-3956492D01*
X7862250Y-3916492D02*
X7822250Y-3956492D01*
X7899212Y-3345246D02*
X7939212Y-3385246D01*
X7939212Y-3345246D02*
X7899212Y-3385246D01*
X7996584Y-4920887D02*
X8036584Y-4960887D01*
X8036584Y-4920887D02*
X7996584Y-4960887D01*
X7997510Y-5020884D02*
X8037510Y-5060884D01*
X8037510Y-5020884D02*
X7997510Y-5060884D01*
X8025704Y-3219262D02*
X8065704Y-3259262D01*
X8065704Y-3219262D02*
X8025704Y-3259262D01*
X8037896Y-4273870D02*
X8077896Y-4313870D01*
X8077896Y-4273870D02*
X8037896Y-4313870D01*
X8140512Y-2631252D02*
X8180512Y-2671252D01*
X8180512Y-2631252D02*
X8140512Y-2671252D01*
X8141020Y-2280478D02*
X8181020Y-2320478D01*
X8181020Y-2280478D02*
X8141020Y-2320478D01*
X8144322Y-3566988D02*
X8184322Y-3606988D01*
X8184322Y-3566988D02*
X8144322Y-3606988D01*
X8192496Y-4724974D02*
X8232496Y-4764974D01*
X8232496Y-4724974D02*
X8192496Y-4764974D01*
X8196900Y-3854770D02*
X8236900Y-3894770D01*
X8236900Y-3854770D02*
X8196900Y-3894770D01*
X8204012Y-4943668D02*
X8244012Y-4983668D01*
X8244012Y-4943668D02*
X8204012Y-4983668D01*
X8249478Y-3462086D02*
X8289478Y-3502086D01*
X8289478Y-3462086D02*
X8249478Y-3502086D01*
X8256082Y-3131632D02*
X8296082Y-3171632D01*
X8296082Y-3131632D02*
X8256082Y-3171632D01*
X8277164Y-2951038D02*
X8317164Y-2991038D01*
X8317164Y-2951038D02*
X8277164Y-2991038D01*
X8347268Y-1989648D02*
X8387268Y-2029648D01*
X8387268Y-1989648D02*
X8347268Y-2029648D01*
X8423214Y-1697548D02*
X8463214Y-1737548D01*
X8463214Y-1697548D02*
X8423214Y-1737548D01*
X8450392Y-2556068D02*
X8490392Y-2596068D01*
X8490392Y-2556068D02*
X8450392Y-2596068D01*
X8540054Y-3102422D02*
X8580054Y-3142422D01*
X8580054Y-3102422D02*
X8540054Y-3142422D01*
X8540562Y-3564702D02*
X8580562Y-3604702D01*
X8580562Y-3564702D02*
X8540562Y-3604702D01*
X9261922Y-3791778D02*
X9301922Y-3831778D01*
X9301922Y-3791778D02*
X9261922Y-3831778D01*
X9365300Y-2062800D02*
X9405300Y-2102800D01*
X9405300Y-2062800D02*
X9365300Y-2102800D01*
X9365300Y-2786446D02*
X9405300Y-2826446D01*
X9405300Y-2786446D02*
X9365300Y-2826446D01*
X9490268Y-3673271D02*
X9530268Y-3713271D01*
X9530268Y-3673271D02*
X9490268Y-3713271D01*
X9517192Y-4571304D02*
X9557192Y-4611304D01*
X9557192Y-4571304D02*
X9517192Y-4611304D01*
X9555800Y-3853500D02*
X9595800Y-3893500D01*
X9595800Y-3853500D02*
X9555800Y-3893500D01*
X9555800Y-4340164D02*
X9595800Y-4380164D01*
X9595800Y-4340164D02*
X9555800Y-4380164D01*
X9606600Y-3332800D02*
X9646600Y-3372800D01*
X9646600Y-3332800D02*
X9606600Y-3372800D01*
X9694484Y-4051874D02*
X9734484Y-4091874D01*
X9734484Y-4051874D02*
X9694484Y-4091874D01*
X9838248Y-5246944D02*
X9878248Y-5286944D01*
X9878248Y-5246944D02*
X9838248Y-5286944D01*
X9924862Y-5334320D02*
X9964862Y-5374320D01*
X9964862Y-5334320D02*
X9924862Y-5374320D01*
X9954723Y-4317669D02*
X9994723Y-4357669D01*
X9994723Y-4317669D02*
X9954723Y-4357669D01*
X9959914Y-3865184D02*
X9999914Y-3905184D01*
X9999914Y-3865184D02*
X9959914Y-3905184D01*
X9988108Y-4444558D02*
X10028108Y-4484558D01*
X10028108Y-4444558D02*
X9988108Y-4484558D01*
X10057958Y-1960438D02*
X10097958Y-2000438D01*
X10097958Y-1960438D02*
X10057958Y-2000438D01*
X10093010Y-2797876D02*
X10133010Y-2837876D01*
X10133010Y-2797876D02*
X10093010Y-2837876D01*
X10171750Y-2146366D02*
X10211750Y-2186366D01*
X10211750Y-2146366D02*
X10171750Y-2186366D01*
X10201976Y-4164650D02*
X10241976Y-4204650D01*
X10241976Y-4164650D02*
X10201976Y-4204650D01*
X10301036Y-3284540D02*
X10341036Y-3324540D01*
X10341036Y-3284540D02*
X10301036Y-3324540D01*
X10301544Y-3137220D02*
X10341544Y-3177220D01*
X10341544Y-3137220D02*
X10301544Y-3177220D01*
X10458770Y-4698050D02*
X10498770Y-4738050D01*
X10498770Y-4698050D02*
X10458770Y-4738050D01*
X10556306Y-2104456D02*
X10596306Y-2144456D01*
X10596306Y-2104456D02*
X10556306Y-2144456D01*
X10558338Y-2259650D02*
X10598338Y-2299650D01*
X10598338Y-2259650D02*
X10558338Y-2299650D01*
X10558338Y-2437196D02*
X10598338Y-2477196D01*
X10598338Y-2437196D02*
X10558338Y-2477196D01*
X10619552Y-1879412D02*
X10659552Y-1919412D01*
X10659552Y-1879412D02*
X10619552Y-1919412D01*
X10637840Y-3537270D02*
X10677840Y-3577270D01*
X10677840Y-3537270D02*
X10637840Y-3577270D01*
X10689148Y-2046798D02*
X10729148Y-2086798D01*
X10729148Y-2046798D02*
X10689148Y-2086798D01*
X10985820Y-2526858D02*
X11025820Y-2566858D01*
X11025820Y-2526858D02*
X10985820Y-2566858D01*
X11007664Y-3215960D02*
X11047664Y-3255960D01*
X11047664Y-3215960D02*
X11007664Y-3255960D01*
X11106613Y-1840042D02*
X11146613Y-1880042D01*
X11146613Y-1840042D02*
X11106613Y-1880042D01*
X11174038Y-2047048D02*
X11214038Y-2087048D01*
X11214038Y-2047048D02*
X11174038Y-2087048D01*
X11177886Y-2243860D02*
X11217886Y-2283860D01*
X11217886Y-2243860D02*
X11177886Y-2283860D01*
X11280968Y-3492566D02*
X11320968Y-3532566D01*
X11320968Y-3492566D02*
X11280968Y-3532566D01*
X11345484Y-1751396D02*
X11385484Y-1791396D01*
X11385484Y-1751396D02*
X11345484Y-1791396D01*
X11349802Y-2206310D02*
X11389802Y-2246310D01*
X11389802Y-2206310D02*
X11349802Y-2246310D01*
X11637584Y-2140524D02*
X11677584Y-2180524D01*
X11677584Y-2140524D02*
X11637584Y-2180524D01*
X11832402Y-2335524D02*
X11872402Y-2375524D01*
X11872402Y-2335524D02*
X11832402Y-2375524D01*
X11832402Y-2561910D02*
X11872402Y-2601910D01*
X11872402Y-2561910D02*
X11832402Y-2601910D01*
X11905808Y-2046798D02*
X11945808Y-2086798D01*
X11945808Y-2046798D02*
X11905808Y-2086798D01*
X12151172Y-1840042D02*
X12191172Y-1880042D01*
X12191172Y-1840042D02*
X12151172Y-1880042D01*
X12684826Y-1852234D02*
X12724826Y-1892234D01*
X12724826Y-1852234D02*
X12684826Y-1892234D01*
X12948986Y-2127824D02*
X12988986Y-2167824D01*
X12988986Y-2127824D02*
X12948986Y-2167824D01*
X12985816Y-3288604D02*
X13025816Y-3328604D01*
X13025816Y-3288604D02*
X12985816Y-3328604D01*
X13004104Y-2511871D02*
X13044104Y-2551871D01*
X13044104Y-2511871D02*
X13004104Y-2551871D01*
X13175427Y-3826703D02*
X13215427Y-3866703D01*
X13215427Y-3826703D02*
X13175427Y-3866703D01*
X13384088Y-2893126D02*
X13424088Y-2933126D01*
X13424088Y-2893126D02*
X13384088Y-2933126D01*
X13385964Y-2497238D02*
X13425964Y-2537238D01*
X13425964Y-2497238D02*
X13385964Y-2537238D01*
X13516723Y-4062399D02*
X13556723Y-4102399D01*
X13556723Y-4062399D02*
X13516723Y-4102399D01*
X13517184Y-4386900D02*
X13557184Y-4426900D01*
X13557184Y-4386900D02*
X13517184Y-4426900D01*
X13879896Y-2893126D02*
X13919896Y-2933126D01*
X13919896Y-2893126D02*
X13879896Y-2933126D01*
X14111036Y-3197529D02*
X14151036Y-3237529D01*
X14151036Y-3197529D02*
X14111036Y-3237529D01*
X14384594Y-4610928D02*
X14424594Y-4650928D01*
X14424594Y-4610928D02*
X14384594Y-4650928D01*
X14472986Y-3218754D02*
X14512986Y-3258754D01*
X14512986Y-3218754D02*
X14472986Y-3258754D01*
X17859822Y-2452182D02*
X17899822Y-2492182D01*
X17899822Y-2452182D02*
X17859822Y-2492182D01*
X18049052Y-2452182D02*
X18089052Y-2492182D01*
X18089052Y-2452182D02*
X18049052Y-2492182D01*
X18434369Y-2397064D02*
X18474369Y-2437064D01*
X18474369Y-2397064D02*
X18434369Y-2437064D01*
X18517936Y-2766634D02*
X18557936Y-2806634D01*
X18557936Y-2766634D02*
X18517936Y-2806634D01*
X18626140Y-1689166D02*
X18666140Y-1729166D01*
X18666140Y-1689166D02*
X18626140Y-1729166D01*
X18641888Y-2604582D02*
X18681888Y-2644582D01*
X18681888Y-2604582D02*
X18641888Y-2644582D01*
X19589308Y-2163130D02*
X19629308Y-2203130D01*
X19629308Y-2163130D02*
X19589308Y-2203130D01*
X19804954Y-1798894D02*
X19844954Y-1838894D01*
X19844954Y-1798894D02*
X19804954Y-1838894D01*
X20163856Y-1798894D02*
X20203856Y-1838894D01*
X20203856Y-1798894D02*
X20163856Y-1838894D01*
X6702530Y-4064064D02*
G75*
G03*
X6702530Y-4064064I-45000J0D01*
G01*
X6952530Y-3814064D02*
G75*
G03*
X6952530Y-3814064I-45000J0D01*
G01*
X6952530Y-4314064D02*
G75*
G03*
X6952530Y-4314064I-45000J0D01*
G01*
X8844576Y-1936248D02*
G75*
G03*
X8844576Y-1936248I-45000J0D01*
G01*
X8844576Y-2456248D02*
G75*
G03*
X8844576Y-2456248I-45000J0D01*
G01*
X8844576Y-2976248D02*
G75*
G03*
X8844576Y-2976248I-45000J0D01*
G01*
X8844576Y-3496248D02*
G75*
G03*
X8844576Y-3496248I-45000J0D01*
G01*
X8844576Y-4016248D02*
G75*
G03*
X8844576Y-4016248I-45000J0D01*
G01*
X9098576Y-1936248D02*
G75*
G03*
X9098576Y-1936248I-45000J0D01*
G01*
X9098576Y-2456248D02*
G75*
G03*
X9098576Y-2456248I-45000J0D01*
G01*
X9098576Y-2976248D02*
G75*
G03*
X9098576Y-2976248I-45000J0D01*
G01*
X9098576Y-3496248D02*
G75*
G03*
X9098576Y-3496248I-45000J0D01*
G01*
X9098576Y-4016248D02*
G75*
G03*
X9098576Y-4016248I-45000J0D01*
G01*
X11864890Y-2976248D02*
G75*
G03*
X11864890Y-2976248I-45000J0D01*
G01*
X12118890Y-2976248D02*
G75*
G03*
X12118890Y-2976248I-45000J0D01*
G01*
X12607840Y-2475356D02*
G75*
G03*
X12607840Y-2475356I-45000J0D01*
G01*
X12607840Y-2975356D02*
G75*
G03*
X12607840Y-2975356I-45000J0D01*
G01*
X12857840Y-2725356D02*
G75*
G03*
X12857840Y-2725356I-45000J0D01*
G01*
X14866916Y-1936756D02*
G75*
G03*
X14866916Y-1936756I-45000J0D01*
G01*
X14866916Y-2456756D02*
G75*
G03*
X14866916Y-2456756I-45000J0D01*
G01*
X14866916Y-2976756D02*
G75*
G03*
X14866916Y-2976756I-45000J0D01*
G01*
X14866916Y-3496756D02*
G75*
G03*
X14866916Y-3496756I-45000J0D01*
G01*
X14866916Y-4016756D02*
G75*
G03*
X14866916Y-4016756I-45000J0D01*
G01*
X15120916Y-1936756D02*
G75*
G03*
X15120916Y-1936756I-45000J0D01*
G01*
X15120916Y-2456756D02*
G75*
G03*
X15120916Y-2456756I-45000J0D01*
G01*
X15120916Y-2976756D02*
G75*
G03*
X15120916Y-2976756I-45000J0D01*
G01*
X15120916Y-3496756D02*
G75*
G03*
X15120916Y-3496756I-45000J0D01*
G01*
X15120916Y-4016756D02*
G75*
G03*
X15120916Y-4016756I-45000J0D01*
G01*
X2216150Y-1968030D02*
X2216150Y-2068030D01*
X2166150Y-2018030D02*
X2266150Y-2018030D01*
X2216150Y-2222030D02*
X2216150Y-2322030D01*
X2166150Y-2272030D02*
X2266150Y-2272030D01*
X2218690Y-5517680D02*
X2218690Y-5617680D01*
X2168690Y-5567680D02*
X2268690Y-5567680D01*
X2218690Y-5771680D02*
X2218690Y-5871680D01*
X2168690Y-5821680D02*
X2268690Y-5821680D01*
X2470150Y-1968030D02*
X2470150Y-2068030D01*
X2420150Y-2018030D02*
X2520150Y-2018030D01*
X2470150Y-2222030D02*
X2470150Y-2322030D01*
X2420150Y-2272030D02*
X2520150Y-2272030D01*
X2472690Y-5517680D02*
X2472690Y-5617680D01*
X2422690Y-5567680D02*
X2522690Y-5567680D01*
X2472690Y-5771680D02*
X2472690Y-5871680D01*
X2422690Y-5821680D02*
X2522690Y-5821680D01*
X2724150Y-1968030D02*
X2724150Y-2068030D01*
X2674150Y-2018030D02*
X2774150Y-2018030D01*
X2724150Y-2222030D02*
X2724150Y-2322030D01*
X2674150Y-2272030D02*
X2774150Y-2272030D01*
X2726690Y-5517680D02*
X2726690Y-5617680D01*
X2676690Y-5567680D02*
X2776690Y-5567680D01*
X2726690Y-5771680D02*
X2726690Y-5871680D01*
X2676690Y-5821680D02*
X2776690Y-5821680D01*
X2978150Y-1968030D02*
X2978150Y-2068030D01*
X2928150Y-2018030D02*
X3028150Y-2018030D01*
X2978150Y-2222030D02*
X2978150Y-2322030D01*
X2928150Y-2272030D02*
X3028150Y-2272030D01*
X2980690Y-5517680D02*
X2980690Y-5617680D01*
X2930690Y-5567680D02*
X3030690Y-5567680D01*
X2980690Y-5771680D02*
X2980690Y-5871680D01*
X2930690Y-5821680D02*
X3030690Y-5821680D01*
X3232150Y-1968030D02*
X3232150Y-2068030D01*
X3182150Y-2018030D02*
X3282150Y-2018030D01*
X3232150Y-2222030D02*
X3232150Y-2322030D01*
X3182150Y-2272030D02*
X3282150Y-2272030D01*
X3234690Y-5517680D02*
X3234690Y-5617680D01*
X3184690Y-5567680D02*
X3284690Y-5567680D01*
X3234690Y-5771680D02*
X3234690Y-5871680D01*
X3184690Y-5821680D02*
X3284690Y-5821680D01*
X3434460Y-2876115D02*
X3434460Y-2976115D01*
X3384460Y-2926115D02*
X3484460Y-2926115D01*
X3434460Y-4706115D02*
X3434460Y-4806115D01*
X3384460Y-4756115D02*
X3484460Y-4756115D01*
X3486150Y-1968030D02*
X3486150Y-2068030D01*
X3436150Y-2018030D02*
X3536150Y-2018030D01*
X3486150Y-2222030D02*
X3486150Y-2322030D01*
X3436150Y-2272030D02*
X3536150Y-2272030D01*
X3488690Y-5517680D02*
X3488690Y-5617680D01*
X3438690Y-5567680D02*
X3538690Y-5567680D01*
X3488690Y-5771680D02*
X3488690Y-5871680D01*
X3438690Y-5821680D02*
X3538690Y-5821680D01*
X3684460Y-2876115D02*
X3684460Y-2976115D01*
X3634460Y-2926115D02*
X3734460Y-2926115D01*
X3684460Y-4706115D02*
X3684460Y-4806115D01*
X3634460Y-4756115D02*
X3734460Y-4756115D01*
X3740150Y-1968030D02*
X3740150Y-2068030D01*
X3690150Y-2018030D02*
X3790150Y-2018030D01*
X3740150Y-2222030D02*
X3740150Y-2322030D01*
X3690150Y-2272030D02*
X3790150Y-2272030D01*
X3742690Y-5517680D02*
X3742690Y-5617680D01*
X3692690Y-5567680D02*
X3792690Y-5567680D01*
X3742690Y-5771680D02*
X3742690Y-5871680D01*
X3692690Y-5821680D02*
X3792690Y-5821680D01*
X3934460Y-2876115D02*
X3934460Y-2976115D01*
X3884460Y-2926115D02*
X3984460Y-2926115D01*
X3934460Y-4706115D02*
X3934460Y-4806115D01*
X3884460Y-4756115D02*
X3984460Y-4756115D01*
X3994150Y-1968030D02*
X3994150Y-2068030D01*
X3944150Y-2018030D02*
X4044150Y-2018030D01*
X3994150Y-2222030D02*
X3994150Y-2322030D01*
X3944150Y-2272030D02*
X4044150Y-2272030D01*
X3996690Y-5517680D02*
X3996690Y-5617680D01*
X3946690Y-5567680D02*
X4046690Y-5567680D01*
X3996690Y-5771680D02*
X3996690Y-5871680D01*
X3946690Y-5821680D02*
X4046690Y-5821680D01*
X4184460Y-2876115D02*
X4184460Y-2976115D01*
X4134460Y-2926115D02*
X4234460Y-2926115D01*
X4184460Y-4706115D02*
X4184460Y-4806115D01*
X4134460Y-4756115D02*
X4234460Y-4756115D01*
X4248150Y-1968030D02*
X4248150Y-2068030D01*
X4198150Y-2018030D02*
X4298150Y-2018030D01*
X4248150Y-2222030D02*
X4248150Y-2322030D01*
X4198150Y-2272030D02*
X4298150Y-2272030D01*
X4250690Y-5517680D02*
X4250690Y-5617680D01*
X4200690Y-5567680D02*
X4300690Y-5567680D01*
X4250690Y-5771680D02*
X4250690Y-5871680D01*
X4200690Y-5821680D02*
X4300690Y-5821680D01*
X4434460Y-2876115D02*
X4434460Y-2976115D01*
X4384460Y-2926115D02*
X4484460Y-2926115D01*
X4434460Y-4706115D02*
X4434460Y-4806115D01*
X4384460Y-4756115D02*
X4484460Y-4756115D01*
X4502150Y-1968030D02*
X4502150Y-2068030D01*
X4452150Y-2018030D02*
X4552150Y-2018030D01*
X4502150Y-2222030D02*
X4502150Y-2322030D01*
X4452150Y-2272030D02*
X4552150Y-2272030D01*
X4504690Y-5517680D02*
X4504690Y-5617680D01*
X4454690Y-5567680D02*
X4554690Y-5567680D01*
X4504690Y-5771680D02*
X4504690Y-5871680D01*
X4454690Y-5821680D02*
X4554690Y-5821680D01*
X4756150Y-1968030D02*
X4756150Y-2068030D01*
X4706150Y-2018030D02*
X4806150Y-2018030D01*
X4756150Y-2222030D02*
X4756150Y-2322030D01*
X4706150Y-2272030D02*
X4806150Y-2272030D01*
X4758690Y-5517680D02*
X4758690Y-5617680D01*
X4708690Y-5567680D02*
X4808690Y-5567680D01*
X4758690Y-5771680D02*
X4758690Y-5871680D01*
X4708690Y-5821680D02*
X4808690Y-5821680D01*
X5010150Y-1968030D02*
X5010150Y-2068030D01*
X4960150Y-2018030D02*
X5060150Y-2018030D01*
X5010150Y-2222030D02*
X5010150Y-2322030D01*
X4960150Y-2272030D02*
X5060150Y-2272030D01*
X5012690Y-5517680D02*
X5012690Y-5617680D01*
X4962690Y-5567680D02*
X5062690Y-5567680D01*
X5012690Y-5771680D02*
X5012690Y-5871680D01*
X4962690Y-5821680D02*
X5062690Y-5821680D01*
X5264150Y-1968030D02*
X5264150Y-2068030D01*
X5214150Y-2018030D02*
X5314150Y-2018030D01*
X5264150Y-2222030D02*
X5264150Y-2322030D01*
X5214150Y-2272030D02*
X5314150Y-2272030D01*
X5266690Y-5517680D02*
X5266690Y-5617680D01*
X5216690Y-5567680D02*
X5316690Y-5567680D01*
X5266690Y-5771680D02*
X5266690Y-5871680D01*
X5216690Y-5821680D02*
X5316690Y-5821680D01*
X5518150Y-1968030D02*
X5518150Y-2068030D01*
X5468150Y-2018030D02*
X5568150Y-2018030D01*
X5518150Y-2222030D02*
X5518150Y-2322030D01*
X5468150Y-2272030D02*
X5568150Y-2272030D01*
X5520690Y-5517680D02*
X5520690Y-5617680D01*
X5470690Y-5567680D02*
X5570690Y-5567680D01*
X5520690Y-5771680D02*
X5520690Y-5871680D01*
X5470690Y-5821680D02*
X5570690Y-5821680D01*
X5772150Y-1968030D02*
X5772150Y-2068030D01*
X5722150Y-2018030D02*
X5822150Y-2018030D01*
X5772150Y-2222030D02*
X5772150Y-2322030D01*
X5722150Y-2272030D02*
X5822150Y-2272030D01*
X5774690Y-5517680D02*
X5774690Y-5617680D01*
X5724690Y-5567680D02*
X5824690Y-5567680D01*
X5774690Y-5771680D02*
X5774690Y-5871680D01*
X5724690Y-5821680D02*
X5824690Y-5821680D01*
X6026150Y-1968030D02*
X6026150Y-2068030D01*
X5976150Y-2018030D02*
X6076150Y-2018030D01*
X6026150Y-2222030D02*
X6026150Y-2322030D01*
X5976150Y-2272030D02*
X6076150Y-2272030D01*
X6028690Y-5517680D02*
X6028690Y-5617680D01*
X5978690Y-5567680D02*
X6078690Y-5567680D01*
X6028690Y-5771680D02*
X6028690Y-5871680D01*
X5978690Y-5821680D02*
X6078690Y-5821680D01*
X6280150Y-1968030D02*
X6280150Y-2068030D01*
X6230150Y-2018030D02*
X6330150Y-2018030D01*
X6280150Y-2222030D02*
X6280150Y-2322030D01*
X6230150Y-2272030D02*
X6330150Y-2272030D01*
X6282690Y-5517680D02*
X6282690Y-5617680D01*
X6232690Y-5567680D02*
X6332690Y-5567680D01*
X6282690Y-5771680D02*
X6282690Y-5871680D01*
X6232690Y-5821680D02*
X6332690Y-5821680D01*
X8661146Y-5021618D02*
X8661146Y-5121618D01*
X8611146Y-5071618D02*
X8711146Y-5071618D01*
X8661146Y-5529618D02*
X8661146Y-5629618D01*
X8611146Y-5579618D02*
X8711146Y-5579618D01*
X8915146Y-5005618D02*
X8915146Y-5105618D01*
X8865146Y-5055618D02*
X8965146Y-5055618D01*
X8915146Y-5545618D02*
X8915146Y-5645618D01*
X8865146Y-5595618D02*
X8965146Y-5595618D01*
X9169146Y-5021618D02*
X9169146Y-5121618D01*
X9119146Y-5071618D02*
X9219146Y-5071618D01*
X9169146Y-5529618D02*
X9169146Y-5629618D01*
X9119146Y-5579618D02*
X9219146Y-5579618D01*
X14682470Y-5021110D02*
X14682470Y-5121110D01*
X14632470Y-5071110D02*
X14732470Y-5071110D01*
X14682470Y-5529110D02*
X14682470Y-5629110D01*
X14632470Y-5579110D02*
X14732470Y-5579110D01*
X14936470Y-5005110D02*
X14936470Y-5105110D01*
X14886470Y-5055110D02*
X14986470Y-5055110D01*
X14936470Y-5545110D02*
X14936470Y-5645110D01*
X14886470Y-5595110D02*
X14986470Y-5595110D01*
X15190470Y-5021110D02*
X15190470Y-5121110D01*
X15140470Y-5071110D02*
X15240470Y-5071110D01*
X15190470Y-5529110D02*
X15190470Y-5629110D01*
X15140470Y-5579110D02*
X15240470Y-5579110D01*
X19414870Y-2876115D02*
X19414870Y-2976115D01*
X19364870Y-2926115D02*
X19464870Y-2926115D01*
X19414870Y-4706115D02*
X19414870Y-4806115D01*
X19364870Y-4756115D02*
X19464870Y-4756115D01*
X19664870Y-2876115D02*
X19664870Y-2976115D01*
X19614870Y-2926115D02*
X19714870Y-2926115D01*
X19664870Y-4706115D02*
X19664870Y-4806115D01*
X19614870Y-4756115D02*
X19714870Y-4756115D01*
X19914870Y-2876115D02*
X19914870Y-2976115D01*
X19864870Y-2926115D02*
X19964870Y-2926115D01*
X19914870Y-4706115D02*
X19914870Y-4806115D01*
X19864870Y-4756115D02*
X19964870Y-4756115D01*
X20164870Y-2876115D02*
X20164870Y-2976115D01*
X20114870Y-2926115D02*
X20214870Y-2926115D01*
X20164870Y-4706115D02*
X20164870Y-4806115D01*
X20114870Y-4756115D02*
X20214870Y-4756115D01*
X20414870Y-2876115D02*
X20414870Y-2976115D01*
X20364870Y-2926115D02*
X20464870Y-2926115D01*
X20414870Y-4706115D02*
X20414870Y-4806115D01*
X20364870Y-4756115D02*
X20464870Y-4756115D01*
D12*
X1807928Y-6692214D02*
X1807928Y-6392214D01*
X1879357Y-6392214D01*
X1922214Y-6406500D01*
X1950786Y-6435071D01*
X1965071Y-6463643D01*
X1979357Y-6520786D01*
X1979357Y-6563643D01*
X1965071Y-6620786D01*
X1950786Y-6649357D01*
X1922214Y-6677929D01*
X1879357Y-6692214D01*
X1807928Y-6692214D01*
X2107928Y-6692214D02*
X2107928Y-6492214D01*
X2107928Y-6549357D02*
X2122214Y-6520786D01*
X2136500Y-6506500D01*
X2165071Y-6492214D01*
X2193643Y-6492214D01*
X2293643Y-6692214D02*
X2293643Y-6492214D01*
X2293643Y-6392214D02*
X2279357Y-6406500D01*
X2293643Y-6420786D01*
X2307928Y-6406500D01*
X2293643Y-6392214D01*
X2293643Y-6420786D01*
X2479357Y-6692214D02*
X2450786Y-6677929D01*
X2436500Y-6649357D01*
X2436500Y-6392214D01*
X2636500Y-6692214D02*
X2607928Y-6677929D01*
X2593643Y-6649357D01*
X2593643Y-6392214D01*
X2979357Y-6692214D02*
X2979357Y-6392214D01*
X3079357Y-6606500D01*
X3179357Y-6392214D01*
X3179357Y-6692214D01*
X3450786Y-6692214D02*
X3450786Y-6535071D01*
X3436500Y-6506500D01*
X3407928Y-6492214D01*
X3350786Y-6492214D01*
X3322214Y-6506500D01*
X3450786Y-6677929D02*
X3422214Y-6692214D01*
X3350786Y-6692214D01*
X3322214Y-6677929D01*
X3307928Y-6649357D01*
X3307928Y-6620786D01*
X3322214Y-6592214D01*
X3350786Y-6577929D01*
X3422214Y-6577929D01*
X3450786Y-6563643D01*
X3593643Y-6492214D02*
X3593643Y-6792214D01*
X3593643Y-6506500D02*
X3622214Y-6492214D01*
X3679357Y-6492214D01*
X3707928Y-6506500D01*
X3722214Y-6520786D01*
X3736500Y-6549357D01*
X3736500Y-6635071D01*
X3722214Y-6663643D01*
X3707928Y-6677929D01*
X3679357Y-6692214D01*
X3622214Y-6692214D01*
X3593643Y-6677929D01*
X3865071Y-6663643D02*
X3879357Y-6677929D01*
X3865071Y-6692214D01*
X3850786Y-6677929D01*
X3865071Y-6663643D01*
X3865071Y-6692214D01*
X3865071Y-6506500D02*
X3879357Y-6520786D01*
X3865071Y-6535071D01*
X3850786Y-6520786D01*
X3865071Y-6506500D01*
X3865071Y-6535071D01*
X1481500Y-7166500D02*
X1521500Y-7206500D01*
X1521500Y-7166500D02*
X1481500Y-7206500D01*
X1865071Y-7022214D02*
X1893643Y-7022214D01*
X1922214Y-7036500D01*
X1936500Y-7050786D01*
X1950786Y-7079357D01*
X1965071Y-7136500D01*
X1965071Y-7207929D01*
X1950786Y-7265071D01*
X1936500Y-7293643D01*
X1922214Y-7307929D01*
X1893643Y-7322214D01*
X1865071Y-7322214D01*
X1836500Y-7307929D01*
X1822214Y-7293643D01*
X1807928Y-7265071D01*
X1793643Y-7207929D01*
X1793643Y-7136500D01*
X1807928Y-7079357D01*
X1822214Y-7050786D01*
X1836500Y-7036500D01*
X1865071Y-7022214D01*
X2093643Y-7293643D02*
X2107928Y-7307929D01*
X2093643Y-7322214D01*
X2079357Y-7307929D01*
X2093643Y-7293643D01*
X2093643Y-7322214D01*
X2365071Y-7122214D02*
X2365071Y-7322214D01*
X2293643Y-7007929D02*
X2222214Y-7222214D01*
X2407928Y-7222214D01*
X2579357Y-7022214D02*
X2607928Y-7022214D01*
X2636500Y-7036500D01*
X2650786Y-7050786D01*
X2665071Y-7079357D01*
X2679357Y-7136500D01*
X2679357Y-7207929D01*
X2665071Y-7265071D01*
X2650786Y-7293643D01*
X2636500Y-7307929D01*
X2607928Y-7322214D01*
X2579357Y-7322214D01*
X2550786Y-7307929D01*
X2536500Y-7293643D01*
X2522214Y-7265071D01*
X2507928Y-7207929D01*
X2507928Y-7136500D01*
X2522214Y-7079357D01*
X2536500Y-7050786D01*
X2550786Y-7036500D01*
X2579357Y-7022214D01*
X2865071Y-7022214D02*
X2893643Y-7022214D01*
X2922214Y-7036500D01*
X2936500Y-7050786D01*
X2950786Y-7079357D01*
X2965071Y-7136500D01*
X2965071Y-7207929D01*
X2950786Y-7265071D01*
X2936500Y-7293643D01*
X2922214Y-7307929D01*
X2893643Y-7322214D01*
X2865071Y-7322214D01*
X2836500Y-7307929D01*
X2822214Y-7293643D01*
X2807928Y-7265071D01*
X2793643Y-7207929D01*
X2793643Y-7136500D01*
X2807928Y-7079357D01*
X2822214Y-7050786D01*
X2836500Y-7036500D01*
X2865071Y-7022214D01*
X3093643Y-7322214D02*
X3093643Y-7122214D01*
X3093643Y-7150786D02*
X3107928Y-7136500D01*
X3136500Y-7122214D01*
X3179357Y-7122214D01*
X3207928Y-7136500D01*
X3222214Y-7165071D01*
X3222214Y-7322214D01*
X3222214Y-7165071D02*
X3236500Y-7136500D01*
X3265071Y-7122214D01*
X3307928Y-7122214D01*
X3336500Y-7136500D01*
X3350786Y-7165071D01*
X3350786Y-7322214D01*
X3493643Y-7322214D02*
X3493643Y-7122214D01*
X3493643Y-7150786D02*
X3507928Y-7136500D01*
X3536500Y-7122214D01*
X3579357Y-7122214D01*
X3607928Y-7136500D01*
X3622214Y-7165071D01*
X3622214Y-7322214D01*
X3622214Y-7165071D02*
X3636500Y-7136500D01*
X3665071Y-7122214D01*
X3707928Y-7122214D01*
X3736500Y-7136500D01*
X3750786Y-7165071D01*
X3750786Y-7322214D01*
X4336500Y-7007929D02*
X4079357Y-7393643D01*
X4722214Y-7022214D02*
X4750786Y-7022214D01*
X4779357Y-7036500D01*
X4793643Y-7050786D01*
X4807928Y-7079357D01*
X4822214Y-7136500D01*
X4822214Y-7207929D01*
X4807928Y-7265071D01*
X4793643Y-7293643D01*
X4779357Y-7307929D01*
X4750786Y-7322214D01*
X4722214Y-7322214D01*
X4693643Y-7307929D01*
X4679357Y-7293643D01*
X4665071Y-7265071D01*
X4650786Y-7207929D01*
X4650786Y-7136500D01*
X4665071Y-7079357D01*
X4679357Y-7050786D01*
X4693643Y-7036500D01*
X4722214Y-7022214D01*
X4950786Y-7293643D02*
X4965071Y-7307929D01*
X4950786Y-7322214D01*
X4936500Y-7307929D01*
X4950786Y-7293643D01*
X4950786Y-7322214D01*
X5150786Y-7022214D02*
X5179357Y-7022214D01*
X5207928Y-7036500D01*
X5222214Y-7050786D01*
X5236500Y-7079357D01*
X5250786Y-7136500D01*
X5250786Y-7207929D01*
X5236500Y-7265071D01*
X5222214Y-7293643D01*
X5207928Y-7307929D01*
X5179357Y-7322214D01*
X5150786Y-7322214D01*
X5122214Y-7307929D01*
X5107928Y-7293643D01*
X5093643Y-7265071D01*
X5079357Y-7207929D01*
X5079357Y-7136500D01*
X5093643Y-7079357D01*
X5107928Y-7050786D01*
X5122214Y-7036500D01*
X5150786Y-7022214D01*
X5536500Y-7322214D02*
X5365071Y-7322214D01*
X5450786Y-7322214D02*
X5450786Y-7022214D01*
X5422214Y-7065071D01*
X5393643Y-7093643D01*
X5365071Y-7107929D01*
X5807928Y-7022214D02*
X5665071Y-7022214D01*
X5650786Y-7165071D01*
X5665071Y-7150786D01*
X5693643Y-7136500D01*
X5765071Y-7136500D01*
X5793643Y-7150786D01*
X5807928Y-7165071D01*
X5822214Y-7193643D01*
X5822214Y-7265071D01*
X5807928Y-7293643D01*
X5793643Y-7307929D01*
X5765071Y-7322214D01*
X5693643Y-7322214D01*
X5665071Y-7307929D01*
X5650786Y-7293643D01*
X5922214Y-7022214D02*
X6122214Y-7022214D01*
X5993643Y-7322214D01*
X6222214Y-7022214D02*
X6222214Y-7079357D01*
X6336500Y-7022214D02*
X6336500Y-7079357D01*
X6779357Y-7436500D02*
X6765071Y-7422214D01*
X6736500Y-7379357D01*
X6722214Y-7350786D01*
X6707928Y-7307929D01*
X6693643Y-7236500D01*
X6693643Y-7179357D01*
X6707928Y-7107929D01*
X6722214Y-7065071D01*
X6736500Y-7036500D01*
X6765071Y-6993643D01*
X6779357Y-6979357D01*
X7050786Y-7322214D02*
X6879357Y-7322214D01*
X6965071Y-7322214D02*
X6965071Y-7022214D01*
X6936500Y-7065071D01*
X6907928Y-7093643D01*
X6879357Y-7107929D01*
X7307928Y-7122214D02*
X7307928Y-7322214D01*
X7236500Y-7007929D02*
X7165071Y-7222214D01*
X7350786Y-7222214D01*
X7593643Y-7122214D02*
X7593643Y-7322214D01*
X7522214Y-7007929D02*
X7450786Y-7222214D01*
X7636500Y-7222214D01*
X7979357Y-7322214D02*
X7979357Y-7022214D01*
X8107928Y-7322214D02*
X8107928Y-7165071D01*
X8093643Y-7136500D01*
X8065071Y-7122214D01*
X8022214Y-7122214D01*
X7993643Y-7136500D01*
X7979357Y-7150786D01*
X8293643Y-7322214D02*
X8265071Y-7307929D01*
X8250786Y-7293643D01*
X8236500Y-7265071D01*
X8236500Y-7179357D01*
X8250786Y-7150786D01*
X8265071Y-7136500D01*
X8293643Y-7122214D01*
X8336500Y-7122214D01*
X8365071Y-7136500D01*
X8379357Y-7150786D01*
X8393643Y-7179357D01*
X8393643Y-7265071D01*
X8379357Y-7293643D01*
X8365071Y-7307929D01*
X8336500Y-7322214D01*
X8293643Y-7322214D01*
X8565071Y-7322214D02*
X8536500Y-7307929D01*
X8522214Y-7279357D01*
X8522214Y-7022214D01*
X8793643Y-7307929D02*
X8765071Y-7322214D01*
X8707928Y-7322214D01*
X8679357Y-7307929D01*
X8665071Y-7279357D01*
X8665071Y-7165071D01*
X8679357Y-7136500D01*
X8707928Y-7122214D01*
X8765071Y-7122214D01*
X8793643Y-7136500D01*
X8807928Y-7165071D01*
X8807928Y-7193643D01*
X8665071Y-7222214D01*
X8922214Y-7307929D02*
X8950786Y-7322214D01*
X9007928Y-7322214D01*
X9036500Y-7307929D01*
X9050786Y-7279357D01*
X9050786Y-7265071D01*
X9036500Y-7236500D01*
X9007928Y-7222214D01*
X8965071Y-7222214D01*
X8936500Y-7207929D01*
X8922214Y-7179357D01*
X8922214Y-7165071D01*
X8936500Y-7136500D01*
X8965071Y-7122214D01*
X9007928Y-7122214D01*
X9036500Y-7136500D01*
X9150786Y-7436500D02*
X9165071Y-7422214D01*
X9193643Y-7379357D01*
X9207928Y-7350786D01*
X9222214Y-7307929D01*
X9236500Y-7236500D01*
X9236500Y-7179357D01*
X9222214Y-7107929D01*
X9207928Y-7065071D01*
X9193643Y-7036500D01*
X9165071Y-6993643D01*
X9150786Y-6979357D01*
X1521500Y-7582500D02*
G75*
G03*
X1521500Y-7582500I-45000J0D01*
G01*
X1865071Y-7418214D02*
X1893643Y-7418214D01*
X1922214Y-7432500D01*
X1936500Y-7446786D01*
X1950786Y-7475357D01*
X1965071Y-7532500D01*
X1965071Y-7603929D01*
X1950786Y-7661071D01*
X1936500Y-7689643D01*
X1922214Y-7703929D01*
X1893643Y-7718214D01*
X1865071Y-7718214D01*
X1836500Y-7703929D01*
X1822214Y-7689643D01*
X1807928Y-7661071D01*
X1793643Y-7603929D01*
X1793643Y-7532500D01*
X1807928Y-7475357D01*
X1822214Y-7446786D01*
X1836500Y-7432500D01*
X1865071Y-7418214D01*
X2093643Y-7689643D02*
X2107928Y-7703929D01*
X2093643Y-7718214D01*
X2079357Y-7703929D01*
X2093643Y-7689643D01*
X2093643Y-7718214D01*
X2250786Y-7718214D02*
X2307928Y-7718214D01*
X2336500Y-7703929D01*
X2350786Y-7689643D01*
X2379357Y-7646786D01*
X2393643Y-7589643D01*
X2393643Y-7475357D01*
X2379357Y-7446786D01*
X2365071Y-7432500D01*
X2336500Y-7418214D01*
X2279357Y-7418214D01*
X2250786Y-7432500D01*
X2236500Y-7446786D01*
X2222214Y-7475357D01*
X2222214Y-7546786D01*
X2236500Y-7575357D01*
X2250786Y-7589643D01*
X2279357Y-7603929D01*
X2336500Y-7603929D01*
X2365071Y-7589643D01*
X2379357Y-7575357D01*
X2393643Y-7546786D01*
X2579357Y-7418214D02*
X2607928Y-7418214D01*
X2636500Y-7432500D01*
X2650786Y-7446786D01*
X2665071Y-7475357D01*
X2679357Y-7532500D01*
X2679357Y-7603929D01*
X2665071Y-7661071D01*
X2650786Y-7689643D01*
X2636500Y-7703929D01*
X2607928Y-7718214D01*
X2579357Y-7718214D01*
X2550786Y-7703929D01*
X2536500Y-7689643D01*
X2522214Y-7661071D01*
X2507928Y-7603929D01*
X2507928Y-7532500D01*
X2522214Y-7475357D01*
X2536500Y-7446786D01*
X2550786Y-7432500D01*
X2579357Y-7418214D01*
X2865071Y-7418214D02*
X2893643Y-7418214D01*
X2922214Y-7432500D01*
X2936500Y-7446786D01*
X2950786Y-7475357D01*
X2965071Y-7532500D01*
X2965071Y-7603929D01*
X2950786Y-7661071D01*
X2936500Y-7689643D01*
X2922214Y-7703929D01*
X2893643Y-7718214D01*
X2865071Y-7718214D01*
X2836500Y-7703929D01*
X2822214Y-7689643D01*
X2807928Y-7661071D01*
X2793643Y-7603929D01*
X2793643Y-7532500D01*
X2807928Y-7475357D01*
X2822214Y-7446786D01*
X2836500Y-7432500D01*
X2865071Y-7418214D01*
X3093643Y-7718214D02*
X3093643Y-7518214D01*
X3093643Y-7546786D02*
X3107928Y-7532500D01*
X3136500Y-7518214D01*
X3179357Y-7518214D01*
X3207928Y-7532500D01*
X3222214Y-7561071D01*
X3222214Y-7718214D01*
X3222214Y-7561071D02*
X3236500Y-7532500D01*
X3265071Y-7518214D01*
X3307928Y-7518214D01*
X3336500Y-7532500D01*
X3350786Y-7561071D01*
X3350786Y-7718214D01*
X3493643Y-7718214D02*
X3493643Y-7518214D01*
X3493643Y-7546786D02*
X3507928Y-7532500D01*
X3536500Y-7518214D01*
X3579357Y-7518214D01*
X3607928Y-7532500D01*
X3622214Y-7561071D01*
X3622214Y-7718214D01*
X3622214Y-7561071D02*
X3636500Y-7532500D01*
X3665071Y-7518214D01*
X3707928Y-7518214D01*
X3736500Y-7532500D01*
X3750786Y-7561071D01*
X3750786Y-7718214D01*
X4336500Y-7403929D02*
X4079357Y-7789643D01*
X4722214Y-7418214D02*
X4750786Y-7418214D01*
X4779357Y-7432500D01*
X4793643Y-7446786D01*
X4807928Y-7475357D01*
X4822214Y-7532500D01*
X4822214Y-7603929D01*
X4807928Y-7661071D01*
X4793643Y-7689643D01*
X4779357Y-7703929D01*
X4750786Y-7718214D01*
X4722214Y-7718214D01*
X4693643Y-7703929D01*
X4679357Y-7689643D01*
X4665071Y-7661071D01*
X4650786Y-7603929D01*
X4650786Y-7532500D01*
X4665071Y-7475357D01*
X4679357Y-7446786D01*
X4693643Y-7432500D01*
X4722214Y-7418214D01*
X4950786Y-7689643D02*
X4965071Y-7703929D01*
X4950786Y-7718214D01*
X4936500Y-7703929D01*
X4950786Y-7689643D01*
X4950786Y-7718214D01*
X5150786Y-7418214D02*
X5179357Y-7418214D01*
X5207928Y-7432500D01*
X5222214Y-7446786D01*
X5236500Y-7475357D01*
X5250786Y-7532500D01*
X5250786Y-7603929D01*
X5236500Y-7661071D01*
X5222214Y-7689643D01*
X5207928Y-7703929D01*
X5179357Y-7718214D01*
X5150786Y-7718214D01*
X5122214Y-7703929D01*
X5107928Y-7689643D01*
X5093643Y-7661071D01*
X5079357Y-7603929D01*
X5079357Y-7532500D01*
X5093643Y-7475357D01*
X5107928Y-7446786D01*
X5122214Y-7432500D01*
X5150786Y-7418214D01*
X5350786Y-7418214D02*
X5536500Y-7418214D01*
X5436500Y-7532500D01*
X5479357Y-7532500D01*
X5507928Y-7546786D01*
X5522214Y-7561071D01*
X5536500Y-7589643D01*
X5536500Y-7661071D01*
X5522214Y-7689643D01*
X5507928Y-7703929D01*
X5479357Y-7718214D01*
X5393643Y-7718214D01*
X5365071Y-7703929D01*
X5350786Y-7689643D01*
X5807928Y-7418214D02*
X5665071Y-7418214D01*
X5650786Y-7561071D01*
X5665071Y-7546786D01*
X5693643Y-7532500D01*
X5765071Y-7532500D01*
X5793643Y-7546786D01*
X5807928Y-7561071D01*
X5822214Y-7589643D01*
X5822214Y-7661071D01*
X5807928Y-7689643D01*
X5793643Y-7703929D01*
X5765071Y-7718214D01*
X5693643Y-7718214D01*
X5665071Y-7703929D01*
X5650786Y-7689643D01*
X6079357Y-7518214D02*
X6079357Y-7718214D01*
X6007928Y-7403929D02*
X5936500Y-7618214D01*
X6122214Y-7618214D01*
X6222214Y-7418214D02*
X6222214Y-7475357D01*
X6336500Y-7418214D02*
X6336500Y-7475357D01*
X6779357Y-7832500D02*
X6765071Y-7818214D01*
X6736500Y-7775357D01*
X6722214Y-7746786D01*
X6707928Y-7703929D01*
X6693643Y-7632500D01*
X6693643Y-7575357D01*
X6707928Y-7503929D01*
X6722214Y-7461071D01*
X6736500Y-7432500D01*
X6765071Y-7389643D01*
X6779357Y-7375357D01*
X6879357Y-7446786D02*
X6893643Y-7432500D01*
X6922214Y-7418214D01*
X6993643Y-7418214D01*
X7022214Y-7432500D01*
X7036500Y-7446786D01*
X7050786Y-7475357D01*
X7050786Y-7503929D01*
X7036500Y-7546786D01*
X6865071Y-7718214D01*
X7050786Y-7718214D01*
X7222214Y-7546786D02*
X7193643Y-7532500D01*
X7179357Y-7518214D01*
X7165071Y-7489643D01*
X7165071Y-7475357D01*
X7179357Y-7446786D01*
X7193643Y-7432500D01*
X7222214Y-7418214D01*
X7279357Y-7418214D01*
X7307928Y-7432500D01*
X7322214Y-7446786D01*
X7336500Y-7475357D01*
X7336500Y-7489643D01*
X7322214Y-7518214D01*
X7307928Y-7532500D01*
X7279357Y-7546786D01*
X7222214Y-7546786D01*
X7193643Y-7561071D01*
X7179357Y-7575357D01*
X7165071Y-7603929D01*
X7165071Y-7661071D01*
X7179357Y-7689643D01*
X7193643Y-7703929D01*
X7222214Y-7718214D01*
X7279357Y-7718214D01*
X7307928Y-7703929D01*
X7322214Y-7689643D01*
X7336500Y-7661071D01*
X7336500Y-7603929D01*
X7322214Y-7575357D01*
X7307928Y-7561071D01*
X7279357Y-7546786D01*
X7693643Y-7718214D02*
X7693643Y-7418214D01*
X7822214Y-7718214D02*
X7822214Y-7561071D01*
X7807928Y-7532500D01*
X7779357Y-7518214D01*
X7736500Y-7518214D01*
X7707928Y-7532500D01*
X7693643Y-7546786D01*
X8007928Y-7718214D02*
X7979357Y-7703929D01*
X7965071Y-7689643D01*
X7950786Y-7661071D01*
X7950786Y-7575357D01*
X7965071Y-7546786D01*
X7979357Y-7532500D01*
X8007928Y-7518214D01*
X8050786Y-7518214D01*
X8079357Y-7532500D01*
X8093643Y-7546786D01*
X8107928Y-7575357D01*
X8107928Y-7661071D01*
X8093643Y-7689643D01*
X8079357Y-7703929D01*
X8050786Y-7718214D01*
X8007928Y-7718214D01*
X8279357Y-7718214D02*
X8250786Y-7703929D01*
X8236500Y-7675357D01*
X8236500Y-7418214D01*
X8507928Y-7703929D02*
X8479357Y-7718214D01*
X8422214Y-7718214D01*
X8393643Y-7703929D01*
X8379357Y-7675357D01*
X8379357Y-7561071D01*
X8393643Y-7532500D01*
X8422214Y-7518214D01*
X8479357Y-7518214D01*
X8507928Y-7532500D01*
X8522214Y-7561071D01*
X8522214Y-7589643D01*
X8379357Y-7618214D01*
X8636500Y-7703929D02*
X8665071Y-7718214D01*
X8722214Y-7718214D01*
X8750786Y-7703929D01*
X8765071Y-7675357D01*
X8765071Y-7661071D01*
X8750786Y-7632500D01*
X8722214Y-7618214D01*
X8679357Y-7618214D01*
X8650786Y-7603929D01*
X8636500Y-7575357D01*
X8636500Y-7561071D01*
X8650786Y-7532500D01*
X8679357Y-7518214D01*
X8722214Y-7518214D01*
X8750786Y-7532500D01*
X8865071Y-7832500D02*
X8879357Y-7818214D01*
X8907928Y-7775357D01*
X8922214Y-7746786D01*
X8936500Y-7703929D01*
X8950786Y-7632500D01*
X8950786Y-7575357D01*
X8936500Y-7503929D01*
X8922214Y-7461071D01*
X8907928Y-7432500D01*
X8879357Y-7389643D01*
X8865071Y-7375357D01*
X1471500Y-7928500D02*
X1471500Y-8028500D01*
X1421500Y-7978500D02*
X1521500Y-7978500D01*
X1965071Y-8114214D02*
X1793643Y-8114214D01*
X1879357Y-8114214D02*
X1879357Y-7814214D01*
X1850786Y-7857071D01*
X1822214Y-7885643D01*
X1793643Y-7899929D01*
X2093643Y-8085643D02*
X2107928Y-8099929D01*
X2093643Y-8114214D01*
X2079357Y-8099929D01*
X2093643Y-8085643D01*
X2093643Y-8114214D01*
X2293643Y-7814214D02*
X2322214Y-7814214D01*
X2350786Y-7828500D01*
X2365071Y-7842786D01*
X2379357Y-7871357D01*
X2393643Y-7928500D01*
X2393643Y-7999929D01*
X2379357Y-8057071D01*
X2365071Y-8085643D01*
X2350786Y-8099929D01*
X2322214Y-8114214D01*
X2293643Y-8114214D01*
X2265071Y-8099929D01*
X2250786Y-8085643D01*
X2236500Y-8057071D01*
X2222214Y-7999929D01*
X2222214Y-7928500D01*
X2236500Y-7871357D01*
X2250786Y-7842786D01*
X2265071Y-7828500D01*
X2293643Y-7814214D01*
X2579357Y-7814214D02*
X2607928Y-7814214D01*
X2636500Y-7828500D01*
X2650786Y-7842786D01*
X2665071Y-7871357D01*
X2679357Y-7928500D01*
X2679357Y-7999929D01*
X2665071Y-8057071D01*
X2650786Y-8085643D01*
X2636500Y-8099929D01*
X2607928Y-8114214D01*
X2579357Y-8114214D01*
X2550786Y-8099929D01*
X2536500Y-8085643D01*
X2522214Y-8057071D01*
X2507928Y-7999929D01*
X2507928Y-7928500D01*
X2522214Y-7871357D01*
X2536500Y-7842786D01*
X2550786Y-7828500D01*
X2579357Y-7814214D01*
X2865071Y-7814214D02*
X2893643Y-7814214D01*
X2922214Y-7828500D01*
X2936500Y-7842786D01*
X2950786Y-7871357D01*
X2965071Y-7928500D01*
X2965071Y-7999929D01*
X2950786Y-8057071D01*
X2936500Y-8085643D01*
X2922214Y-8099929D01*
X2893643Y-8114214D01*
X2865071Y-8114214D01*
X2836500Y-8099929D01*
X2822214Y-8085643D01*
X2807928Y-8057071D01*
X2793643Y-7999929D01*
X2793643Y-7928500D01*
X2807928Y-7871357D01*
X2822214Y-7842786D01*
X2836500Y-7828500D01*
X2865071Y-7814214D01*
X3093643Y-8114214D02*
X3093643Y-7914214D01*
X3093643Y-7942786D02*
X3107928Y-7928500D01*
X3136500Y-7914214D01*
X3179357Y-7914214D01*
X3207928Y-7928500D01*
X3222214Y-7957071D01*
X3222214Y-8114214D01*
X3222214Y-7957071D02*
X3236500Y-7928500D01*
X3265071Y-7914214D01*
X3307928Y-7914214D01*
X3336500Y-7928500D01*
X3350786Y-7957071D01*
X3350786Y-8114214D01*
X3493643Y-8114214D02*
X3493643Y-7914214D01*
X3493643Y-7942786D02*
X3507928Y-7928500D01*
X3536500Y-7914214D01*
X3579357Y-7914214D01*
X3607928Y-7928500D01*
X3622214Y-7957071D01*
X3622214Y-8114214D01*
X3622214Y-7957071D02*
X3636500Y-7928500D01*
X3665071Y-7914214D01*
X3707928Y-7914214D01*
X3736500Y-7928500D01*
X3750786Y-7957071D01*
X3750786Y-8114214D01*
X4336500Y-7799929D02*
X4079357Y-8185643D01*
X4722214Y-7814214D02*
X4750786Y-7814214D01*
X4779357Y-7828500D01*
X4793643Y-7842786D01*
X4807928Y-7871357D01*
X4822214Y-7928500D01*
X4822214Y-7999929D01*
X4807928Y-8057071D01*
X4793643Y-8085643D01*
X4779357Y-8099929D01*
X4750786Y-8114214D01*
X4722214Y-8114214D01*
X4693643Y-8099929D01*
X4679357Y-8085643D01*
X4665071Y-8057071D01*
X4650786Y-7999929D01*
X4650786Y-7928500D01*
X4665071Y-7871357D01*
X4679357Y-7842786D01*
X4693643Y-7828500D01*
X4722214Y-7814214D01*
X4950786Y-8085643D02*
X4965071Y-8099929D01*
X4950786Y-8114214D01*
X4936500Y-8099929D01*
X4950786Y-8085643D01*
X4950786Y-8114214D01*
X5150786Y-7814214D02*
X5179357Y-7814214D01*
X5207928Y-7828500D01*
X5222214Y-7842786D01*
X5236500Y-7871357D01*
X5250786Y-7928500D01*
X5250786Y-7999929D01*
X5236500Y-8057071D01*
X5222214Y-8085643D01*
X5207928Y-8099929D01*
X5179357Y-8114214D01*
X5150786Y-8114214D01*
X5122214Y-8099929D01*
X5107928Y-8085643D01*
X5093643Y-8057071D01*
X5079357Y-7999929D01*
X5079357Y-7928500D01*
X5093643Y-7871357D01*
X5107928Y-7842786D01*
X5122214Y-7828500D01*
X5150786Y-7814214D01*
X5350786Y-7814214D02*
X5536500Y-7814214D01*
X5436500Y-7928500D01*
X5479357Y-7928500D01*
X5507928Y-7942786D01*
X5522214Y-7957071D01*
X5536500Y-7985643D01*
X5536500Y-8057071D01*
X5522214Y-8085643D01*
X5507928Y-8099929D01*
X5479357Y-8114214D01*
X5393643Y-8114214D01*
X5365071Y-8099929D01*
X5350786Y-8085643D01*
X5679357Y-8114214D02*
X5736500Y-8114214D01*
X5765071Y-8099929D01*
X5779357Y-8085643D01*
X5807928Y-8042786D01*
X5822214Y-7985643D01*
X5822214Y-7871357D01*
X5807928Y-7842786D01*
X5793643Y-7828500D01*
X5765071Y-7814214D01*
X5707928Y-7814214D01*
X5679357Y-7828500D01*
X5665071Y-7842786D01*
X5650786Y-7871357D01*
X5650786Y-7942786D01*
X5665071Y-7971357D01*
X5679357Y-7985643D01*
X5707928Y-7999929D01*
X5765071Y-7999929D01*
X5793643Y-7985643D01*
X5807928Y-7971357D01*
X5822214Y-7942786D01*
X6079357Y-7914214D02*
X6079357Y-8114214D01*
X6007928Y-7799929D02*
X5936500Y-8014214D01*
X6122214Y-8014214D01*
X6222214Y-7814214D02*
X6222214Y-7871357D01*
X6336500Y-7814214D02*
X6336500Y-7871357D01*
X6779357Y-8228500D02*
X6765071Y-8214214D01*
X6736500Y-8171357D01*
X6722214Y-8142786D01*
X6707928Y-8099929D01*
X6693643Y-8028500D01*
X6693643Y-7971357D01*
X6707928Y-7899929D01*
X6722214Y-7857071D01*
X6736500Y-7828500D01*
X6765071Y-7785643D01*
X6779357Y-7771357D01*
X7050786Y-8114214D02*
X6879357Y-8114214D01*
X6965071Y-8114214D02*
X6965071Y-7814214D01*
X6936500Y-7857071D01*
X6907928Y-7885643D01*
X6879357Y-7899929D01*
X7236500Y-7814214D02*
X7265071Y-7814214D01*
X7293643Y-7828500D01*
X7307928Y-7842786D01*
X7322214Y-7871357D01*
X7336500Y-7928500D01*
X7336500Y-7999929D01*
X7322214Y-8057071D01*
X7307928Y-8085643D01*
X7293643Y-8099929D01*
X7265071Y-8114214D01*
X7236500Y-8114214D01*
X7207928Y-8099929D01*
X7193643Y-8085643D01*
X7179357Y-8057071D01*
X7165071Y-7999929D01*
X7165071Y-7928500D01*
X7179357Y-7871357D01*
X7193643Y-7842786D01*
X7207928Y-7828500D01*
X7236500Y-7814214D01*
X7522214Y-7814214D02*
X7550786Y-7814214D01*
X7579357Y-7828500D01*
X7593643Y-7842786D01*
X7607928Y-7871357D01*
X7622214Y-7928500D01*
X7622214Y-7999929D01*
X7607928Y-8057071D01*
X7593643Y-8085643D01*
X7579357Y-8099929D01*
X7550786Y-8114214D01*
X7522214Y-8114214D01*
X7493643Y-8099929D01*
X7479357Y-8085643D01*
X7465071Y-8057071D01*
X7450786Y-7999929D01*
X7450786Y-7928500D01*
X7465071Y-7871357D01*
X7479357Y-7842786D01*
X7493643Y-7828500D01*
X7522214Y-7814214D01*
X7979357Y-8114214D02*
X7979357Y-7814214D01*
X8107928Y-8114214D02*
X8107928Y-7957071D01*
X8093643Y-7928500D01*
X8065071Y-7914214D01*
X8022214Y-7914214D01*
X7993643Y-7928500D01*
X7979357Y-7942786D01*
X8293643Y-8114214D02*
X8265071Y-8099929D01*
X8250786Y-8085643D01*
X8236500Y-8057071D01*
X8236500Y-7971357D01*
X8250786Y-7942786D01*
X8265071Y-7928500D01*
X8293643Y-7914214D01*
X8336500Y-7914214D01*
X8365071Y-7928500D01*
X8379357Y-7942786D01*
X8393643Y-7971357D01*
X8393643Y-8057071D01*
X8379357Y-8085643D01*
X8365071Y-8099929D01*
X8336500Y-8114214D01*
X8293643Y-8114214D01*
X8565071Y-8114214D02*
X8536500Y-8099929D01*
X8522214Y-8071357D01*
X8522214Y-7814214D01*
X8793643Y-8099929D02*
X8765071Y-8114214D01*
X8707928Y-8114214D01*
X8679357Y-8099929D01*
X8665071Y-8071357D01*
X8665071Y-7957071D01*
X8679357Y-7928500D01*
X8707928Y-7914214D01*
X8765071Y-7914214D01*
X8793643Y-7928500D01*
X8807928Y-7957071D01*
X8807928Y-7985643D01*
X8665071Y-8014214D01*
X8922214Y-8099929D02*
X8950786Y-8114214D01*
X9007928Y-8114214D01*
X9036500Y-8099929D01*
X9050786Y-8071357D01*
X9050786Y-8057071D01*
X9036500Y-8028500D01*
X9007928Y-8014214D01*
X8965071Y-8014214D01*
X8936500Y-7999929D01*
X8922214Y-7971357D01*
X8922214Y-7957071D01*
X8936500Y-7928500D01*
X8965071Y-7914214D01*
X9007928Y-7914214D01*
X9036500Y-7928500D01*
X9150786Y-8228500D02*
X9165071Y-8214214D01*
X9193643Y-8171357D01*
X9207928Y-8142786D01*
X9222214Y-8099929D01*
X9236500Y-8028500D01*
X9236500Y-7971357D01*
X9222214Y-7899929D01*
X9207928Y-7857071D01*
X9193643Y-7828500D01*
X9165071Y-7785643D01*
X9150786Y-7771357D01*
M02*
