G04 #@! TF.GenerationSoftware,KiCad,Pcbnew,5.1.10-6.fc34*
G04 #@! TF.CreationDate,2021-10-24T11:18:16+02:00*
G04 #@! TF.ProjectId,Amp Module,416d7020-4d6f-4647-956c-652e6b696361,rev?*
G04 #@! TF.SameCoordinates,Original*
G04 #@! TF.FileFunction,Paste,Bot*
G04 #@! TF.FilePolarity,Positive*
%FSLAX46Y46*%
G04 Gerber Fmt 4.6, Leading zero omitted, Abs format (unit mm)*
G04 Created by KiCad (PCBNEW 5.1.10-6.fc34) date 2021-10-24 11:18:16*
%MOMM*%
%LPD*%
G01*
G04 APERTURE LIST*
%ADD10R,1.300000X1.700000*%
%ADD11R,1.700000X1.300000*%
%ADD12R,2.000000X3.800000*%
%ADD13R,2.000000X1.500000*%
%ADD14R,1.060000X0.650000*%
G04 APERTURE END LIST*
G36*
G01*
X74320380Y-31902820D02*
X75270380Y-31902820D01*
G75*
G02*
X75520380Y-32152820I0J-250000D01*
G01*
X75520380Y-32652820D01*
G75*
G02*
X75270380Y-32902820I-250000J0D01*
G01*
X74320380Y-32902820D01*
G75*
G02*
X74070380Y-32652820I0J250000D01*
G01*
X74070380Y-32152820D01*
G75*
G02*
X74320380Y-31902820I250000J0D01*
G01*
G37*
G36*
G01*
X74320380Y-30002820D02*
X75270380Y-30002820D01*
G75*
G02*
X75520380Y-30252820I0J-250000D01*
G01*
X75520380Y-30752820D01*
G75*
G02*
X75270380Y-31002820I-250000J0D01*
G01*
X74320380Y-31002820D01*
G75*
G02*
X74070380Y-30752820I0J250000D01*
G01*
X74070380Y-30252820D01*
G75*
G02*
X74320380Y-30002820I250000J0D01*
G01*
G37*
G36*
G01*
X60540560Y-42532280D02*
X60540560Y-43482280D01*
G75*
G02*
X60290560Y-43732280I-250000J0D01*
G01*
X59790560Y-43732280D01*
G75*
G02*
X59540560Y-43482280I0J250000D01*
G01*
X59540560Y-42532280D01*
G75*
G02*
X59790560Y-42282280I250000J0D01*
G01*
X60290560Y-42282280D01*
G75*
G02*
X60540560Y-42532280I0J-250000D01*
G01*
G37*
G36*
G01*
X58640560Y-42532280D02*
X58640560Y-43482280D01*
G75*
G02*
X58390560Y-43732280I-250000J0D01*
G01*
X57890560Y-43732280D01*
G75*
G02*
X57640560Y-43482280I0J250000D01*
G01*
X57640560Y-42532280D01*
G75*
G02*
X57890560Y-42282280I250000J0D01*
G01*
X58390560Y-42282280D01*
G75*
G02*
X58640560Y-42532280I0J-250000D01*
G01*
G37*
G36*
G01*
X66265380Y-33444320D02*
X66265380Y-33144320D01*
G75*
G02*
X66415380Y-32994320I150000J0D01*
G01*
X68065380Y-32994320D01*
G75*
G02*
X68215380Y-33144320I0J-150000D01*
G01*
X68215380Y-33444320D01*
G75*
G02*
X68065380Y-33594320I-150000J0D01*
G01*
X66415380Y-33594320D01*
G75*
G02*
X66265380Y-33444320I0J150000D01*
G01*
G37*
G36*
G01*
X66265380Y-32174320D02*
X66265380Y-31874320D01*
G75*
G02*
X66415380Y-31724320I150000J0D01*
G01*
X68065380Y-31724320D01*
G75*
G02*
X68215380Y-31874320I0J-150000D01*
G01*
X68215380Y-32174320D01*
G75*
G02*
X68065380Y-32324320I-150000J0D01*
G01*
X66415380Y-32324320D01*
G75*
G02*
X66265380Y-32174320I0J150000D01*
G01*
G37*
G36*
G01*
X66265380Y-30904320D02*
X66265380Y-30604320D01*
G75*
G02*
X66415380Y-30454320I150000J0D01*
G01*
X68065380Y-30454320D01*
G75*
G02*
X68215380Y-30604320I0J-150000D01*
G01*
X68215380Y-30904320D01*
G75*
G02*
X68065380Y-31054320I-150000J0D01*
G01*
X66415380Y-31054320D01*
G75*
G02*
X66265380Y-30904320I0J150000D01*
G01*
G37*
G36*
G01*
X66265380Y-29634320D02*
X66265380Y-29334320D01*
G75*
G02*
X66415380Y-29184320I150000J0D01*
G01*
X68065380Y-29184320D01*
G75*
G02*
X68215380Y-29334320I0J-150000D01*
G01*
X68215380Y-29634320D01*
G75*
G02*
X68065380Y-29784320I-150000J0D01*
G01*
X66415380Y-29784320D01*
G75*
G02*
X66265380Y-29634320I0J150000D01*
G01*
G37*
G36*
G01*
X71215380Y-29634320D02*
X71215380Y-29334320D01*
G75*
G02*
X71365380Y-29184320I150000J0D01*
G01*
X73015380Y-29184320D01*
G75*
G02*
X73165380Y-29334320I0J-150000D01*
G01*
X73165380Y-29634320D01*
G75*
G02*
X73015380Y-29784320I-150000J0D01*
G01*
X71365380Y-29784320D01*
G75*
G02*
X71215380Y-29634320I0J150000D01*
G01*
G37*
G36*
G01*
X71215380Y-30904320D02*
X71215380Y-30604320D01*
G75*
G02*
X71365380Y-30454320I150000J0D01*
G01*
X73015380Y-30454320D01*
G75*
G02*
X73165380Y-30604320I0J-150000D01*
G01*
X73165380Y-30904320D01*
G75*
G02*
X73015380Y-31054320I-150000J0D01*
G01*
X71365380Y-31054320D01*
G75*
G02*
X71215380Y-30904320I0J150000D01*
G01*
G37*
G36*
G01*
X71215380Y-32174320D02*
X71215380Y-31874320D01*
G75*
G02*
X71365380Y-31724320I150000J0D01*
G01*
X73015380Y-31724320D01*
G75*
G02*
X73165380Y-31874320I0J-150000D01*
G01*
X73165380Y-32174320D01*
G75*
G02*
X73015380Y-32324320I-150000J0D01*
G01*
X71365380Y-32324320D01*
G75*
G02*
X71215380Y-32174320I0J150000D01*
G01*
G37*
G36*
G01*
X71215380Y-33444320D02*
X71215380Y-33144320D01*
G75*
G02*
X71365380Y-32994320I150000J0D01*
G01*
X73015380Y-32994320D01*
G75*
G02*
X73165380Y-33144320I0J-150000D01*
G01*
X73165380Y-33444320D01*
G75*
G02*
X73015380Y-33594320I-150000J0D01*
G01*
X71365380Y-33594320D01*
G75*
G02*
X71215380Y-33444320I0J150000D01*
G01*
G37*
G36*
G01*
X132976960Y-39471620D02*
X132976960Y-38521620D01*
G75*
G02*
X133226960Y-38271620I250000J0D01*
G01*
X133726960Y-38271620D01*
G75*
G02*
X133976960Y-38521620I0J-250000D01*
G01*
X133976960Y-39471620D01*
G75*
G02*
X133726960Y-39721620I-250000J0D01*
G01*
X133226960Y-39721620D01*
G75*
G02*
X132976960Y-39471620I0J250000D01*
G01*
G37*
G36*
G01*
X134876960Y-39471620D02*
X134876960Y-38521620D01*
G75*
G02*
X135126960Y-38271620I250000J0D01*
G01*
X135626960Y-38271620D01*
G75*
G02*
X135876960Y-38521620I0J-250000D01*
G01*
X135876960Y-39471620D01*
G75*
G02*
X135626960Y-39721620I-250000J0D01*
G01*
X135126960Y-39721620D01*
G75*
G02*
X134876960Y-39471620I0J250000D01*
G01*
G37*
G36*
G01*
X84256459Y-27033160D02*
X85156461Y-27033160D01*
G75*
G02*
X85406460Y-27283159I0J-249999D01*
G01*
X85406460Y-27808161D01*
G75*
G02*
X85156461Y-28058160I-249999J0D01*
G01*
X84256459Y-28058160D01*
G75*
G02*
X84006460Y-27808161I0J249999D01*
G01*
X84006460Y-27283159D01*
G75*
G02*
X84256459Y-27033160I249999J0D01*
G01*
G37*
G36*
G01*
X84256459Y-28858160D02*
X85156461Y-28858160D01*
G75*
G02*
X85406460Y-29108159I0J-249999D01*
G01*
X85406460Y-29633161D01*
G75*
G02*
X85156461Y-29883160I-249999J0D01*
G01*
X84256459Y-29883160D01*
G75*
G02*
X84006460Y-29633161I0J249999D01*
G01*
X84006460Y-29108159D01*
G75*
G02*
X84256459Y-28858160I249999J0D01*
G01*
G37*
G36*
G01*
X109484580Y-19075420D02*
X109484580Y-18125420D01*
G75*
G02*
X109734580Y-17875420I250000J0D01*
G01*
X110234580Y-17875420D01*
G75*
G02*
X110484580Y-18125420I0J-250000D01*
G01*
X110484580Y-19075420D01*
G75*
G02*
X110234580Y-19325420I-250000J0D01*
G01*
X109734580Y-19325420D01*
G75*
G02*
X109484580Y-19075420I0J250000D01*
G01*
G37*
G36*
G01*
X107584580Y-19075420D02*
X107584580Y-18125420D01*
G75*
G02*
X107834580Y-17875420I250000J0D01*
G01*
X108334580Y-17875420D01*
G75*
G02*
X108584580Y-18125420I0J-250000D01*
G01*
X108584580Y-19075420D01*
G75*
G02*
X108334580Y-19325420I-250000J0D01*
G01*
X107834580Y-19325420D01*
G75*
G02*
X107584580Y-19075420I0J250000D01*
G01*
G37*
G36*
G01*
X25980440Y-47294379D02*
X25980440Y-48194381D01*
G75*
G02*
X25730441Y-48444380I-249999J0D01*
G01*
X25205439Y-48444380D01*
G75*
G02*
X24955440Y-48194381I0J249999D01*
G01*
X24955440Y-47294379D01*
G75*
G02*
X25205439Y-47044380I249999J0D01*
G01*
X25730441Y-47044380D01*
G75*
G02*
X25980440Y-47294379I0J-249999D01*
G01*
G37*
G36*
G01*
X27805440Y-47294379D02*
X27805440Y-48194381D01*
G75*
G02*
X27555441Y-48444380I-249999J0D01*
G01*
X27030439Y-48444380D01*
G75*
G02*
X26780440Y-48194381I0J249999D01*
G01*
X26780440Y-47294379D01*
G75*
G02*
X27030439Y-47044380I249999J0D01*
G01*
X27555441Y-47044380D01*
G75*
G02*
X27805440Y-47294379I0J-249999D01*
G01*
G37*
G36*
G01*
X21254740Y-42651260D02*
X20304740Y-42651260D01*
G75*
G02*
X20054740Y-42401260I0J250000D01*
G01*
X20054740Y-41901260D01*
G75*
G02*
X20304740Y-41651260I250000J0D01*
G01*
X21254740Y-41651260D01*
G75*
G02*
X21504740Y-41901260I0J-250000D01*
G01*
X21504740Y-42401260D01*
G75*
G02*
X21254740Y-42651260I-250000J0D01*
G01*
G37*
G36*
G01*
X21254740Y-44551260D02*
X20304740Y-44551260D01*
G75*
G02*
X20054740Y-44301260I0J250000D01*
G01*
X20054740Y-43801260D01*
G75*
G02*
X20304740Y-43551260I250000J0D01*
G01*
X21254740Y-43551260D01*
G75*
G02*
X21504740Y-43801260I0J-250000D01*
G01*
X21504740Y-44301260D01*
G75*
G02*
X21254740Y-44551260I-250000J0D01*
G01*
G37*
G36*
G01*
X202160000Y-37815000D02*
X202160000Y-38765000D01*
G75*
G02*
X201910000Y-39015000I-250000J0D01*
G01*
X201410000Y-39015000D01*
G75*
G02*
X201160000Y-38765000I0J250000D01*
G01*
X201160000Y-37815000D01*
G75*
G02*
X201410000Y-37565000I250000J0D01*
G01*
X201910000Y-37565000D01*
G75*
G02*
X202160000Y-37815000I0J-250000D01*
G01*
G37*
G36*
G01*
X204060000Y-37815000D02*
X204060000Y-38765000D01*
G75*
G02*
X203810000Y-39015000I-250000J0D01*
G01*
X203310000Y-39015000D01*
G75*
G02*
X203060000Y-38765000I0J250000D01*
G01*
X203060000Y-37815000D01*
G75*
G02*
X203310000Y-37565000I250000J0D01*
G01*
X203810000Y-37565000D01*
G75*
G02*
X204060000Y-37815000I0J-250000D01*
G01*
G37*
G36*
G01*
X26855840Y-38247340D02*
X26855840Y-37297340D01*
G75*
G02*
X27105840Y-37047340I250000J0D01*
G01*
X27605840Y-37047340D01*
G75*
G02*
X27855840Y-37297340I0J-250000D01*
G01*
X27855840Y-38247340D01*
G75*
G02*
X27605840Y-38497340I-250000J0D01*
G01*
X27105840Y-38497340D01*
G75*
G02*
X26855840Y-38247340I0J250000D01*
G01*
G37*
G36*
G01*
X24955840Y-38247340D02*
X24955840Y-37297340D01*
G75*
G02*
X25205840Y-37047340I250000J0D01*
G01*
X25705840Y-37047340D01*
G75*
G02*
X25955840Y-37297340I0J-250000D01*
G01*
X25955840Y-38247340D01*
G75*
G02*
X25705840Y-38497340I-250000J0D01*
G01*
X25205840Y-38497340D01*
G75*
G02*
X24955840Y-38247340I0J250000D01*
G01*
G37*
G36*
G01*
X188752060Y-24249360D02*
X188752060Y-25199360D01*
G75*
G02*
X188502060Y-25449360I-250000J0D01*
G01*
X188002060Y-25449360D01*
G75*
G02*
X187752060Y-25199360I0J250000D01*
G01*
X187752060Y-24249360D01*
G75*
G02*
X188002060Y-23999360I250000J0D01*
G01*
X188502060Y-23999360D01*
G75*
G02*
X188752060Y-24249360I0J-250000D01*
G01*
G37*
G36*
G01*
X190652060Y-24249360D02*
X190652060Y-25199360D01*
G75*
G02*
X190402060Y-25449360I-250000J0D01*
G01*
X189902060Y-25449360D01*
G75*
G02*
X189652060Y-25199360I0J250000D01*
G01*
X189652060Y-24249360D01*
G75*
G02*
X189902060Y-23999360I250000J0D01*
G01*
X190402060Y-23999360D01*
G75*
G02*
X190652060Y-24249360I0J-250000D01*
G01*
G37*
G36*
G01*
X27866000Y-44777640D02*
X27866000Y-45727640D01*
G75*
G02*
X27616000Y-45977640I-250000J0D01*
G01*
X27116000Y-45977640D01*
G75*
G02*
X26866000Y-45727640I0J250000D01*
G01*
X26866000Y-44777640D01*
G75*
G02*
X27116000Y-44527640I250000J0D01*
G01*
X27616000Y-44527640D01*
G75*
G02*
X27866000Y-44777640I0J-250000D01*
G01*
G37*
G36*
G01*
X25966000Y-44777640D02*
X25966000Y-45727640D01*
G75*
G02*
X25716000Y-45977640I-250000J0D01*
G01*
X25216000Y-45977640D01*
G75*
G02*
X24966000Y-45727640I0J250000D01*
G01*
X24966000Y-44777640D01*
G75*
G02*
X25216000Y-44527640I250000J0D01*
G01*
X25716000Y-44527640D01*
G75*
G02*
X25966000Y-44777640I0J-250000D01*
G01*
G37*
G36*
G01*
X198564520Y-21803020D02*
X197614520Y-21803020D01*
G75*
G02*
X197364520Y-21553020I0J250000D01*
G01*
X197364520Y-21053020D01*
G75*
G02*
X197614520Y-20803020I250000J0D01*
G01*
X198564520Y-20803020D01*
G75*
G02*
X198814520Y-21053020I0J-250000D01*
G01*
X198814520Y-21553020D01*
G75*
G02*
X198564520Y-21803020I-250000J0D01*
G01*
G37*
G36*
G01*
X198564520Y-19903020D02*
X197614520Y-19903020D01*
G75*
G02*
X197364520Y-19653020I0J250000D01*
G01*
X197364520Y-19153020D01*
G75*
G02*
X197614520Y-18903020I250000J0D01*
G01*
X198564520Y-18903020D01*
G75*
G02*
X198814520Y-19153020I0J-250000D01*
G01*
X198814520Y-19653020D01*
G75*
G02*
X198564520Y-19903020I-250000J0D01*
G01*
G37*
G36*
G01*
X70699540Y-21107020D02*
X71799540Y-21107020D01*
G75*
G02*
X72049540Y-21357020I0J-250000D01*
G01*
X72049540Y-23457020D01*
G75*
G02*
X71799540Y-23707020I-250000J0D01*
G01*
X70699540Y-23707020D01*
G75*
G02*
X70449540Y-23457020I0J250000D01*
G01*
X70449540Y-21357020D01*
G75*
G02*
X70699540Y-21107020I250000J0D01*
G01*
G37*
G36*
G01*
X70699540Y-17507020D02*
X71799540Y-17507020D01*
G75*
G02*
X72049540Y-17757020I0J-250000D01*
G01*
X72049540Y-19857020D01*
G75*
G02*
X71799540Y-20107020I-250000J0D01*
G01*
X70699540Y-20107020D01*
G75*
G02*
X70449540Y-19857020I0J250000D01*
G01*
X70449540Y-17757020D01*
G75*
G02*
X70699540Y-17507020I250000J0D01*
G01*
G37*
G36*
G01*
X80214400Y-25962520D02*
X80214400Y-27062520D01*
G75*
G02*
X79964400Y-27312520I-250000J0D01*
G01*
X77864400Y-27312520D01*
G75*
G02*
X77614400Y-27062520I0J250000D01*
G01*
X77614400Y-25962520D01*
G75*
G02*
X77864400Y-25712520I250000J0D01*
G01*
X79964400Y-25712520D01*
G75*
G02*
X80214400Y-25962520I0J-250000D01*
G01*
G37*
G36*
G01*
X76614400Y-25962520D02*
X76614400Y-27062520D01*
G75*
G02*
X76364400Y-27312520I-250000J0D01*
G01*
X74264400Y-27312520D01*
G75*
G02*
X74014400Y-27062520I0J250000D01*
G01*
X74014400Y-25962520D01*
G75*
G02*
X74264400Y-25712520I250000J0D01*
G01*
X76364400Y-25712520D01*
G75*
G02*
X76614400Y-25962520I0J-250000D01*
G01*
G37*
G36*
G01*
X102557600Y-52140700D02*
X101607600Y-52140700D01*
G75*
G02*
X101357600Y-51890700I0J250000D01*
G01*
X101357600Y-51390700D01*
G75*
G02*
X101607600Y-51140700I250000J0D01*
G01*
X102557600Y-51140700D01*
G75*
G02*
X102807600Y-51390700I0J-250000D01*
G01*
X102807600Y-51890700D01*
G75*
G02*
X102557600Y-52140700I-250000J0D01*
G01*
G37*
G36*
G01*
X102557600Y-54040700D02*
X101607600Y-54040700D01*
G75*
G02*
X101357600Y-53790700I0J250000D01*
G01*
X101357600Y-53290700D01*
G75*
G02*
X101607600Y-53040700I250000J0D01*
G01*
X102557600Y-53040700D01*
G75*
G02*
X102807600Y-53290700I0J-250000D01*
G01*
X102807600Y-53790700D01*
G75*
G02*
X102557600Y-54040700I-250000J0D01*
G01*
G37*
G36*
G01*
X102135600Y-31094660D02*
X102135600Y-32044660D01*
G75*
G02*
X101885600Y-32294660I-250000J0D01*
G01*
X101385600Y-32294660D01*
G75*
G02*
X101135600Y-32044660I0J250000D01*
G01*
X101135600Y-31094660D01*
G75*
G02*
X101385600Y-30844660I250000J0D01*
G01*
X101885600Y-30844660D01*
G75*
G02*
X102135600Y-31094660I0J-250000D01*
G01*
G37*
G36*
G01*
X100235600Y-31094660D02*
X100235600Y-32044660D01*
G75*
G02*
X99985600Y-32294660I-250000J0D01*
G01*
X99485600Y-32294660D01*
G75*
G02*
X99235600Y-32044660I0J250000D01*
G01*
X99235600Y-31094660D01*
G75*
G02*
X99485600Y-30844660I250000J0D01*
G01*
X99985600Y-30844660D01*
G75*
G02*
X100235600Y-31094660I0J-250000D01*
G01*
G37*
G36*
G01*
X99067960Y-49847520D02*
X99067960Y-48897520D01*
G75*
G02*
X99317960Y-48647520I250000J0D01*
G01*
X99817960Y-48647520D01*
G75*
G02*
X100067960Y-48897520I0J-250000D01*
G01*
X100067960Y-49847520D01*
G75*
G02*
X99817960Y-50097520I-250000J0D01*
G01*
X99317960Y-50097520D01*
G75*
G02*
X99067960Y-49847520I0J250000D01*
G01*
G37*
G36*
G01*
X100967960Y-49847520D02*
X100967960Y-48897520D01*
G75*
G02*
X101217960Y-48647520I250000J0D01*
G01*
X101717960Y-48647520D01*
G75*
G02*
X101967960Y-48897520I0J-250000D01*
G01*
X101967960Y-49847520D01*
G75*
G02*
X101717960Y-50097520I-250000J0D01*
G01*
X101217960Y-50097520D01*
G75*
G02*
X100967960Y-49847520I0J250000D01*
G01*
G37*
G36*
G01*
X123283960Y-18969140D02*
X124233960Y-18969140D01*
G75*
G02*
X124483960Y-19219140I0J-250000D01*
G01*
X124483960Y-19719140D01*
G75*
G02*
X124233960Y-19969140I-250000J0D01*
G01*
X123283960Y-19969140D01*
G75*
G02*
X123033960Y-19719140I0J250000D01*
G01*
X123033960Y-19219140D01*
G75*
G02*
X123283960Y-18969140I250000J0D01*
G01*
G37*
G36*
G01*
X123283960Y-17069140D02*
X124233960Y-17069140D01*
G75*
G02*
X124483960Y-17319140I0J-250000D01*
G01*
X124483960Y-17819140D01*
G75*
G02*
X124233960Y-18069140I-250000J0D01*
G01*
X123283960Y-18069140D01*
G75*
G02*
X123033960Y-17819140I0J250000D01*
G01*
X123033960Y-17319140D01*
G75*
G02*
X123283960Y-17069140I250000J0D01*
G01*
G37*
G36*
G01*
X96715600Y-21579500D02*
X95765600Y-21579500D01*
G75*
G02*
X95515600Y-21329500I0J250000D01*
G01*
X95515600Y-20829500D01*
G75*
G02*
X95765600Y-20579500I250000J0D01*
G01*
X96715600Y-20579500D01*
G75*
G02*
X96965600Y-20829500I0J-250000D01*
G01*
X96965600Y-21329500D01*
G75*
G02*
X96715600Y-21579500I-250000J0D01*
G01*
G37*
G36*
G01*
X96715600Y-19679500D02*
X95765600Y-19679500D01*
G75*
G02*
X95515600Y-19429500I0J250000D01*
G01*
X95515600Y-18929500D01*
G75*
G02*
X95765600Y-18679500I250000J0D01*
G01*
X96715600Y-18679500D01*
G75*
G02*
X96965600Y-18929500I0J-250000D01*
G01*
X96965600Y-19429500D01*
G75*
G02*
X96715600Y-19679500I-250000J0D01*
G01*
G37*
G36*
G01*
X52920560Y-29852600D02*
X52920560Y-30802600D01*
G75*
G02*
X52670560Y-31052600I-250000J0D01*
G01*
X52170560Y-31052600D01*
G75*
G02*
X51920560Y-30802600I0J250000D01*
G01*
X51920560Y-29852600D01*
G75*
G02*
X52170560Y-29602600I250000J0D01*
G01*
X52670560Y-29602600D01*
G75*
G02*
X52920560Y-29852600I0J-250000D01*
G01*
G37*
G36*
G01*
X51020560Y-29852600D02*
X51020560Y-30802600D01*
G75*
G02*
X50770560Y-31052600I-250000J0D01*
G01*
X50270560Y-31052600D01*
G75*
G02*
X50020560Y-30802600I0J250000D01*
G01*
X50020560Y-29852600D01*
G75*
G02*
X50270560Y-29602600I250000J0D01*
G01*
X50770560Y-29602600D01*
G75*
G02*
X51020560Y-29852600I0J-250000D01*
G01*
G37*
G36*
G01*
X57538160Y-29639240D02*
X57538160Y-30589240D01*
G75*
G02*
X57288160Y-30839240I-250000J0D01*
G01*
X56788160Y-30839240D01*
G75*
G02*
X56538160Y-30589240I0J250000D01*
G01*
X56538160Y-29639240D01*
G75*
G02*
X56788160Y-29389240I250000J0D01*
G01*
X57288160Y-29389240D01*
G75*
G02*
X57538160Y-29639240I0J-250000D01*
G01*
G37*
G36*
G01*
X59438160Y-29639240D02*
X59438160Y-30589240D01*
G75*
G02*
X59188160Y-30839240I-250000J0D01*
G01*
X58688160Y-30839240D01*
G75*
G02*
X58438160Y-30589240I0J250000D01*
G01*
X58438160Y-29639240D01*
G75*
G02*
X58688160Y-29389240I250000J0D01*
G01*
X59188160Y-29389240D01*
G75*
G02*
X59438160Y-29639240I0J-250000D01*
G01*
G37*
G36*
G01*
X75663640Y-34305220D02*
X75663640Y-35255220D01*
G75*
G02*
X75413640Y-35505220I-250000J0D01*
G01*
X74913640Y-35505220D01*
G75*
G02*
X74663640Y-35255220I0J250000D01*
G01*
X74663640Y-34305220D01*
G75*
G02*
X74913640Y-34055220I250000J0D01*
G01*
X75413640Y-34055220D01*
G75*
G02*
X75663640Y-34305220I0J-250000D01*
G01*
G37*
G36*
G01*
X77563640Y-34305220D02*
X77563640Y-35255220D01*
G75*
G02*
X77313640Y-35505220I-250000J0D01*
G01*
X76813640Y-35505220D01*
G75*
G02*
X76563640Y-35255220I0J250000D01*
G01*
X76563640Y-34305220D01*
G75*
G02*
X76813640Y-34055220I250000J0D01*
G01*
X77313640Y-34055220D01*
G75*
G02*
X77563640Y-34305220I0J-250000D01*
G01*
G37*
G36*
G01*
X134864260Y-27868900D02*
X134864260Y-26918900D01*
G75*
G02*
X135114260Y-26668900I250000J0D01*
G01*
X135614260Y-26668900D01*
G75*
G02*
X135864260Y-26918900I0J-250000D01*
G01*
X135864260Y-27868900D01*
G75*
G02*
X135614260Y-28118900I-250000J0D01*
G01*
X135114260Y-28118900D01*
G75*
G02*
X134864260Y-27868900I0J250000D01*
G01*
G37*
G36*
G01*
X132964260Y-27868900D02*
X132964260Y-26918900D01*
G75*
G02*
X133214260Y-26668900I250000J0D01*
G01*
X133714260Y-26668900D01*
G75*
G02*
X133964260Y-26918900I0J-250000D01*
G01*
X133964260Y-27868900D01*
G75*
G02*
X133714260Y-28118900I-250000J0D01*
G01*
X133214260Y-28118900D01*
G75*
G02*
X132964260Y-27868900I0J250000D01*
G01*
G37*
D10*
X98585080Y-55742840D03*
X102085080Y-55742840D03*
D11*
X139504420Y-48714600D03*
X139504420Y-45214600D03*
G36*
G01*
X17063660Y-37960721D02*
X17063660Y-37060719D01*
G75*
G02*
X17313659Y-36810720I249999J0D01*
G01*
X17838661Y-36810720D01*
G75*
G02*
X18088660Y-37060719I0J-249999D01*
G01*
X18088660Y-37960721D01*
G75*
G02*
X17838661Y-38210720I-249999J0D01*
G01*
X17313659Y-38210720D01*
G75*
G02*
X17063660Y-37960721I0J249999D01*
G01*
G37*
G36*
G01*
X18888660Y-37960721D02*
X18888660Y-37060719D01*
G75*
G02*
X19138659Y-36810720I249999J0D01*
G01*
X19663661Y-36810720D01*
G75*
G02*
X19913660Y-37060719I0J-249999D01*
G01*
X19913660Y-37960721D01*
G75*
G02*
X19663661Y-38210720I-249999J0D01*
G01*
X19138659Y-38210720D01*
G75*
G02*
X18888660Y-37960721I0J249999D01*
G01*
G37*
G36*
G01*
X189678260Y-17549281D02*
X189678260Y-16649279D01*
G75*
G02*
X189928259Y-16399280I249999J0D01*
G01*
X190453261Y-16399280D01*
G75*
G02*
X190703260Y-16649279I0J-249999D01*
G01*
X190703260Y-17549281D01*
G75*
G02*
X190453261Y-17799280I-249999J0D01*
G01*
X189928259Y-17799280D01*
G75*
G02*
X189678260Y-17549281I0J249999D01*
G01*
G37*
G36*
G01*
X187853260Y-17549281D02*
X187853260Y-16649279D01*
G75*
G02*
X188103259Y-16399280I249999J0D01*
G01*
X188628261Y-16399280D01*
G75*
G02*
X188878260Y-16649279I0J-249999D01*
G01*
X188878260Y-17549281D01*
G75*
G02*
X188628261Y-17799280I-249999J0D01*
G01*
X188103259Y-17799280D01*
G75*
G02*
X187853260Y-17549281I0J249999D01*
G01*
G37*
G36*
G01*
X16433379Y-41172080D02*
X17333381Y-41172080D01*
G75*
G02*
X17583380Y-41422079I0J-249999D01*
G01*
X17583380Y-41947081D01*
G75*
G02*
X17333381Y-42197080I-249999J0D01*
G01*
X16433379Y-42197080D01*
G75*
G02*
X16183380Y-41947081I0J249999D01*
G01*
X16183380Y-41422079D01*
G75*
G02*
X16433379Y-41172080I249999J0D01*
G01*
G37*
G36*
G01*
X16433379Y-39347080D02*
X17333381Y-39347080D01*
G75*
G02*
X17583380Y-39597079I0J-249999D01*
G01*
X17583380Y-40122081D01*
G75*
G02*
X17333381Y-40372080I-249999J0D01*
G01*
X16433379Y-40372080D01*
G75*
G02*
X16183380Y-40122081I0J249999D01*
G01*
X16183380Y-39597079D01*
G75*
G02*
X16433379Y-39347080I249999J0D01*
G01*
G37*
G36*
G01*
X197639519Y-22575460D02*
X198539521Y-22575460D01*
G75*
G02*
X198789520Y-22825459I0J-249999D01*
G01*
X198789520Y-23350461D01*
G75*
G02*
X198539521Y-23600460I-249999J0D01*
G01*
X197639519Y-23600460D01*
G75*
G02*
X197389520Y-23350461I0J249999D01*
G01*
X197389520Y-22825459D01*
G75*
G02*
X197639519Y-22575460I249999J0D01*
G01*
G37*
G36*
G01*
X197639519Y-24400460D02*
X198539521Y-24400460D01*
G75*
G02*
X198789520Y-24650459I0J-249999D01*
G01*
X198789520Y-25175461D01*
G75*
G02*
X198539521Y-25425460I-249999J0D01*
G01*
X197639519Y-25425460D01*
G75*
G02*
X197389520Y-25175461I0J249999D01*
G01*
X197389520Y-24650459D01*
G75*
G02*
X197639519Y-24400460I249999J0D01*
G01*
G37*
G36*
G01*
X19920000Y-39410219D02*
X19920000Y-40310221D01*
G75*
G02*
X19670001Y-40560220I-249999J0D01*
G01*
X19144999Y-40560220D01*
G75*
G02*
X18895000Y-40310221I0J249999D01*
G01*
X18895000Y-39410219D01*
G75*
G02*
X19144999Y-39160220I249999J0D01*
G01*
X19670001Y-39160220D01*
G75*
G02*
X19920000Y-39410219I0J-249999D01*
G01*
G37*
G36*
G01*
X21745000Y-39410219D02*
X21745000Y-40310221D01*
G75*
G02*
X21495001Y-40560220I-249999J0D01*
G01*
X20969999Y-40560220D01*
G75*
G02*
X20720000Y-40310221I0J249999D01*
G01*
X20720000Y-39410219D01*
G75*
G02*
X20969999Y-39160220I249999J0D01*
G01*
X21495001Y-39160220D01*
G75*
G02*
X21745000Y-39410219I0J-249999D01*
G01*
G37*
G36*
G01*
X190627421Y-21090940D02*
X189727419Y-21090940D01*
G75*
G02*
X189477420Y-20840941I0J249999D01*
G01*
X189477420Y-20315939D01*
G75*
G02*
X189727419Y-20065940I249999J0D01*
G01*
X190627421Y-20065940D01*
G75*
G02*
X190877420Y-20315939I0J-249999D01*
G01*
X190877420Y-20840941D01*
G75*
G02*
X190627421Y-21090940I-249999J0D01*
G01*
G37*
G36*
G01*
X190627421Y-22915940D02*
X189727419Y-22915940D01*
G75*
G02*
X189477420Y-22665941I0J249999D01*
G01*
X189477420Y-22140939D01*
G75*
G02*
X189727419Y-21890940I249999J0D01*
G01*
X190627421Y-21890940D01*
G75*
G02*
X190877420Y-22140939I0J-249999D01*
G01*
X190877420Y-22665941D01*
G75*
G02*
X190627421Y-22915940I-249999J0D01*
G01*
G37*
G36*
G01*
X188762580Y-43569041D02*
X188762580Y-42669039D01*
G75*
G02*
X189012579Y-42419040I249999J0D01*
G01*
X189537581Y-42419040D01*
G75*
G02*
X189787580Y-42669039I0J-249999D01*
G01*
X189787580Y-43569041D01*
G75*
G02*
X189537581Y-43819040I-249999J0D01*
G01*
X189012579Y-43819040D01*
G75*
G02*
X188762580Y-43569041I0J249999D01*
G01*
G37*
G36*
G01*
X190587580Y-43569041D02*
X190587580Y-42669039D01*
G75*
G02*
X190837579Y-42419040I249999J0D01*
G01*
X191362581Y-42419040D01*
G75*
G02*
X191612580Y-42669039I0J-249999D01*
G01*
X191612580Y-43569041D01*
G75*
G02*
X191362581Y-43819040I-249999J0D01*
G01*
X190837579Y-43819040D01*
G75*
G02*
X190587580Y-43569041I0J249999D01*
G01*
G37*
G36*
G01*
X41388239Y-42570340D02*
X42288241Y-42570340D01*
G75*
G02*
X42538240Y-42820339I0J-249999D01*
G01*
X42538240Y-43345341D01*
G75*
G02*
X42288241Y-43595340I-249999J0D01*
G01*
X41388239Y-43595340D01*
G75*
G02*
X41138240Y-43345341I0J249999D01*
G01*
X41138240Y-42820339D01*
G75*
G02*
X41388239Y-42570340I249999J0D01*
G01*
G37*
G36*
G01*
X41388239Y-44395340D02*
X42288241Y-44395340D01*
G75*
G02*
X42538240Y-44645339I0J-249999D01*
G01*
X42538240Y-45170341D01*
G75*
G02*
X42288241Y-45420340I-249999J0D01*
G01*
X41388239Y-45420340D01*
G75*
G02*
X41138240Y-45170341I0J249999D01*
G01*
X41138240Y-44645339D01*
G75*
G02*
X41388239Y-44395340I249999J0D01*
G01*
G37*
G36*
G01*
X38886339Y-42590020D02*
X39786341Y-42590020D01*
G75*
G02*
X40036340Y-42840019I0J-249999D01*
G01*
X40036340Y-43365021D01*
G75*
G02*
X39786341Y-43615020I-249999J0D01*
G01*
X38886339Y-43615020D01*
G75*
G02*
X38636340Y-43365021I0J249999D01*
G01*
X38636340Y-42840019D01*
G75*
G02*
X38886339Y-42590020I249999J0D01*
G01*
G37*
G36*
G01*
X38886339Y-44415020D02*
X39786341Y-44415020D01*
G75*
G02*
X40036340Y-44665019I0J-249999D01*
G01*
X40036340Y-45190021D01*
G75*
G02*
X39786341Y-45440020I-249999J0D01*
G01*
X38886339Y-45440020D01*
G75*
G02*
X38636340Y-45190021I0J249999D01*
G01*
X38636340Y-44665019D01*
G75*
G02*
X38886339Y-44415020I249999J0D01*
G01*
G37*
G36*
G01*
X36402219Y-44418200D02*
X37302221Y-44418200D01*
G75*
G02*
X37552220Y-44668199I0J-249999D01*
G01*
X37552220Y-45193201D01*
G75*
G02*
X37302221Y-45443200I-249999J0D01*
G01*
X36402219Y-45443200D01*
G75*
G02*
X36152220Y-45193201I0J249999D01*
G01*
X36152220Y-44668199D01*
G75*
G02*
X36402219Y-44418200I249999J0D01*
G01*
G37*
G36*
G01*
X36402219Y-42593200D02*
X37302221Y-42593200D01*
G75*
G02*
X37552220Y-42843199I0J-249999D01*
G01*
X37552220Y-43368201D01*
G75*
G02*
X37302221Y-43618200I-249999J0D01*
G01*
X36402219Y-43618200D01*
G75*
G02*
X36152220Y-43368201I0J249999D01*
G01*
X36152220Y-42843199D01*
G75*
G02*
X36402219Y-42593200I249999J0D01*
G01*
G37*
G36*
G01*
X33890159Y-44418200D02*
X34790161Y-44418200D01*
G75*
G02*
X35040160Y-44668199I0J-249999D01*
G01*
X35040160Y-45193201D01*
G75*
G02*
X34790161Y-45443200I-249999J0D01*
G01*
X33890159Y-45443200D01*
G75*
G02*
X33640160Y-45193201I0J249999D01*
G01*
X33640160Y-44668199D01*
G75*
G02*
X33890159Y-44418200I249999J0D01*
G01*
G37*
G36*
G01*
X33890159Y-42593200D02*
X34790161Y-42593200D01*
G75*
G02*
X35040160Y-42843199I0J-249999D01*
G01*
X35040160Y-43368201D01*
G75*
G02*
X34790161Y-43618200I-249999J0D01*
G01*
X33890159Y-43618200D01*
G75*
G02*
X33640160Y-43368201I0J249999D01*
G01*
X33640160Y-42843199D01*
G75*
G02*
X33890159Y-42593200I249999J0D01*
G01*
G37*
G36*
G01*
X34820001Y-34245000D02*
X33919999Y-34245000D01*
G75*
G02*
X33670000Y-33995001I0J249999D01*
G01*
X33670000Y-33469999D01*
G75*
G02*
X33919999Y-33220000I249999J0D01*
G01*
X34820001Y-33220000D01*
G75*
G02*
X35070000Y-33469999I0J-249999D01*
G01*
X35070000Y-33995001D01*
G75*
G02*
X34820001Y-34245000I-249999J0D01*
G01*
G37*
G36*
G01*
X34820001Y-32420000D02*
X33919999Y-32420000D01*
G75*
G02*
X33670000Y-32170001I0J249999D01*
G01*
X33670000Y-31644999D01*
G75*
G02*
X33919999Y-31395000I249999J0D01*
G01*
X34820001Y-31395000D01*
G75*
G02*
X35070000Y-31644999I0J-249999D01*
G01*
X35070000Y-32170001D01*
G75*
G02*
X34820001Y-32420000I-249999J0D01*
G01*
G37*
G36*
G01*
X37430000Y-33279999D02*
X37430000Y-34180001D01*
G75*
G02*
X37180001Y-34430000I-249999J0D01*
G01*
X36654999Y-34430000D01*
G75*
G02*
X36405000Y-34180001I0J249999D01*
G01*
X36405000Y-33279999D01*
G75*
G02*
X36654999Y-33030000I249999J0D01*
G01*
X37180001Y-33030000D01*
G75*
G02*
X37430000Y-33279999I0J-249999D01*
G01*
G37*
G36*
G01*
X39255000Y-33279999D02*
X39255000Y-34180001D01*
G75*
G02*
X39005001Y-34430000I-249999J0D01*
G01*
X38479999Y-34430000D01*
G75*
G02*
X38230000Y-34180001I0J249999D01*
G01*
X38230000Y-33279999D01*
G75*
G02*
X38479999Y-33030000I249999J0D01*
G01*
X39005001Y-33030000D01*
G75*
G02*
X39255000Y-33279999I0J-249999D01*
G01*
G37*
G36*
G01*
X201198699Y-44410740D02*
X202098701Y-44410740D01*
G75*
G02*
X202348700Y-44660739I0J-249999D01*
G01*
X202348700Y-45185741D01*
G75*
G02*
X202098701Y-45435740I-249999J0D01*
G01*
X201198699Y-45435740D01*
G75*
G02*
X200948700Y-45185741I0J249999D01*
G01*
X200948700Y-44660739D01*
G75*
G02*
X201198699Y-44410740I249999J0D01*
G01*
G37*
G36*
G01*
X201198699Y-42585740D02*
X202098701Y-42585740D01*
G75*
G02*
X202348700Y-42835739I0J-249999D01*
G01*
X202348700Y-43360741D01*
G75*
G02*
X202098701Y-43610740I-249999J0D01*
G01*
X201198699Y-43610740D01*
G75*
G02*
X200948700Y-43360741I0J249999D01*
G01*
X200948700Y-42835739D01*
G75*
G02*
X201198699Y-42585740I249999J0D01*
G01*
G37*
G36*
G01*
X198698699Y-42585740D02*
X199598701Y-42585740D01*
G75*
G02*
X199848700Y-42835739I0J-249999D01*
G01*
X199848700Y-43360741D01*
G75*
G02*
X199598701Y-43610740I-249999J0D01*
G01*
X198698699Y-43610740D01*
G75*
G02*
X198448700Y-43360741I0J249999D01*
G01*
X198448700Y-42835739D01*
G75*
G02*
X198698699Y-42585740I249999J0D01*
G01*
G37*
G36*
G01*
X198698699Y-44410740D02*
X199598701Y-44410740D01*
G75*
G02*
X199848700Y-44660739I0J-249999D01*
G01*
X199848700Y-45185741D01*
G75*
G02*
X199598701Y-45435740I-249999J0D01*
G01*
X198698699Y-45435740D01*
G75*
G02*
X198448700Y-45185741I0J249999D01*
G01*
X198448700Y-44660739D01*
G75*
G02*
X198698699Y-44410740I249999J0D01*
G01*
G37*
G36*
G01*
X196198699Y-44410740D02*
X197098701Y-44410740D01*
G75*
G02*
X197348700Y-44660739I0J-249999D01*
G01*
X197348700Y-45185741D01*
G75*
G02*
X197098701Y-45435740I-249999J0D01*
G01*
X196198699Y-45435740D01*
G75*
G02*
X195948700Y-45185741I0J249999D01*
G01*
X195948700Y-44660739D01*
G75*
G02*
X196198699Y-44410740I249999J0D01*
G01*
G37*
G36*
G01*
X196198699Y-42585740D02*
X197098701Y-42585740D01*
G75*
G02*
X197348700Y-42835739I0J-249999D01*
G01*
X197348700Y-43360741D01*
G75*
G02*
X197098701Y-43610740I-249999J0D01*
G01*
X196198699Y-43610740D01*
G75*
G02*
X195948700Y-43360741I0J249999D01*
G01*
X195948700Y-42835739D01*
G75*
G02*
X196198699Y-42585740I249999J0D01*
G01*
G37*
G36*
G01*
X193698699Y-42585740D02*
X194598701Y-42585740D01*
G75*
G02*
X194848700Y-42835739I0J-249999D01*
G01*
X194848700Y-43360741D01*
G75*
G02*
X194598701Y-43610740I-249999J0D01*
G01*
X193698699Y-43610740D01*
G75*
G02*
X193448700Y-43360741I0J249999D01*
G01*
X193448700Y-42835739D01*
G75*
G02*
X193698699Y-42585740I249999J0D01*
G01*
G37*
G36*
G01*
X193698699Y-44410740D02*
X194598701Y-44410740D01*
G75*
G02*
X194848700Y-44660739I0J-249999D01*
G01*
X194848700Y-45185741D01*
G75*
G02*
X194598701Y-45435740I-249999J0D01*
G01*
X193698699Y-45435740D01*
G75*
G02*
X193448700Y-45185741I0J249999D01*
G01*
X193448700Y-44660739D01*
G75*
G02*
X193698699Y-44410740I249999J0D01*
G01*
G37*
G36*
G01*
X194590001Y-32480000D02*
X193689999Y-32480000D01*
G75*
G02*
X193440000Y-32230001I0J249999D01*
G01*
X193440000Y-31704999D01*
G75*
G02*
X193689999Y-31455000I249999J0D01*
G01*
X194590001Y-31455000D01*
G75*
G02*
X194840000Y-31704999I0J-249999D01*
G01*
X194840000Y-32230001D01*
G75*
G02*
X194590001Y-32480000I-249999J0D01*
G01*
G37*
G36*
G01*
X194590001Y-34305000D02*
X193689999Y-34305000D01*
G75*
G02*
X193440000Y-34055001I0J249999D01*
G01*
X193440000Y-33529999D01*
G75*
G02*
X193689999Y-33280000I249999J0D01*
G01*
X194590001Y-33280000D01*
G75*
G02*
X194840000Y-33529999I0J-249999D01*
G01*
X194840000Y-34055001D01*
G75*
G02*
X194590001Y-34305000I-249999J0D01*
G01*
G37*
G36*
G01*
X199195000Y-32059999D02*
X199195000Y-32960001D01*
G75*
G02*
X198945001Y-33210000I-249999J0D01*
G01*
X198419999Y-33210000D01*
G75*
G02*
X198170000Y-32960001I0J249999D01*
G01*
X198170000Y-32059999D01*
G75*
G02*
X198419999Y-31810000I249999J0D01*
G01*
X198945001Y-31810000D01*
G75*
G02*
X199195000Y-32059999I0J-249999D01*
G01*
G37*
G36*
G01*
X197370000Y-32059999D02*
X197370000Y-32960001D01*
G75*
G02*
X197120001Y-33210000I-249999J0D01*
G01*
X196594999Y-33210000D01*
G75*
G02*
X196345000Y-32960001I0J249999D01*
G01*
X196345000Y-32059999D01*
G75*
G02*
X196594999Y-31810000I249999J0D01*
G01*
X197120001Y-31810000D01*
G75*
G02*
X197370000Y-32059999I0J-249999D01*
G01*
G37*
G36*
G01*
X79147620Y-56421441D02*
X79147620Y-55521439D01*
G75*
G02*
X79397619Y-55271440I249999J0D01*
G01*
X79922621Y-55271440D01*
G75*
G02*
X80172620Y-55521439I0J-249999D01*
G01*
X80172620Y-56421441D01*
G75*
G02*
X79922621Y-56671440I-249999J0D01*
G01*
X79397619Y-56671440D01*
G75*
G02*
X79147620Y-56421441I0J249999D01*
G01*
G37*
G36*
G01*
X77322620Y-56421441D02*
X77322620Y-55521439D01*
G75*
G02*
X77572619Y-55271440I249999J0D01*
G01*
X78097621Y-55271440D01*
G75*
G02*
X78347620Y-55521439I0J-249999D01*
G01*
X78347620Y-56421441D01*
G75*
G02*
X78097621Y-56671440I-249999J0D01*
G01*
X77572619Y-56671440D01*
G75*
G02*
X77322620Y-56421441I0J249999D01*
G01*
G37*
G36*
G01*
X137259000Y-60063801D02*
X137259000Y-59163799D01*
G75*
G02*
X137508999Y-58913800I249999J0D01*
G01*
X138034001Y-58913800D01*
G75*
G02*
X138284000Y-59163799I0J-249999D01*
G01*
X138284000Y-60063801D01*
G75*
G02*
X138034001Y-60313800I-249999J0D01*
G01*
X137508999Y-60313800D01*
G75*
G02*
X137259000Y-60063801I0J249999D01*
G01*
G37*
G36*
G01*
X139084000Y-60063801D02*
X139084000Y-59163799D01*
G75*
G02*
X139333999Y-58913800I249999J0D01*
G01*
X139859001Y-58913800D01*
G75*
G02*
X140109000Y-59163799I0J-249999D01*
G01*
X140109000Y-60063801D01*
G75*
G02*
X139859001Y-60313800I-249999J0D01*
G01*
X139333999Y-60313800D01*
G75*
G02*
X139084000Y-60063801I0J249999D01*
G01*
G37*
G36*
G01*
X114032080Y-26908339D02*
X114032080Y-27808341D01*
G75*
G02*
X113782081Y-28058340I-249999J0D01*
G01*
X113257079Y-28058340D01*
G75*
G02*
X113007080Y-27808341I0J249999D01*
G01*
X113007080Y-26908339D01*
G75*
G02*
X113257079Y-26658340I249999J0D01*
G01*
X113782081Y-26658340D01*
G75*
G02*
X114032080Y-26908339I0J-249999D01*
G01*
G37*
G36*
G01*
X115857080Y-26908339D02*
X115857080Y-27808341D01*
G75*
G02*
X115607081Y-28058340I-249999J0D01*
G01*
X115082079Y-28058340D01*
G75*
G02*
X114832080Y-27808341I0J249999D01*
G01*
X114832080Y-26908339D01*
G75*
G02*
X115082079Y-26658340I249999J0D01*
G01*
X115607081Y-26658340D01*
G75*
G02*
X115857080Y-26908339I0J-249999D01*
G01*
G37*
G36*
G01*
X137256460Y-57762561D02*
X137256460Y-56862559D01*
G75*
G02*
X137506459Y-56612560I249999J0D01*
G01*
X138031461Y-56612560D01*
G75*
G02*
X138281460Y-56862559I0J-249999D01*
G01*
X138281460Y-57762561D01*
G75*
G02*
X138031461Y-58012560I-249999J0D01*
G01*
X137506459Y-58012560D01*
G75*
G02*
X137256460Y-57762561I0J249999D01*
G01*
G37*
G36*
G01*
X139081460Y-57762561D02*
X139081460Y-56862559D01*
G75*
G02*
X139331459Y-56612560I249999J0D01*
G01*
X139856461Y-56612560D01*
G75*
G02*
X140106460Y-56862559I0J-249999D01*
G01*
X140106460Y-57762561D01*
G75*
G02*
X139856461Y-58012560I-249999J0D01*
G01*
X139331459Y-58012560D01*
G75*
G02*
X139081460Y-57762561I0J249999D01*
G01*
G37*
G36*
G01*
X107987679Y-24122320D02*
X108887681Y-24122320D01*
G75*
G02*
X109137680Y-24372319I0J-249999D01*
G01*
X109137680Y-24897321D01*
G75*
G02*
X108887681Y-25147320I-249999J0D01*
G01*
X107987679Y-25147320D01*
G75*
G02*
X107737680Y-24897321I0J249999D01*
G01*
X107737680Y-24372319D01*
G75*
G02*
X107987679Y-24122320I249999J0D01*
G01*
G37*
G36*
G01*
X107987679Y-25947320D02*
X108887681Y-25947320D01*
G75*
G02*
X109137680Y-26197319I0J-249999D01*
G01*
X109137680Y-26722321D01*
G75*
G02*
X108887681Y-26972320I-249999J0D01*
G01*
X107987679Y-26972320D01*
G75*
G02*
X107737680Y-26722321I0J249999D01*
G01*
X107737680Y-26197319D01*
G75*
G02*
X107987679Y-25947320I249999J0D01*
G01*
G37*
G36*
G01*
X142613801Y-47551400D02*
X141713799Y-47551400D01*
G75*
G02*
X141463800Y-47301401I0J249999D01*
G01*
X141463800Y-46776399D01*
G75*
G02*
X141713799Y-46526400I249999J0D01*
G01*
X142613801Y-46526400D01*
G75*
G02*
X142863800Y-46776399I0J-249999D01*
G01*
X142863800Y-47301401D01*
G75*
G02*
X142613801Y-47551400I-249999J0D01*
G01*
G37*
G36*
G01*
X142613801Y-45726400D02*
X141713799Y-45726400D01*
G75*
G02*
X141463800Y-45476401I0J249999D01*
G01*
X141463800Y-44951399D01*
G75*
G02*
X141713799Y-44701400I249999J0D01*
G01*
X142613801Y-44701400D01*
G75*
G02*
X142863800Y-44951399I0J-249999D01*
G01*
X142863800Y-45476401D01*
G75*
G02*
X142613801Y-45726400I-249999J0D01*
G01*
G37*
G36*
G01*
X93380500Y-40617561D02*
X93380500Y-39717559D01*
G75*
G02*
X93630499Y-39467560I249999J0D01*
G01*
X94155501Y-39467560D01*
G75*
G02*
X94405500Y-39717559I0J-249999D01*
G01*
X94405500Y-40617561D01*
G75*
G02*
X94155501Y-40867560I-249999J0D01*
G01*
X93630499Y-40867560D01*
G75*
G02*
X93380500Y-40617561I0J249999D01*
G01*
G37*
G36*
G01*
X95205500Y-40617561D02*
X95205500Y-39717559D01*
G75*
G02*
X95455499Y-39467560I249999J0D01*
G01*
X95980501Y-39467560D01*
G75*
G02*
X96230500Y-39717559I0J-249999D01*
G01*
X96230500Y-40617561D01*
G75*
G02*
X95980501Y-40867560I-249999J0D01*
G01*
X95455499Y-40867560D01*
G75*
G02*
X95205500Y-40617561I0J249999D01*
G01*
G37*
G36*
G01*
X143734840Y-39709939D02*
X143734840Y-40609941D01*
G75*
G02*
X143484841Y-40859940I-249999J0D01*
G01*
X142959839Y-40859940D01*
G75*
G02*
X142709840Y-40609941I0J249999D01*
G01*
X142709840Y-39709939D01*
G75*
G02*
X142959839Y-39459940I249999J0D01*
G01*
X143484841Y-39459940D01*
G75*
G02*
X143734840Y-39709939I0J-249999D01*
G01*
G37*
G36*
G01*
X145559840Y-39709939D02*
X145559840Y-40609941D01*
G75*
G02*
X145309841Y-40859940I-249999J0D01*
G01*
X144784839Y-40859940D01*
G75*
G02*
X144534840Y-40609941I0J249999D01*
G01*
X144534840Y-39709939D01*
G75*
G02*
X144784839Y-39459940I249999J0D01*
G01*
X145309841Y-39459940D01*
G75*
G02*
X145559840Y-39709939I0J-249999D01*
G01*
G37*
G36*
G01*
X115857080Y-29311179D02*
X115857080Y-30211181D01*
G75*
G02*
X115607081Y-30461180I-249999J0D01*
G01*
X115082079Y-30461180D01*
G75*
G02*
X114832080Y-30211181I0J249999D01*
G01*
X114832080Y-29311179D01*
G75*
G02*
X115082079Y-29061180I249999J0D01*
G01*
X115607081Y-29061180D01*
G75*
G02*
X115857080Y-29311179I0J-249999D01*
G01*
G37*
G36*
G01*
X114032080Y-29311179D02*
X114032080Y-30211181D01*
G75*
G02*
X113782081Y-30461180I-249999J0D01*
G01*
X113257079Y-30461180D01*
G75*
G02*
X113007080Y-30211181I0J249999D01*
G01*
X113007080Y-29311179D01*
G75*
G02*
X113257079Y-29061180I249999J0D01*
G01*
X113782081Y-29061180D01*
G75*
G02*
X114032080Y-29311179I0J-249999D01*
G01*
G37*
G36*
G01*
X47660139Y-30561220D02*
X48560141Y-30561220D01*
G75*
G02*
X48810140Y-30811219I0J-249999D01*
G01*
X48810140Y-31336221D01*
G75*
G02*
X48560141Y-31586220I-249999J0D01*
G01*
X47660139Y-31586220D01*
G75*
G02*
X47410140Y-31336221I0J249999D01*
G01*
X47410140Y-30811219D01*
G75*
G02*
X47660139Y-30561220I249999J0D01*
G01*
G37*
G36*
G01*
X47660139Y-32386220D02*
X48560141Y-32386220D01*
G75*
G02*
X48810140Y-32636219I0J-249999D01*
G01*
X48810140Y-33161221D01*
G75*
G02*
X48560141Y-33411220I-249999J0D01*
G01*
X47660139Y-33411220D01*
G75*
G02*
X47410140Y-33161221I0J249999D01*
G01*
X47410140Y-32636219D01*
G75*
G02*
X47660139Y-32386220I249999J0D01*
G01*
G37*
G36*
G01*
X51903580Y-28405241D02*
X51903580Y-27505239D01*
G75*
G02*
X52153579Y-27255240I249999J0D01*
G01*
X52678581Y-27255240D01*
G75*
G02*
X52928580Y-27505239I0J-249999D01*
G01*
X52928580Y-28405241D01*
G75*
G02*
X52678581Y-28655240I-249999J0D01*
G01*
X52153579Y-28655240D01*
G75*
G02*
X51903580Y-28405241I0J249999D01*
G01*
G37*
G36*
G01*
X50078580Y-28405241D02*
X50078580Y-27505239D01*
G75*
G02*
X50328579Y-27255240I249999J0D01*
G01*
X50853581Y-27255240D01*
G75*
G02*
X51103580Y-27505239I0J-249999D01*
G01*
X51103580Y-28405241D01*
G75*
G02*
X50853581Y-28655240I-249999J0D01*
G01*
X50328579Y-28655240D01*
G75*
G02*
X50078580Y-28405241I0J249999D01*
G01*
G37*
G36*
G01*
X64483401Y-32889240D02*
X63583399Y-32889240D01*
G75*
G02*
X63333400Y-32639241I0J249999D01*
G01*
X63333400Y-32114239D01*
G75*
G02*
X63583399Y-31864240I249999J0D01*
G01*
X64483401Y-31864240D01*
G75*
G02*
X64733400Y-32114239I0J-249999D01*
G01*
X64733400Y-32639241D01*
G75*
G02*
X64483401Y-32889240I-249999J0D01*
G01*
G37*
G36*
G01*
X64483401Y-34714240D02*
X63583399Y-34714240D01*
G75*
G02*
X63333400Y-34464241I0J249999D01*
G01*
X63333400Y-33939239D01*
G75*
G02*
X63583399Y-33689240I249999J0D01*
G01*
X64483401Y-33689240D01*
G75*
G02*
X64733400Y-33939239I0J-249999D01*
G01*
X64733400Y-34464241D01*
G75*
G02*
X64483401Y-34714240I-249999J0D01*
G01*
G37*
G36*
G01*
X68379280Y-28001381D02*
X68379280Y-27101379D01*
G75*
G02*
X68629279Y-26851380I249999J0D01*
G01*
X69154281Y-26851380D01*
G75*
G02*
X69404280Y-27101379I0J-249999D01*
G01*
X69404280Y-28001381D01*
G75*
G02*
X69154281Y-28251380I-249999J0D01*
G01*
X68629279Y-28251380D01*
G75*
G02*
X68379280Y-28001381I0J249999D01*
G01*
G37*
G36*
G01*
X70204280Y-28001381D02*
X70204280Y-27101379D01*
G75*
G02*
X70454279Y-26851380I249999J0D01*
G01*
X70979281Y-26851380D01*
G75*
G02*
X71229280Y-27101379I0J-249999D01*
G01*
X71229280Y-28001381D01*
G75*
G02*
X70979281Y-28251380I-249999J0D01*
G01*
X70454279Y-28251380D01*
G75*
G02*
X70204280Y-28001381I0J249999D01*
G01*
G37*
G36*
G01*
X77662619Y-31880760D02*
X78562621Y-31880760D01*
G75*
G02*
X78812620Y-32130759I0J-249999D01*
G01*
X78812620Y-32655761D01*
G75*
G02*
X78562621Y-32905760I-249999J0D01*
G01*
X77662619Y-32905760D01*
G75*
G02*
X77412620Y-32655761I0J249999D01*
G01*
X77412620Y-32130759D01*
G75*
G02*
X77662619Y-31880760I249999J0D01*
G01*
G37*
G36*
G01*
X77662619Y-30055760D02*
X78562621Y-30055760D01*
G75*
G02*
X78812620Y-30305759I0J-249999D01*
G01*
X78812620Y-30830761D01*
G75*
G02*
X78562621Y-31080760I-249999J0D01*
G01*
X77662619Y-31080760D01*
G75*
G02*
X77412620Y-30830761I0J249999D01*
G01*
X77412620Y-30305759D01*
G75*
G02*
X77662619Y-30055760I249999J0D01*
G01*
G37*
G36*
G01*
X82435279Y-41320660D02*
X83335281Y-41320660D01*
G75*
G02*
X83585280Y-41570659I0J-249999D01*
G01*
X83585280Y-42095661D01*
G75*
G02*
X83335281Y-42345660I-249999J0D01*
G01*
X82435279Y-42345660D01*
G75*
G02*
X82185280Y-42095661I0J249999D01*
G01*
X82185280Y-41570659D01*
G75*
G02*
X82435279Y-41320660I249999J0D01*
G01*
G37*
G36*
G01*
X82435279Y-43145660D02*
X83335281Y-43145660D01*
G75*
G02*
X83585280Y-43395659I0J-249999D01*
G01*
X83585280Y-43920661D01*
G75*
G02*
X83335281Y-44170660I-249999J0D01*
G01*
X82435279Y-44170660D01*
G75*
G02*
X82185280Y-43920661I0J249999D01*
G01*
X82185280Y-43395659D01*
G75*
G02*
X82435279Y-43145660I249999J0D01*
G01*
G37*
G36*
G01*
X76286300Y-43409021D02*
X76286300Y-42509019D01*
G75*
G02*
X76536299Y-42259020I249999J0D01*
G01*
X77061301Y-42259020D01*
G75*
G02*
X77311300Y-42509019I0J-249999D01*
G01*
X77311300Y-43409021D01*
G75*
G02*
X77061301Y-43659020I-249999J0D01*
G01*
X76536299Y-43659020D01*
G75*
G02*
X76286300Y-43409021I0J249999D01*
G01*
G37*
G36*
G01*
X78111300Y-43409021D02*
X78111300Y-42509019D01*
G75*
G02*
X78361299Y-42259020I249999J0D01*
G01*
X78886301Y-42259020D01*
G75*
G02*
X79136300Y-42509019I0J-249999D01*
G01*
X79136300Y-43409021D01*
G75*
G02*
X78886301Y-43659020I-249999J0D01*
G01*
X78361299Y-43659020D01*
G75*
G02*
X78111300Y-43409021I0J249999D01*
G01*
G37*
G36*
G01*
X84253919Y-34057540D02*
X85153921Y-34057540D01*
G75*
G02*
X85403920Y-34307539I0J-249999D01*
G01*
X85403920Y-34832541D01*
G75*
G02*
X85153921Y-35082540I-249999J0D01*
G01*
X84253919Y-35082540D01*
G75*
G02*
X84003920Y-34832541I0J249999D01*
G01*
X84003920Y-34307539D01*
G75*
G02*
X84253919Y-34057540I249999J0D01*
G01*
G37*
G36*
G01*
X84253919Y-32232540D02*
X85153921Y-32232540D01*
G75*
G02*
X85403920Y-32482539I0J-249999D01*
G01*
X85403920Y-33007541D01*
G75*
G02*
X85153921Y-33257540I-249999J0D01*
G01*
X84253919Y-33257540D01*
G75*
G02*
X84003920Y-33007541I0J249999D01*
G01*
X84003920Y-32482539D01*
G75*
G02*
X84253919Y-32232540I249999J0D01*
G01*
G37*
G36*
G01*
X84253919Y-37343020D02*
X85153921Y-37343020D01*
G75*
G02*
X85403920Y-37593019I0J-249999D01*
G01*
X85403920Y-38118021D01*
G75*
G02*
X85153921Y-38368020I-249999J0D01*
G01*
X84253919Y-38368020D01*
G75*
G02*
X84003920Y-38118021I0J249999D01*
G01*
X84003920Y-37593019D01*
G75*
G02*
X84253919Y-37343020I249999J0D01*
G01*
G37*
G36*
G01*
X84253919Y-39168020D02*
X85153921Y-39168020D01*
G75*
G02*
X85403920Y-39418019I0J-249999D01*
G01*
X85403920Y-39943021D01*
G75*
G02*
X85153921Y-40193020I-249999J0D01*
G01*
X84253919Y-40193020D01*
G75*
G02*
X84003920Y-39943021I0J249999D01*
G01*
X84003920Y-39418019D01*
G75*
G02*
X84253919Y-39168020I249999J0D01*
G01*
G37*
G36*
G01*
X84256459Y-23623220D02*
X85156461Y-23623220D01*
G75*
G02*
X85406460Y-23873219I0J-249999D01*
G01*
X85406460Y-24398221D01*
G75*
G02*
X85156461Y-24648220I-249999J0D01*
G01*
X84256459Y-24648220D01*
G75*
G02*
X84006460Y-24398221I0J249999D01*
G01*
X84006460Y-23873219D01*
G75*
G02*
X84256459Y-23623220I249999J0D01*
G01*
G37*
G36*
G01*
X84256459Y-21798220D02*
X85156461Y-21798220D01*
G75*
G02*
X85406460Y-22048219I0J-249999D01*
G01*
X85406460Y-22573221D01*
G75*
G02*
X85156461Y-22823220I-249999J0D01*
G01*
X84256459Y-22823220D01*
G75*
G02*
X84006460Y-22573221I0J249999D01*
G01*
X84006460Y-22048219D01*
G75*
G02*
X84256459Y-21798220I249999J0D01*
G01*
G37*
G36*
G01*
X134402880Y-18757479D02*
X134402880Y-19657481D01*
G75*
G02*
X134152881Y-19907480I-249999J0D01*
G01*
X133627879Y-19907480D01*
G75*
G02*
X133377880Y-19657481I0J249999D01*
G01*
X133377880Y-18757479D01*
G75*
G02*
X133627879Y-18507480I249999J0D01*
G01*
X134152881Y-18507480D01*
G75*
G02*
X134402880Y-18757479I0J-249999D01*
G01*
G37*
G36*
G01*
X136227880Y-18757479D02*
X136227880Y-19657481D01*
G75*
G02*
X135977881Y-19907480I-249999J0D01*
G01*
X135452879Y-19907480D01*
G75*
G02*
X135202880Y-19657481I0J249999D01*
G01*
X135202880Y-18757479D01*
G75*
G02*
X135452879Y-18507480I249999J0D01*
G01*
X135977881Y-18507480D01*
G75*
G02*
X136227880Y-18757479I0J-249999D01*
G01*
G37*
G36*
G01*
X137642179Y-18883580D02*
X138542181Y-18883580D01*
G75*
G02*
X138792180Y-19133579I0J-249999D01*
G01*
X138792180Y-19658581D01*
G75*
G02*
X138542181Y-19908580I-249999J0D01*
G01*
X137642179Y-19908580D01*
G75*
G02*
X137392180Y-19658581I0J249999D01*
G01*
X137392180Y-19133579D01*
G75*
G02*
X137642179Y-18883580I249999J0D01*
G01*
G37*
G36*
G01*
X137642179Y-17058580D02*
X138542181Y-17058580D01*
G75*
G02*
X138792180Y-17308579I0J-249999D01*
G01*
X138792180Y-17833581D01*
G75*
G02*
X138542181Y-18083580I-249999J0D01*
G01*
X137642179Y-18083580D01*
G75*
G02*
X137392180Y-17833581I0J249999D01*
G01*
X137392180Y-17308579D01*
G75*
G02*
X137642179Y-17058580I249999J0D01*
G01*
G37*
G36*
G01*
X139399859Y-24690020D02*
X140299861Y-24690020D01*
G75*
G02*
X140549860Y-24940019I0J-249999D01*
G01*
X140549860Y-25465021D01*
G75*
G02*
X140299861Y-25715020I-249999J0D01*
G01*
X139399859Y-25715020D01*
G75*
G02*
X139149860Y-25465021I0J249999D01*
G01*
X139149860Y-24940019D01*
G75*
G02*
X139399859Y-24690020I249999J0D01*
G01*
G37*
G36*
G01*
X139399859Y-22865020D02*
X140299861Y-22865020D01*
G75*
G02*
X140549860Y-23115019I0J-249999D01*
G01*
X140549860Y-23640021D01*
G75*
G02*
X140299861Y-23890020I-249999J0D01*
G01*
X139399859Y-23890020D01*
G75*
G02*
X139149860Y-23640021I0J249999D01*
G01*
X139149860Y-23115019D01*
G75*
G02*
X139399859Y-22865020I249999J0D01*
G01*
G37*
G36*
G01*
X134641540Y-31458321D02*
X134641540Y-30558319D01*
G75*
G02*
X134891539Y-30308320I249999J0D01*
G01*
X135416541Y-30308320D01*
G75*
G02*
X135666540Y-30558319I0J-249999D01*
G01*
X135666540Y-31458321D01*
G75*
G02*
X135416541Y-31708320I-249999J0D01*
G01*
X134891539Y-31708320D01*
G75*
G02*
X134641540Y-31458321I0J249999D01*
G01*
G37*
G36*
G01*
X132816540Y-31458321D02*
X132816540Y-30558319D01*
G75*
G02*
X133066539Y-30308320I249999J0D01*
G01*
X133591541Y-30308320D01*
G75*
G02*
X133841540Y-30558319I0J-249999D01*
G01*
X133841540Y-31458321D01*
G75*
G02*
X133591541Y-31708320I-249999J0D01*
G01*
X133066539Y-31708320D01*
G75*
G02*
X132816540Y-31458321I0J249999D01*
G01*
G37*
G36*
G01*
X140195721Y-31868160D02*
X139295719Y-31868160D01*
G75*
G02*
X139045720Y-31618161I0J249999D01*
G01*
X139045720Y-31093159D01*
G75*
G02*
X139295719Y-30843160I249999J0D01*
G01*
X140195721Y-30843160D01*
G75*
G02*
X140445720Y-31093159I0J-249999D01*
G01*
X140445720Y-31618161D01*
G75*
G02*
X140195721Y-31868160I-249999J0D01*
G01*
G37*
G36*
G01*
X140195721Y-33693160D02*
X139295719Y-33693160D01*
G75*
G02*
X139045720Y-33443161I0J249999D01*
G01*
X139045720Y-32918159D01*
G75*
G02*
X139295719Y-32668160I249999J0D01*
G01*
X140195721Y-32668160D01*
G75*
G02*
X140445720Y-32918159I0J-249999D01*
G01*
X140445720Y-33443161D01*
G75*
G02*
X140195721Y-33693160I-249999J0D01*
G01*
G37*
G36*
G01*
X143734840Y-24114339D02*
X143734840Y-25014341D01*
G75*
G02*
X143484841Y-25264340I-249999J0D01*
G01*
X142959839Y-25264340D01*
G75*
G02*
X142709840Y-25014341I0J249999D01*
G01*
X142709840Y-24114339D01*
G75*
G02*
X142959839Y-23864340I249999J0D01*
G01*
X143484841Y-23864340D01*
G75*
G02*
X143734840Y-24114339I0J-249999D01*
G01*
G37*
G36*
G01*
X145559840Y-24114339D02*
X145559840Y-25014341D01*
G75*
G02*
X145309841Y-25264340I-249999J0D01*
G01*
X144784839Y-25264340D01*
G75*
G02*
X144534840Y-25014341I0J249999D01*
G01*
X144534840Y-24114339D01*
G75*
G02*
X144784839Y-23864340I249999J0D01*
G01*
X145309841Y-23864340D01*
G75*
G02*
X145559840Y-24114339I0J-249999D01*
G01*
G37*
G36*
G01*
X145559840Y-29316259D02*
X145559840Y-30216261D01*
G75*
G02*
X145309841Y-30466260I-249999J0D01*
G01*
X144784839Y-30466260D01*
G75*
G02*
X144534840Y-30216261I0J249999D01*
G01*
X144534840Y-29316259D01*
G75*
G02*
X144784839Y-29066260I249999J0D01*
G01*
X145309841Y-29066260D01*
G75*
G02*
X145559840Y-29316259I0J-249999D01*
G01*
G37*
G36*
G01*
X143734840Y-29316259D02*
X143734840Y-30216261D01*
G75*
G02*
X143484841Y-30466260I-249999J0D01*
G01*
X142959839Y-30466260D01*
G75*
G02*
X142709840Y-30216261I0J249999D01*
G01*
X142709840Y-29316259D01*
G75*
G02*
X142959839Y-29066260I249999J0D01*
G01*
X143484841Y-29066260D01*
G75*
G02*
X143734840Y-29316259I0J-249999D01*
G01*
G37*
G36*
G01*
X143734840Y-34523259D02*
X143734840Y-35423261D01*
G75*
G02*
X143484841Y-35673260I-249999J0D01*
G01*
X142959839Y-35673260D01*
G75*
G02*
X142709840Y-35423261I0J249999D01*
G01*
X142709840Y-34523259D01*
G75*
G02*
X142959839Y-34273260I249999J0D01*
G01*
X143484841Y-34273260D01*
G75*
G02*
X143734840Y-34523259I0J-249999D01*
G01*
G37*
G36*
G01*
X145559840Y-34523259D02*
X145559840Y-35423261D01*
G75*
G02*
X145309841Y-35673260I-249999J0D01*
G01*
X144784839Y-35673260D01*
G75*
G02*
X144534840Y-35423261I0J249999D01*
G01*
X144534840Y-34523259D01*
G75*
G02*
X144784839Y-34273260I249999J0D01*
G01*
X145309841Y-34273260D01*
G75*
G02*
X145559840Y-34523259I0J-249999D01*
G01*
G37*
G36*
G01*
X145559840Y-18922579D02*
X145559840Y-19822581D01*
G75*
G02*
X145309841Y-20072580I-249999J0D01*
G01*
X144784839Y-20072580D01*
G75*
G02*
X144534840Y-19822581I0J249999D01*
G01*
X144534840Y-18922579D01*
G75*
G02*
X144784839Y-18672580I249999J0D01*
G01*
X145309841Y-18672580D01*
G75*
G02*
X145559840Y-18922579I0J-249999D01*
G01*
G37*
G36*
G01*
X143734840Y-18922579D02*
X143734840Y-19822581D01*
G75*
G02*
X143484841Y-20072580I-249999J0D01*
G01*
X142959839Y-20072580D01*
G75*
G02*
X142709840Y-19822581I0J249999D01*
G01*
X142709840Y-18922579D01*
G75*
G02*
X142959839Y-18672580I249999J0D01*
G01*
X143484841Y-18672580D01*
G75*
G02*
X143734840Y-18922579I0J-249999D01*
G01*
G37*
G36*
G01*
X27875360Y-43568760D02*
X27875360Y-43268760D01*
G75*
G02*
X28025360Y-43118760I150000J0D01*
G01*
X29675360Y-43118760D01*
G75*
G02*
X29825360Y-43268760I0J-150000D01*
G01*
X29825360Y-43568760D01*
G75*
G02*
X29675360Y-43718760I-150000J0D01*
G01*
X28025360Y-43718760D01*
G75*
G02*
X27875360Y-43568760I0J150000D01*
G01*
G37*
G36*
G01*
X27875360Y-42298760D02*
X27875360Y-41998760D01*
G75*
G02*
X28025360Y-41848760I150000J0D01*
G01*
X29675360Y-41848760D01*
G75*
G02*
X29825360Y-41998760I0J-150000D01*
G01*
X29825360Y-42298760D01*
G75*
G02*
X29675360Y-42448760I-150000J0D01*
G01*
X28025360Y-42448760D01*
G75*
G02*
X27875360Y-42298760I0J150000D01*
G01*
G37*
G36*
G01*
X27875360Y-41028760D02*
X27875360Y-40728760D01*
G75*
G02*
X28025360Y-40578760I150000J0D01*
G01*
X29675360Y-40578760D01*
G75*
G02*
X29825360Y-40728760I0J-150000D01*
G01*
X29825360Y-41028760D01*
G75*
G02*
X29675360Y-41178760I-150000J0D01*
G01*
X28025360Y-41178760D01*
G75*
G02*
X27875360Y-41028760I0J150000D01*
G01*
G37*
G36*
G01*
X27875360Y-39758760D02*
X27875360Y-39458760D01*
G75*
G02*
X28025360Y-39308760I150000J0D01*
G01*
X29675360Y-39308760D01*
G75*
G02*
X29825360Y-39458760I0J-150000D01*
G01*
X29825360Y-39758760D01*
G75*
G02*
X29675360Y-39908760I-150000J0D01*
G01*
X28025360Y-39908760D01*
G75*
G02*
X27875360Y-39758760I0J150000D01*
G01*
G37*
G36*
G01*
X22925360Y-39758760D02*
X22925360Y-39458760D01*
G75*
G02*
X23075360Y-39308760I150000J0D01*
G01*
X24725360Y-39308760D01*
G75*
G02*
X24875360Y-39458760I0J-150000D01*
G01*
X24875360Y-39758760D01*
G75*
G02*
X24725360Y-39908760I-150000J0D01*
G01*
X23075360Y-39908760D01*
G75*
G02*
X22925360Y-39758760I0J150000D01*
G01*
G37*
G36*
G01*
X22925360Y-41028760D02*
X22925360Y-40728760D01*
G75*
G02*
X23075360Y-40578760I150000J0D01*
G01*
X24725360Y-40578760D01*
G75*
G02*
X24875360Y-40728760I0J-150000D01*
G01*
X24875360Y-41028760D01*
G75*
G02*
X24725360Y-41178760I-150000J0D01*
G01*
X23075360Y-41178760D01*
G75*
G02*
X22925360Y-41028760I0J150000D01*
G01*
G37*
G36*
G01*
X22925360Y-42298760D02*
X22925360Y-41998760D01*
G75*
G02*
X23075360Y-41848760I150000J0D01*
G01*
X24725360Y-41848760D01*
G75*
G02*
X24875360Y-41998760I0J-150000D01*
G01*
X24875360Y-42298760D01*
G75*
G02*
X24725360Y-42448760I-150000J0D01*
G01*
X23075360Y-42448760D01*
G75*
G02*
X22925360Y-42298760I0J150000D01*
G01*
G37*
G36*
G01*
X22925360Y-43568760D02*
X22925360Y-43268760D01*
G75*
G02*
X23075360Y-43118760I150000J0D01*
G01*
X24725360Y-43118760D01*
G75*
G02*
X24875360Y-43268760I0J-150000D01*
G01*
X24875360Y-43568760D01*
G75*
G02*
X24725360Y-43718760I-150000J0D01*
G01*
X23075360Y-43718760D01*
G75*
G02*
X22925360Y-43568760I0J150000D01*
G01*
G37*
G36*
G01*
X196243080Y-20750400D02*
X195943080Y-20750400D01*
G75*
G02*
X195793080Y-20600400I0J150000D01*
G01*
X195793080Y-18950400D01*
G75*
G02*
X195943080Y-18800400I150000J0D01*
G01*
X196243080Y-18800400D01*
G75*
G02*
X196393080Y-18950400I0J-150000D01*
G01*
X196393080Y-20600400D01*
G75*
G02*
X196243080Y-20750400I-150000J0D01*
G01*
G37*
G36*
G01*
X194973080Y-20750400D02*
X194673080Y-20750400D01*
G75*
G02*
X194523080Y-20600400I0J150000D01*
G01*
X194523080Y-18950400D01*
G75*
G02*
X194673080Y-18800400I150000J0D01*
G01*
X194973080Y-18800400D01*
G75*
G02*
X195123080Y-18950400I0J-150000D01*
G01*
X195123080Y-20600400D01*
G75*
G02*
X194973080Y-20750400I-150000J0D01*
G01*
G37*
G36*
G01*
X193703080Y-20750400D02*
X193403080Y-20750400D01*
G75*
G02*
X193253080Y-20600400I0J150000D01*
G01*
X193253080Y-18950400D01*
G75*
G02*
X193403080Y-18800400I150000J0D01*
G01*
X193703080Y-18800400D01*
G75*
G02*
X193853080Y-18950400I0J-150000D01*
G01*
X193853080Y-20600400D01*
G75*
G02*
X193703080Y-20750400I-150000J0D01*
G01*
G37*
G36*
G01*
X192433080Y-20750400D02*
X192133080Y-20750400D01*
G75*
G02*
X191983080Y-20600400I0J150000D01*
G01*
X191983080Y-18950400D01*
G75*
G02*
X192133080Y-18800400I150000J0D01*
G01*
X192433080Y-18800400D01*
G75*
G02*
X192583080Y-18950400I0J-150000D01*
G01*
X192583080Y-20600400D01*
G75*
G02*
X192433080Y-20750400I-150000J0D01*
G01*
G37*
G36*
G01*
X192433080Y-25700400D02*
X192133080Y-25700400D01*
G75*
G02*
X191983080Y-25550400I0J150000D01*
G01*
X191983080Y-23900400D01*
G75*
G02*
X192133080Y-23750400I150000J0D01*
G01*
X192433080Y-23750400D01*
G75*
G02*
X192583080Y-23900400I0J-150000D01*
G01*
X192583080Y-25550400D01*
G75*
G02*
X192433080Y-25700400I-150000J0D01*
G01*
G37*
G36*
G01*
X193703080Y-25700400D02*
X193403080Y-25700400D01*
G75*
G02*
X193253080Y-25550400I0J150000D01*
G01*
X193253080Y-23900400D01*
G75*
G02*
X193403080Y-23750400I150000J0D01*
G01*
X193703080Y-23750400D01*
G75*
G02*
X193853080Y-23900400I0J-150000D01*
G01*
X193853080Y-25550400D01*
G75*
G02*
X193703080Y-25700400I-150000J0D01*
G01*
G37*
G36*
G01*
X194973080Y-25700400D02*
X194673080Y-25700400D01*
G75*
G02*
X194523080Y-25550400I0J150000D01*
G01*
X194523080Y-23900400D01*
G75*
G02*
X194673080Y-23750400I150000J0D01*
G01*
X194973080Y-23750400D01*
G75*
G02*
X195123080Y-23900400I0J-150000D01*
G01*
X195123080Y-25550400D01*
G75*
G02*
X194973080Y-25700400I-150000J0D01*
G01*
G37*
G36*
G01*
X196243080Y-25700400D02*
X195943080Y-25700400D01*
G75*
G02*
X195793080Y-25550400I0J150000D01*
G01*
X195793080Y-23900400D01*
G75*
G02*
X195943080Y-23750400I150000J0D01*
G01*
X196243080Y-23750400D01*
G75*
G02*
X196393080Y-23900400I0J-150000D01*
G01*
X196393080Y-25550400D01*
G75*
G02*
X196243080Y-25700400I-150000J0D01*
G01*
G37*
D12*
X81620760Y-20096480D03*
D13*
X75320760Y-20096480D03*
X75320760Y-17796480D03*
X75320760Y-22396480D03*
G36*
G01*
X102076380Y-47333040D02*
X102076380Y-47033040D01*
G75*
G02*
X102226380Y-46883040I150000J0D01*
G01*
X103876380Y-46883040D01*
G75*
G02*
X104026380Y-47033040I0J-150000D01*
G01*
X104026380Y-47333040D01*
G75*
G02*
X103876380Y-47483040I-150000J0D01*
G01*
X102226380Y-47483040D01*
G75*
G02*
X102076380Y-47333040I0J150000D01*
G01*
G37*
G36*
G01*
X102076380Y-46063040D02*
X102076380Y-45763040D01*
G75*
G02*
X102226380Y-45613040I150000J0D01*
G01*
X103876380Y-45613040D01*
G75*
G02*
X104026380Y-45763040I0J-150000D01*
G01*
X104026380Y-46063040D01*
G75*
G02*
X103876380Y-46213040I-150000J0D01*
G01*
X102226380Y-46213040D01*
G75*
G02*
X102076380Y-46063040I0J150000D01*
G01*
G37*
G36*
G01*
X102076380Y-44793040D02*
X102076380Y-44493040D01*
G75*
G02*
X102226380Y-44343040I150000J0D01*
G01*
X103876380Y-44343040D01*
G75*
G02*
X104026380Y-44493040I0J-150000D01*
G01*
X104026380Y-44793040D01*
G75*
G02*
X103876380Y-44943040I-150000J0D01*
G01*
X102226380Y-44943040D01*
G75*
G02*
X102076380Y-44793040I0J150000D01*
G01*
G37*
G36*
G01*
X102076380Y-43523040D02*
X102076380Y-43223040D01*
G75*
G02*
X102226380Y-43073040I150000J0D01*
G01*
X103876380Y-43073040D01*
G75*
G02*
X104026380Y-43223040I0J-150000D01*
G01*
X104026380Y-43523040D01*
G75*
G02*
X103876380Y-43673040I-150000J0D01*
G01*
X102226380Y-43673040D01*
G75*
G02*
X102076380Y-43523040I0J150000D01*
G01*
G37*
G36*
G01*
X97126380Y-43523040D02*
X97126380Y-43223040D01*
G75*
G02*
X97276380Y-43073040I150000J0D01*
G01*
X98926380Y-43073040D01*
G75*
G02*
X99076380Y-43223040I0J-150000D01*
G01*
X99076380Y-43523040D01*
G75*
G02*
X98926380Y-43673040I-150000J0D01*
G01*
X97276380Y-43673040D01*
G75*
G02*
X97126380Y-43523040I0J150000D01*
G01*
G37*
G36*
G01*
X97126380Y-44793040D02*
X97126380Y-44493040D01*
G75*
G02*
X97276380Y-44343040I150000J0D01*
G01*
X98926380Y-44343040D01*
G75*
G02*
X99076380Y-44493040I0J-150000D01*
G01*
X99076380Y-44793040D01*
G75*
G02*
X98926380Y-44943040I-150000J0D01*
G01*
X97276380Y-44943040D01*
G75*
G02*
X97126380Y-44793040I0J150000D01*
G01*
G37*
G36*
G01*
X97126380Y-46063040D02*
X97126380Y-45763040D01*
G75*
G02*
X97276380Y-45613040I150000J0D01*
G01*
X98926380Y-45613040D01*
G75*
G02*
X99076380Y-45763040I0J-150000D01*
G01*
X99076380Y-46063040D01*
G75*
G02*
X98926380Y-46213040I-150000J0D01*
G01*
X97276380Y-46213040D01*
G75*
G02*
X97126380Y-46063040I0J150000D01*
G01*
G37*
G36*
G01*
X97126380Y-47333040D02*
X97126380Y-47033040D01*
G75*
G02*
X97276380Y-46883040I150000J0D01*
G01*
X98926380Y-46883040D01*
G75*
G02*
X99076380Y-47033040I0J-150000D01*
G01*
X99076380Y-47333040D01*
G75*
G02*
X98926380Y-47483040I-150000J0D01*
G01*
X97276380Y-47483040D01*
G75*
G02*
X97126380Y-47333040I0J150000D01*
G01*
G37*
D14*
X108452740Y-22570480D03*
X108452740Y-21620480D03*
X108452740Y-20670480D03*
X110652740Y-20670480D03*
X110652740Y-22570480D03*
X110652740Y-21620480D03*
G36*
G01*
X114469360Y-23655240D02*
X114469360Y-23455240D01*
G75*
G02*
X114569360Y-23355240I100000J0D01*
G01*
X115844360Y-23355240D01*
G75*
G02*
X115944360Y-23455240I0J-100000D01*
G01*
X115944360Y-23655240D01*
G75*
G02*
X115844360Y-23755240I-100000J0D01*
G01*
X114569360Y-23755240D01*
G75*
G02*
X114469360Y-23655240I0J100000D01*
G01*
G37*
G36*
G01*
X114469360Y-23005240D02*
X114469360Y-22805240D01*
G75*
G02*
X114569360Y-22705240I100000J0D01*
G01*
X115844360Y-22705240D01*
G75*
G02*
X115944360Y-22805240I0J-100000D01*
G01*
X115944360Y-23005240D01*
G75*
G02*
X115844360Y-23105240I-100000J0D01*
G01*
X114569360Y-23105240D01*
G75*
G02*
X114469360Y-23005240I0J100000D01*
G01*
G37*
G36*
G01*
X114469360Y-22355240D02*
X114469360Y-22155240D01*
G75*
G02*
X114569360Y-22055240I100000J0D01*
G01*
X115844360Y-22055240D01*
G75*
G02*
X115944360Y-22155240I0J-100000D01*
G01*
X115944360Y-22355240D01*
G75*
G02*
X115844360Y-22455240I-100000J0D01*
G01*
X114569360Y-22455240D01*
G75*
G02*
X114469360Y-22355240I0J100000D01*
G01*
G37*
G36*
G01*
X114469360Y-21705240D02*
X114469360Y-21505240D01*
G75*
G02*
X114569360Y-21405240I100000J0D01*
G01*
X115844360Y-21405240D01*
G75*
G02*
X115944360Y-21505240I0J-100000D01*
G01*
X115944360Y-21705240D01*
G75*
G02*
X115844360Y-21805240I-100000J0D01*
G01*
X114569360Y-21805240D01*
G75*
G02*
X114469360Y-21705240I0J100000D01*
G01*
G37*
G36*
G01*
X114469360Y-21055240D02*
X114469360Y-20855240D01*
G75*
G02*
X114569360Y-20755240I100000J0D01*
G01*
X115844360Y-20755240D01*
G75*
G02*
X115944360Y-20855240I0J-100000D01*
G01*
X115944360Y-21055240D01*
G75*
G02*
X115844360Y-21155240I-100000J0D01*
G01*
X114569360Y-21155240D01*
G75*
G02*
X114469360Y-21055240I0J100000D01*
G01*
G37*
G36*
G01*
X114469360Y-20405240D02*
X114469360Y-20205240D01*
G75*
G02*
X114569360Y-20105240I100000J0D01*
G01*
X115844360Y-20105240D01*
G75*
G02*
X115944360Y-20205240I0J-100000D01*
G01*
X115944360Y-20405240D01*
G75*
G02*
X115844360Y-20505240I-100000J0D01*
G01*
X114569360Y-20505240D01*
G75*
G02*
X114469360Y-20405240I0J100000D01*
G01*
G37*
G36*
G01*
X114469360Y-19755240D02*
X114469360Y-19555240D01*
G75*
G02*
X114569360Y-19455240I100000J0D01*
G01*
X115844360Y-19455240D01*
G75*
G02*
X115944360Y-19555240I0J-100000D01*
G01*
X115944360Y-19755240D01*
G75*
G02*
X115844360Y-19855240I-100000J0D01*
G01*
X114569360Y-19855240D01*
G75*
G02*
X114469360Y-19755240I0J100000D01*
G01*
G37*
G36*
G01*
X120194360Y-19755240D02*
X120194360Y-19555240D01*
G75*
G02*
X120294360Y-19455240I100000J0D01*
G01*
X121569360Y-19455240D01*
G75*
G02*
X121669360Y-19555240I0J-100000D01*
G01*
X121669360Y-19755240D01*
G75*
G02*
X121569360Y-19855240I-100000J0D01*
G01*
X120294360Y-19855240D01*
G75*
G02*
X120194360Y-19755240I0J100000D01*
G01*
G37*
G36*
G01*
X120194360Y-20405240D02*
X120194360Y-20205240D01*
G75*
G02*
X120294360Y-20105240I100000J0D01*
G01*
X121569360Y-20105240D01*
G75*
G02*
X121669360Y-20205240I0J-100000D01*
G01*
X121669360Y-20405240D01*
G75*
G02*
X121569360Y-20505240I-100000J0D01*
G01*
X120294360Y-20505240D01*
G75*
G02*
X120194360Y-20405240I0J100000D01*
G01*
G37*
G36*
G01*
X120194360Y-21055240D02*
X120194360Y-20855240D01*
G75*
G02*
X120294360Y-20755240I100000J0D01*
G01*
X121569360Y-20755240D01*
G75*
G02*
X121669360Y-20855240I0J-100000D01*
G01*
X121669360Y-21055240D01*
G75*
G02*
X121569360Y-21155240I-100000J0D01*
G01*
X120294360Y-21155240D01*
G75*
G02*
X120194360Y-21055240I0J100000D01*
G01*
G37*
G36*
G01*
X120194360Y-21705240D02*
X120194360Y-21505240D01*
G75*
G02*
X120294360Y-21405240I100000J0D01*
G01*
X121569360Y-21405240D01*
G75*
G02*
X121669360Y-21505240I0J-100000D01*
G01*
X121669360Y-21705240D01*
G75*
G02*
X121569360Y-21805240I-100000J0D01*
G01*
X120294360Y-21805240D01*
G75*
G02*
X120194360Y-21705240I0J100000D01*
G01*
G37*
G36*
G01*
X120194360Y-22355240D02*
X120194360Y-22155240D01*
G75*
G02*
X120294360Y-22055240I100000J0D01*
G01*
X121569360Y-22055240D01*
G75*
G02*
X121669360Y-22155240I0J-100000D01*
G01*
X121669360Y-22355240D01*
G75*
G02*
X121569360Y-22455240I-100000J0D01*
G01*
X120294360Y-22455240D01*
G75*
G02*
X120194360Y-22355240I0J100000D01*
G01*
G37*
G36*
G01*
X120194360Y-23005240D02*
X120194360Y-22805240D01*
G75*
G02*
X120294360Y-22705240I100000J0D01*
G01*
X121569360Y-22705240D01*
G75*
G02*
X121669360Y-22805240I0J-100000D01*
G01*
X121669360Y-23005240D01*
G75*
G02*
X121569360Y-23105240I-100000J0D01*
G01*
X120294360Y-23105240D01*
G75*
G02*
X120194360Y-23005240I0J100000D01*
G01*
G37*
G36*
G01*
X120194360Y-23655240D02*
X120194360Y-23455240D01*
G75*
G02*
X120294360Y-23355240I100000J0D01*
G01*
X121569360Y-23355240D01*
G75*
G02*
X121669360Y-23455240I0J-100000D01*
G01*
X121669360Y-23655240D01*
G75*
G02*
X121569360Y-23755240I-100000J0D01*
G01*
X120294360Y-23755240D01*
G75*
G02*
X120194360Y-23655240I0J100000D01*
G01*
G37*
G36*
G01*
X99660580Y-18971120D02*
X99660580Y-19271120D01*
G75*
G02*
X99510580Y-19421120I-150000J0D01*
G01*
X97860580Y-19421120D01*
G75*
G02*
X97710580Y-19271120I0J150000D01*
G01*
X97710580Y-18971120D01*
G75*
G02*
X97860580Y-18821120I150000J0D01*
G01*
X99510580Y-18821120D01*
G75*
G02*
X99660580Y-18971120I0J-150000D01*
G01*
G37*
G36*
G01*
X99660580Y-20241120D02*
X99660580Y-20541120D01*
G75*
G02*
X99510580Y-20691120I-150000J0D01*
G01*
X97860580Y-20691120D01*
G75*
G02*
X97710580Y-20541120I0J150000D01*
G01*
X97710580Y-20241120D01*
G75*
G02*
X97860580Y-20091120I150000J0D01*
G01*
X99510580Y-20091120D01*
G75*
G02*
X99660580Y-20241120I0J-150000D01*
G01*
G37*
G36*
G01*
X99660580Y-21511120D02*
X99660580Y-21811120D01*
G75*
G02*
X99510580Y-21961120I-150000J0D01*
G01*
X97860580Y-21961120D01*
G75*
G02*
X97710580Y-21811120I0J150000D01*
G01*
X97710580Y-21511120D01*
G75*
G02*
X97860580Y-21361120I150000J0D01*
G01*
X99510580Y-21361120D01*
G75*
G02*
X99660580Y-21511120I0J-150000D01*
G01*
G37*
G36*
G01*
X99660580Y-22781120D02*
X99660580Y-23081120D01*
G75*
G02*
X99510580Y-23231120I-150000J0D01*
G01*
X97860580Y-23231120D01*
G75*
G02*
X97710580Y-23081120I0J150000D01*
G01*
X97710580Y-22781120D01*
G75*
G02*
X97860580Y-22631120I150000J0D01*
G01*
X99510580Y-22631120D01*
G75*
G02*
X99660580Y-22781120I0J-150000D01*
G01*
G37*
G36*
G01*
X99660580Y-24051120D02*
X99660580Y-24351120D01*
G75*
G02*
X99510580Y-24501120I-150000J0D01*
G01*
X97860580Y-24501120D01*
G75*
G02*
X97710580Y-24351120I0J150000D01*
G01*
X97710580Y-24051120D01*
G75*
G02*
X97860580Y-23901120I150000J0D01*
G01*
X99510580Y-23901120D01*
G75*
G02*
X99660580Y-24051120I0J-150000D01*
G01*
G37*
G36*
G01*
X99660580Y-25321120D02*
X99660580Y-25621120D01*
G75*
G02*
X99510580Y-25771120I-150000J0D01*
G01*
X97860580Y-25771120D01*
G75*
G02*
X97710580Y-25621120I0J150000D01*
G01*
X97710580Y-25321120D01*
G75*
G02*
X97860580Y-25171120I150000J0D01*
G01*
X99510580Y-25171120D01*
G75*
G02*
X99660580Y-25321120I0J-150000D01*
G01*
G37*
G36*
G01*
X99660580Y-26591120D02*
X99660580Y-26891120D01*
G75*
G02*
X99510580Y-27041120I-150000J0D01*
G01*
X97860580Y-27041120D01*
G75*
G02*
X97710580Y-26891120I0J150000D01*
G01*
X97710580Y-26591120D01*
G75*
G02*
X97860580Y-26441120I150000J0D01*
G01*
X99510580Y-26441120D01*
G75*
G02*
X99660580Y-26591120I0J-150000D01*
G01*
G37*
G36*
G01*
X104610580Y-26591120D02*
X104610580Y-26891120D01*
G75*
G02*
X104460580Y-27041120I-150000J0D01*
G01*
X102810580Y-27041120D01*
G75*
G02*
X102660580Y-26891120I0J150000D01*
G01*
X102660580Y-26591120D01*
G75*
G02*
X102810580Y-26441120I150000J0D01*
G01*
X104460580Y-26441120D01*
G75*
G02*
X104610580Y-26591120I0J-150000D01*
G01*
G37*
G36*
G01*
X104610580Y-25321120D02*
X104610580Y-25621120D01*
G75*
G02*
X104460580Y-25771120I-150000J0D01*
G01*
X102810580Y-25771120D01*
G75*
G02*
X102660580Y-25621120I0J150000D01*
G01*
X102660580Y-25321120D01*
G75*
G02*
X102810580Y-25171120I150000J0D01*
G01*
X104460580Y-25171120D01*
G75*
G02*
X104610580Y-25321120I0J-150000D01*
G01*
G37*
G36*
G01*
X104610580Y-24051120D02*
X104610580Y-24351120D01*
G75*
G02*
X104460580Y-24501120I-150000J0D01*
G01*
X102810580Y-24501120D01*
G75*
G02*
X102660580Y-24351120I0J150000D01*
G01*
X102660580Y-24051120D01*
G75*
G02*
X102810580Y-23901120I150000J0D01*
G01*
X104460580Y-23901120D01*
G75*
G02*
X104610580Y-24051120I0J-150000D01*
G01*
G37*
G36*
G01*
X104610580Y-22781120D02*
X104610580Y-23081120D01*
G75*
G02*
X104460580Y-23231120I-150000J0D01*
G01*
X102810580Y-23231120D01*
G75*
G02*
X102660580Y-23081120I0J150000D01*
G01*
X102660580Y-22781120D01*
G75*
G02*
X102810580Y-22631120I150000J0D01*
G01*
X104460580Y-22631120D01*
G75*
G02*
X104610580Y-22781120I0J-150000D01*
G01*
G37*
G36*
G01*
X104610580Y-21511120D02*
X104610580Y-21811120D01*
G75*
G02*
X104460580Y-21961120I-150000J0D01*
G01*
X102810580Y-21961120D01*
G75*
G02*
X102660580Y-21811120I0J150000D01*
G01*
X102660580Y-21511120D01*
G75*
G02*
X102810580Y-21361120I150000J0D01*
G01*
X104460580Y-21361120D01*
G75*
G02*
X104610580Y-21511120I0J-150000D01*
G01*
G37*
G36*
G01*
X104610580Y-20241120D02*
X104610580Y-20541120D01*
G75*
G02*
X104460580Y-20691120I-150000J0D01*
G01*
X102810580Y-20691120D01*
G75*
G02*
X102660580Y-20541120I0J150000D01*
G01*
X102660580Y-20241120D01*
G75*
G02*
X102810580Y-20091120I150000J0D01*
G01*
X104460580Y-20091120D01*
G75*
G02*
X104610580Y-20241120I0J-150000D01*
G01*
G37*
G36*
G01*
X104610580Y-18971120D02*
X104610580Y-19271120D01*
G75*
G02*
X104460580Y-19421120I-150000J0D01*
G01*
X102810580Y-19421120D01*
G75*
G02*
X102660580Y-19271120I0J150000D01*
G01*
X102660580Y-18971120D01*
G75*
G02*
X102810580Y-18821120I150000J0D01*
G01*
X104460580Y-18821120D01*
G75*
G02*
X104610580Y-18971120I0J-150000D01*
G01*
G37*
X52733120Y-32666900D03*
X52733120Y-33616900D03*
X52733120Y-34566900D03*
X50533120Y-34566900D03*
X50533120Y-32666900D03*
G36*
G01*
X57585480Y-45062000D02*
X57585480Y-45362000D01*
G75*
G02*
X57435480Y-45512000I-150000J0D01*
G01*
X55785480Y-45512000D01*
G75*
G02*
X55635480Y-45362000I0J150000D01*
G01*
X55635480Y-45062000D01*
G75*
G02*
X55785480Y-44912000I150000J0D01*
G01*
X57435480Y-44912000D01*
G75*
G02*
X57585480Y-45062000I0J-150000D01*
G01*
G37*
G36*
G01*
X57585480Y-46332000D02*
X57585480Y-46632000D01*
G75*
G02*
X57435480Y-46782000I-150000J0D01*
G01*
X55785480Y-46782000D01*
G75*
G02*
X55635480Y-46632000I0J150000D01*
G01*
X55635480Y-46332000D01*
G75*
G02*
X55785480Y-46182000I150000J0D01*
G01*
X57435480Y-46182000D01*
G75*
G02*
X57585480Y-46332000I0J-150000D01*
G01*
G37*
G36*
G01*
X57585480Y-47602000D02*
X57585480Y-47902000D01*
G75*
G02*
X57435480Y-48052000I-150000J0D01*
G01*
X55785480Y-48052000D01*
G75*
G02*
X55635480Y-47902000I0J150000D01*
G01*
X55635480Y-47602000D01*
G75*
G02*
X55785480Y-47452000I150000J0D01*
G01*
X57435480Y-47452000D01*
G75*
G02*
X57585480Y-47602000I0J-150000D01*
G01*
G37*
G36*
G01*
X57585480Y-48872000D02*
X57585480Y-49172000D01*
G75*
G02*
X57435480Y-49322000I-150000J0D01*
G01*
X55785480Y-49322000D01*
G75*
G02*
X55635480Y-49172000I0J150000D01*
G01*
X55635480Y-48872000D01*
G75*
G02*
X55785480Y-48722000I150000J0D01*
G01*
X57435480Y-48722000D01*
G75*
G02*
X57585480Y-48872000I0J-150000D01*
G01*
G37*
G36*
G01*
X62535480Y-48872000D02*
X62535480Y-49172000D01*
G75*
G02*
X62385480Y-49322000I-150000J0D01*
G01*
X60735480Y-49322000D01*
G75*
G02*
X60585480Y-49172000I0J150000D01*
G01*
X60585480Y-48872000D01*
G75*
G02*
X60735480Y-48722000I150000J0D01*
G01*
X62385480Y-48722000D01*
G75*
G02*
X62535480Y-48872000I0J-150000D01*
G01*
G37*
G36*
G01*
X62535480Y-47602000D02*
X62535480Y-47902000D01*
G75*
G02*
X62385480Y-48052000I-150000J0D01*
G01*
X60735480Y-48052000D01*
G75*
G02*
X60585480Y-47902000I0J150000D01*
G01*
X60585480Y-47602000D01*
G75*
G02*
X60735480Y-47452000I150000J0D01*
G01*
X62385480Y-47452000D01*
G75*
G02*
X62535480Y-47602000I0J-150000D01*
G01*
G37*
G36*
G01*
X62535480Y-46332000D02*
X62535480Y-46632000D01*
G75*
G02*
X62385480Y-46782000I-150000J0D01*
G01*
X60735480Y-46782000D01*
G75*
G02*
X60585480Y-46632000I0J150000D01*
G01*
X60585480Y-46332000D01*
G75*
G02*
X60735480Y-46182000I150000J0D01*
G01*
X62385480Y-46182000D01*
G75*
G02*
X62535480Y-46332000I0J-150000D01*
G01*
G37*
G36*
G01*
X62535480Y-45062000D02*
X62535480Y-45362000D01*
G75*
G02*
X62385480Y-45512000I-150000J0D01*
G01*
X60735480Y-45512000D01*
G75*
G02*
X60585480Y-45362000I0J150000D01*
G01*
X60585480Y-45062000D01*
G75*
G02*
X60735480Y-44912000I150000J0D01*
G01*
X62385480Y-44912000D01*
G75*
G02*
X62535480Y-45062000I0J-150000D01*
G01*
G37*
G36*
G01*
X76135100Y-36674920D02*
X76135100Y-36974920D01*
G75*
G02*
X75985100Y-37124920I-150000J0D01*
G01*
X74335100Y-37124920D01*
G75*
G02*
X74185100Y-36974920I0J150000D01*
G01*
X74185100Y-36674920D01*
G75*
G02*
X74335100Y-36524920I150000J0D01*
G01*
X75985100Y-36524920D01*
G75*
G02*
X76135100Y-36674920I0J-150000D01*
G01*
G37*
G36*
G01*
X76135100Y-37944920D02*
X76135100Y-38244920D01*
G75*
G02*
X75985100Y-38394920I-150000J0D01*
G01*
X74335100Y-38394920D01*
G75*
G02*
X74185100Y-38244920I0J150000D01*
G01*
X74185100Y-37944920D01*
G75*
G02*
X74335100Y-37794920I150000J0D01*
G01*
X75985100Y-37794920D01*
G75*
G02*
X76135100Y-37944920I0J-150000D01*
G01*
G37*
G36*
G01*
X76135100Y-39214920D02*
X76135100Y-39514920D01*
G75*
G02*
X75985100Y-39664920I-150000J0D01*
G01*
X74335100Y-39664920D01*
G75*
G02*
X74185100Y-39514920I0J150000D01*
G01*
X74185100Y-39214920D01*
G75*
G02*
X74335100Y-39064920I150000J0D01*
G01*
X75985100Y-39064920D01*
G75*
G02*
X76135100Y-39214920I0J-150000D01*
G01*
G37*
G36*
G01*
X76135100Y-40484920D02*
X76135100Y-40784920D01*
G75*
G02*
X75985100Y-40934920I-150000J0D01*
G01*
X74335100Y-40934920D01*
G75*
G02*
X74185100Y-40784920I0J150000D01*
G01*
X74185100Y-40484920D01*
G75*
G02*
X74335100Y-40334920I150000J0D01*
G01*
X75985100Y-40334920D01*
G75*
G02*
X76135100Y-40484920I0J-150000D01*
G01*
G37*
G36*
G01*
X81085100Y-40484920D02*
X81085100Y-40784920D01*
G75*
G02*
X80935100Y-40934920I-150000J0D01*
G01*
X79285100Y-40934920D01*
G75*
G02*
X79135100Y-40784920I0J150000D01*
G01*
X79135100Y-40484920D01*
G75*
G02*
X79285100Y-40334920I150000J0D01*
G01*
X80935100Y-40334920D01*
G75*
G02*
X81085100Y-40484920I0J-150000D01*
G01*
G37*
G36*
G01*
X81085100Y-39214920D02*
X81085100Y-39514920D01*
G75*
G02*
X80935100Y-39664920I-150000J0D01*
G01*
X79285100Y-39664920D01*
G75*
G02*
X79135100Y-39514920I0J150000D01*
G01*
X79135100Y-39214920D01*
G75*
G02*
X79285100Y-39064920I150000J0D01*
G01*
X80935100Y-39064920D01*
G75*
G02*
X81085100Y-39214920I0J-150000D01*
G01*
G37*
G36*
G01*
X81085100Y-37944920D02*
X81085100Y-38244920D01*
G75*
G02*
X80935100Y-38394920I-150000J0D01*
G01*
X79285100Y-38394920D01*
G75*
G02*
X79135100Y-38244920I0J150000D01*
G01*
X79135100Y-37944920D01*
G75*
G02*
X79285100Y-37794920I150000J0D01*
G01*
X80935100Y-37794920D01*
G75*
G02*
X81085100Y-37944920I0J-150000D01*
G01*
G37*
G36*
G01*
X81085100Y-36674920D02*
X81085100Y-36974920D01*
G75*
G02*
X80935100Y-37124920I-150000J0D01*
G01*
X79285100Y-37124920D01*
G75*
G02*
X79135100Y-36974920I0J150000D01*
G01*
X79135100Y-36674920D01*
G75*
G02*
X79285100Y-36524920I150000J0D01*
G01*
X80935100Y-36524920D01*
G75*
G02*
X81085100Y-36674920I0J-150000D01*
G01*
G37*
G36*
G01*
X62550720Y-31874320D02*
X62550720Y-32174320D01*
G75*
G02*
X62400720Y-32324320I-150000J0D01*
G01*
X60750720Y-32324320D01*
G75*
G02*
X60600720Y-32174320I0J150000D01*
G01*
X60600720Y-31874320D01*
G75*
G02*
X60750720Y-31724320I150000J0D01*
G01*
X62400720Y-31724320D01*
G75*
G02*
X62550720Y-31874320I0J-150000D01*
G01*
G37*
G36*
G01*
X62550720Y-33144320D02*
X62550720Y-33444320D01*
G75*
G02*
X62400720Y-33594320I-150000J0D01*
G01*
X60750720Y-33594320D01*
G75*
G02*
X60600720Y-33444320I0J150000D01*
G01*
X60600720Y-33144320D01*
G75*
G02*
X60750720Y-32994320I150000J0D01*
G01*
X62400720Y-32994320D01*
G75*
G02*
X62550720Y-33144320I0J-150000D01*
G01*
G37*
G36*
G01*
X62550720Y-34414320D02*
X62550720Y-34714320D01*
G75*
G02*
X62400720Y-34864320I-150000J0D01*
G01*
X60750720Y-34864320D01*
G75*
G02*
X60600720Y-34714320I0J150000D01*
G01*
X60600720Y-34414320D01*
G75*
G02*
X60750720Y-34264320I150000J0D01*
G01*
X62400720Y-34264320D01*
G75*
G02*
X62550720Y-34414320I0J-150000D01*
G01*
G37*
G36*
G01*
X62550720Y-35684320D02*
X62550720Y-35984320D01*
G75*
G02*
X62400720Y-36134320I-150000J0D01*
G01*
X60750720Y-36134320D01*
G75*
G02*
X60600720Y-35984320I0J150000D01*
G01*
X60600720Y-35684320D01*
G75*
G02*
X60750720Y-35534320I150000J0D01*
G01*
X62400720Y-35534320D01*
G75*
G02*
X62550720Y-35684320I0J-150000D01*
G01*
G37*
G36*
G01*
X62550720Y-36954320D02*
X62550720Y-37254320D01*
G75*
G02*
X62400720Y-37404320I-150000J0D01*
G01*
X60750720Y-37404320D01*
G75*
G02*
X60600720Y-37254320I0J150000D01*
G01*
X60600720Y-36954320D01*
G75*
G02*
X60750720Y-36804320I150000J0D01*
G01*
X62400720Y-36804320D01*
G75*
G02*
X62550720Y-36954320I0J-150000D01*
G01*
G37*
G36*
G01*
X62550720Y-38224320D02*
X62550720Y-38524320D01*
G75*
G02*
X62400720Y-38674320I-150000J0D01*
G01*
X60750720Y-38674320D01*
G75*
G02*
X60600720Y-38524320I0J150000D01*
G01*
X60600720Y-38224320D01*
G75*
G02*
X60750720Y-38074320I150000J0D01*
G01*
X62400720Y-38074320D01*
G75*
G02*
X62550720Y-38224320I0J-150000D01*
G01*
G37*
G36*
G01*
X62550720Y-39494320D02*
X62550720Y-39794320D01*
G75*
G02*
X62400720Y-39944320I-150000J0D01*
G01*
X60750720Y-39944320D01*
G75*
G02*
X60600720Y-39794320I0J150000D01*
G01*
X60600720Y-39494320D01*
G75*
G02*
X60750720Y-39344320I150000J0D01*
G01*
X62400720Y-39344320D01*
G75*
G02*
X62550720Y-39494320I0J-150000D01*
G01*
G37*
G36*
G01*
X57600720Y-39494320D02*
X57600720Y-39794320D01*
G75*
G02*
X57450720Y-39944320I-150000J0D01*
G01*
X55800720Y-39944320D01*
G75*
G02*
X55650720Y-39794320I0J150000D01*
G01*
X55650720Y-39494320D01*
G75*
G02*
X55800720Y-39344320I150000J0D01*
G01*
X57450720Y-39344320D01*
G75*
G02*
X57600720Y-39494320I0J-150000D01*
G01*
G37*
G36*
G01*
X57600720Y-38224320D02*
X57600720Y-38524320D01*
G75*
G02*
X57450720Y-38674320I-150000J0D01*
G01*
X55800720Y-38674320D01*
G75*
G02*
X55650720Y-38524320I0J150000D01*
G01*
X55650720Y-38224320D01*
G75*
G02*
X55800720Y-38074320I150000J0D01*
G01*
X57450720Y-38074320D01*
G75*
G02*
X57600720Y-38224320I0J-150000D01*
G01*
G37*
G36*
G01*
X57600720Y-36954320D02*
X57600720Y-37254320D01*
G75*
G02*
X57450720Y-37404320I-150000J0D01*
G01*
X55800720Y-37404320D01*
G75*
G02*
X55650720Y-37254320I0J150000D01*
G01*
X55650720Y-36954320D01*
G75*
G02*
X55800720Y-36804320I150000J0D01*
G01*
X57450720Y-36804320D01*
G75*
G02*
X57600720Y-36954320I0J-150000D01*
G01*
G37*
G36*
G01*
X57600720Y-35684320D02*
X57600720Y-35984320D01*
G75*
G02*
X57450720Y-36134320I-150000J0D01*
G01*
X55800720Y-36134320D01*
G75*
G02*
X55650720Y-35984320I0J150000D01*
G01*
X55650720Y-35684320D01*
G75*
G02*
X55800720Y-35534320I150000J0D01*
G01*
X57450720Y-35534320D01*
G75*
G02*
X57600720Y-35684320I0J-150000D01*
G01*
G37*
G36*
G01*
X57600720Y-34414320D02*
X57600720Y-34714320D01*
G75*
G02*
X57450720Y-34864320I-150000J0D01*
G01*
X55800720Y-34864320D01*
G75*
G02*
X55650720Y-34714320I0J150000D01*
G01*
X55650720Y-34414320D01*
G75*
G02*
X55800720Y-34264320I150000J0D01*
G01*
X57450720Y-34264320D01*
G75*
G02*
X57600720Y-34414320I0J-150000D01*
G01*
G37*
G36*
G01*
X57600720Y-33144320D02*
X57600720Y-33444320D01*
G75*
G02*
X57450720Y-33594320I-150000J0D01*
G01*
X55800720Y-33594320D01*
G75*
G02*
X55650720Y-33444320I0J150000D01*
G01*
X55650720Y-33144320D01*
G75*
G02*
X55800720Y-32994320I150000J0D01*
G01*
X57450720Y-32994320D01*
G75*
G02*
X57600720Y-33144320I0J-150000D01*
G01*
G37*
G36*
G01*
X57600720Y-31874320D02*
X57600720Y-32174320D01*
G75*
G02*
X57450720Y-32324320I-150000J0D01*
G01*
X55800720Y-32324320D01*
G75*
G02*
X55650720Y-32174320I0J150000D01*
G01*
X55650720Y-31874320D01*
G75*
G02*
X55800720Y-31724320I150000J0D01*
G01*
X57450720Y-31724320D01*
G75*
G02*
X57600720Y-31874320I0J-150000D01*
G01*
G37*
G36*
G01*
X130982040Y-25471260D02*
X130982040Y-25171260D01*
G75*
G02*
X131132040Y-25021260I150000J0D01*
G01*
X132782040Y-25021260D01*
G75*
G02*
X132932040Y-25171260I0J-150000D01*
G01*
X132932040Y-25471260D01*
G75*
G02*
X132782040Y-25621260I-150000J0D01*
G01*
X131132040Y-25621260D01*
G75*
G02*
X130982040Y-25471260I0J150000D01*
G01*
G37*
G36*
G01*
X130982040Y-24201260D02*
X130982040Y-23901260D01*
G75*
G02*
X131132040Y-23751260I150000J0D01*
G01*
X132782040Y-23751260D01*
G75*
G02*
X132932040Y-23901260I0J-150000D01*
G01*
X132932040Y-24201260D01*
G75*
G02*
X132782040Y-24351260I-150000J0D01*
G01*
X131132040Y-24351260D01*
G75*
G02*
X130982040Y-24201260I0J150000D01*
G01*
G37*
G36*
G01*
X130982040Y-22931260D02*
X130982040Y-22631260D01*
G75*
G02*
X131132040Y-22481260I150000J0D01*
G01*
X132782040Y-22481260D01*
G75*
G02*
X132932040Y-22631260I0J-150000D01*
G01*
X132932040Y-22931260D01*
G75*
G02*
X132782040Y-23081260I-150000J0D01*
G01*
X131132040Y-23081260D01*
G75*
G02*
X130982040Y-22931260I0J150000D01*
G01*
G37*
G36*
G01*
X130982040Y-21661260D02*
X130982040Y-21361260D01*
G75*
G02*
X131132040Y-21211260I150000J0D01*
G01*
X132782040Y-21211260D01*
G75*
G02*
X132932040Y-21361260I0J-150000D01*
G01*
X132932040Y-21661260D01*
G75*
G02*
X132782040Y-21811260I-150000J0D01*
G01*
X131132040Y-21811260D01*
G75*
G02*
X130982040Y-21661260I0J150000D01*
G01*
G37*
G36*
G01*
X135932040Y-21661260D02*
X135932040Y-21361260D01*
G75*
G02*
X136082040Y-21211260I150000J0D01*
G01*
X137732040Y-21211260D01*
G75*
G02*
X137882040Y-21361260I0J-150000D01*
G01*
X137882040Y-21661260D01*
G75*
G02*
X137732040Y-21811260I-150000J0D01*
G01*
X136082040Y-21811260D01*
G75*
G02*
X135932040Y-21661260I0J150000D01*
G01*
G37*
G36*
G01*
X135932040Y-22931260D02*
X135932040Y-22631260D01*
G75*
G02*
X136082040Y-22481260I150000J0D01*
G01*
X137732040Y-22481260D01*
G75*
G02*
X137882040Y-22631260I0J-150000D01*
G01*
X137882040Y-22931260D01*
G75*
G02*
X137732040Y-23081260I-150000J0D01*
G01*
X136082040Y-23081260D01*
G75*
G02*
X135932040Y-22931260I0J150000D01*
G01*
G37*
G36*
G01*
X135932040Y-24201260D02*
X135932040Y-23901260D01*
G75*
G02*
X136082040Y-23751260I150000J0D01*
G01*
X137732040Y-23751260D01*
G75*
G02*
X137882040Y-23901260I0J-150000D01*
G01*
X137882040Y-24201260D01*
G75*
G02*
X137732040Y-24351260I-150000J0D01*
G01*
X136082040Y-24351260D01*
G75*
G02*
X135932040Y-24201260I0J150000D01*
G01*
G37*
G36*
G01*
X135932040Y-25471260D02*
X135932040Y-25171260D01*
G75*
G02*
X136082040Y-25021260I150000J0D01*
G01*
X137732040Y-25021260D01*
G75*
G02*
X137882040Y-25171260I0J-150000D01*
G01*
X137882040Y-25471260D01*
G75*
G02*
X137732040Y-25621260I-150000J0D01*
G01*
X136082040Y-25621260D01*
G75*
G02*
X135932040Y-25471260I0J150000D01*
G01*
G37*
G36*
G01*
X135741540Y-37127320D02*
X135741540Y-36827320D01*
G75*
G02*
X135891540Y-36677320I150000J0D01*
G01*
X137541540Y-36677320D01*
G75*
G02*
X137691540Y-36827320I0J-150000D01*
G01*
X137691540Y-37127320D01*
G75*
G02*
X137541540Y-37277320I-150000J0D01*
G01*
X135891540Y-37277320D01*
G75*
G02*
X135741540Y-37127320I0J150000D01*
G01*
G37*
G36*
G01*
X135741540Y-35857320D02*
X135741540Y-35557320D01*
G75*
G02*
X135891540Y-35407320I150000J0D01*
G01*
X137541540Y-35407320D01*
G75*
G02*
X137691540Y-35557320I0J-150000D01*
G01*
X137691540Y-35857320D01*
G75*
G02*
X137541540Y-36007320I-150000J0D01*
G01*
X135891540Y-36007320D01*
G75*
G02*
X135741540Y-35857320I0J150000D01*
G01*
G37*
G36*
G01*
X135741540Y-34587320D02*
X135741540Y-34287320D01*
G75*
G02*
X135891540Y-34137320I150000J0D01*
G01*
X137541540Y-34137320D01*
G75*
G02*
X137691540Y-34287320I0J-150000D01*
G01*
X137691540Y-34587320D01*
G75*
G02*
X137541540Y-34737320I-150000J0D01*
G01*
X135891540Y-34737320D01*
G75*
G02*
X135741540Y-34587320I0J150000D01*
G01*
G37*
G36*
G01*
X135741540Y-33317320D02*
X135741540Y-33017320D01*
G75*
G02*
X135891540Y-32867320I150000J0D01*
G01*
X137541540Y-32867320D01*
G75*
G02*
X137691540Y-33017320I0J-150000D01*
G01*
X137691540Y-33317320D01*
G75*
G02*
X137541540Y-33467320I-150000J0D01*
G01*
X135891540Y-33467320D01*
G75*
G02*
X135741540Y-33317320I0J150000D01*
G01*
G37*
G36*
G01*
X130791540Y-33317320D02*
X130791540Y-33017320D01*
G75*
G02*
X130941540Y-32867320I150000J0D01*
G01*
X132591540Y-32867320D01*
G75*
G02*
X132741540Y-33017320I0J-150000D01*
G01*
X132741540Y-33317320D01*
G75*
G02*
X132591540Y-33467320I-150000J0D01*
G01*
X130941540Y-33467320D01*
G75*
G02*
X130791540Y-33317320I0J150000D01*
G01*
G37*
G36*
G01*
X130791540Y-34587320D02*
X130791540Y-34287320D01*
G75*
G02*
X130941540Y-34137320I150000J0D01*
G01*
X132591540Y-34137320D01*
G75*
G02*
X132741540Y-34287320I0J-150000D01*
G01*
X132741540Y-34587320D01*
G75*
G02*
X132591540Y-34737320I-150000J0D01*
G01*
X130941540Y-34737320D01*
G75*
G02*
X130791540Y-34587320I0J150000D01*
G01*
G37*
G36*
G01*
X130791540Y-35857320D02*
X130791540Y-35557320D01*
G75*
G02*
X130941540Y-35407320I150000J0D01*
G01*
X132591540Y-35407320D01*
G75*
G02*
X132741540Y-35557320I0J-150000D01*
G01*
X132741540Y-35857320D01*
G75*
G02*
X132591540Y-36007320I-150000J0D01*
G01*
X130941540Y-36007320D01*
G75*
G02*
X130791540Y-35857320I0J150000D01*
G01*
G37*
G36*
G01*
X130791540Y-37127320D02*
X130791540Y-36827320D01*
G75*
G02*
X130941540Y-36677320I150000J0D01*
G01*
X132591540Y-36677320D01*
G75*
G02*
X132741540Y-36827320I0J-150000D01*
G01*
X132741540Y-37127320D01*
G75*
G02*
X132591540Y-37277320I-150000J0D01*
G01*
X130941540Y-37277320D01*
G75*
G02*
X130791540Y-37127320I0J150000D01*
G01*
G37*
M02*
