G04 #@! TF.GenerationSoftware,KiCad,Pcbnew,5.1.10-6.fc34*
G04 #@! TF.CreationDate,2021-10-24T11:18:16+02:00*
G04 #@! TF.ProjectId,Amp Module,416d7020-4d6f-4647-956c-652e6b696361,rev?*
G04 #@! TF.SameCoordinates,Original*
G04 #@! TF.FileFunction,Copper,L1,Top*
G04 #@! TF.FilePolarity,Positive*
%FSLAX46Y46*%
G04 Gerber Fmt 4.6, Leading zero omitted, Abs format (unit mm)*
G04 Created by KiCad (PCBNEW 5.1.10-6.fc34) date 2021-10-24 11:18:16*
%MOMM*%
%LPD*%
G01*
G04 APERTURE LIST*
G04 #@! TA.AperFunction,ComponentPad*
%ADD10C,2.000000*%
G04 #@! TD*
G04 #@! TA.AperFunction,ComponentPad*
%ADD11R,2.000000X2.000000*%
G04 #@! TD*
G04 #@! TA.AperFunction,ComponentPad*
%ADD12C,1.700000*%
G04 #@! TD*
G04 #@! TA.AperFunction,ComponentPad*
%ADD13C,1.620000*%
G04 #@! TD*
G04 #@! TA.AperFunction,ComponentPad*
%ADD14C,1.800000*%
G04 #@! TD*
G04 #@! TA.AperFunction,ComponentPad*
%ADD15R,1.800000X1.800000*%
G04 #@! TD*
G04 #@! TA.AperFunction,ViaPad*
%ADD16C,0.800000*%
G04 #@! TD*
G04 #@! TA.AperFunction,Conductor*
%ADD17C,0.250000*%
G04 #@! TD*
G04 #@! TA.AperFunction,Conductor*
%ADD18C,0.304800*%
G04 #@! TD*
G04 APERTURE END LIST*
D10*
X36844600Y-47561150D03*
X39344600Y-47561150D03*
X34344600Y-47561150D03*
X41844600Y-47561150D03*
D11*
X44344600Y-47561150D03*
X44344600Y-29261150D03*
D10*
X41844600Y-29261150D03*
X34344600Y-29261150D03*
X36844600Y-29261150D03*
X39344600Y-29261150D03*
X196648700Y-47561150D03*
X199148700Y-47561150D03*
X194148700Y-47561150D03*
X201648700Y-47561150D03*
D11*
X204148700Y-47561150D03*
X204148700Y-29261150D03*
D10*
X201648700Y-29261150D03*
X194148700Y-29261150D03*
X196648700Y-29261150D03*
X199148700Y-29261150D03*
X151904700Y-55791100D03*
X151904700Y-50711100D03*
X146824700Y-50711100D03*
X146824700Y-55791100D03*
X149364700Y-55951100D03*
X149364700Y-50551100D03*
X91691460Y-55796180D03*
X91691460Y-50716180D03*
X86611460Y-50716180D03*
X86611460Y-55796180D03*
X89151460Y-55956180D03*
X89151460Y-50556180D03*
D12*
X62801500Y-22720300D03*
X60261500Y-22720300D03*
X57721500Y-22720300D03*
X55181500Y-22720300D03*
X52641500Y-22720300D03*
X50101500Y-22720300D03*
X47561500Y-22720300D03*
X45021500Y-22720300D03*
X42481500Y-22720300D03*
X39941500Y-22720300D03*
X37401500Y-22720300D03*
X34861500Y-22720300D03*
X32321500Y-22720300D03*
X29781500Y-22720300D03*
X27241500Y-22720300D03*
X24701500Y-22720300D03*
X22161500Y-22720300D03*
X62801500Y-20180300D03*
X60261500Y-20180300D03*
X57721500Y-20180300D03*
X55181500Y-20180300D03*
X52641500Y-20180300D03*
X50101500Y-20180300D03*
X47561500Y-20180300D03*
X45021500Y-20180300D03*
X42481500Y-20180300D03*
X39941500Y-20180300D03*
X37401500Y-20180300D03*
X34861500Y-20180300D03*
X32321500Y-20180300D03*
X29781500Y-20180300D03*
X27241500Y-20180300D03*
X24701500Y-20180300D03*
G04 #@! TA.AperFunction,ComponentPad*
G36*
G01*
X21561500Y-19330300D02*
X22761500Y-19330300D01*
G75*
G02*
X23011500Y-19580300I0J-250000D01*
G01*
X23011500Y-20780300D01*
G75*
G02*
X22761500Y-21030300I-250000J0D01*
G01*
X21561500Y-21030300D01*
G75*
G02*
X21311500Y-20780300I0J250000D01*
G01*
X21311500Y-19580300D01*
G75*
G02*
X21561500Y-19330300I250000J0D01*
G01*
G37*
G04 #@! TD.AperFunction*
D13*
X128128400Y-27253560D03*
X125628400Y-24753560D03*
X125628400Y-29753560D03*
X69075300Y-38140640D03*
X69075300Y-43140640D03*
X66575300Y-40640640D03*
D14*
X87995760Y-40162480D03*
D15*
X90535760Y-40162480D03*
D14*
X150759160Y-40167560D03*
D15*
X148219160Y-40167560D03*
X118198900Y-29762480D03*
D14*
X120738900Y-29762480D03*
X87995760Y-24562480D03*
D15*
X90535760Y-24562480D03*
D14*
X87995760Y-29762480D03*
D15*
X90535760Y-29762480D03*
X90535760Y-34962480D03*
D14*
X87995760Y-34962480D03*
D15*
X90535760Y-19362480D03*
D14*
X87995760Y-19362480D03*
X150759160Y-24567560D03*
D15*
X148219160Y-24567560D03*
X148219160Y-29767560D03*
D14*
X150759160Y-29767560D03*
D15*
X148219160Y-34967560D03*
D14*
X150759160Y-34967560D03*
D15*
X148219160Y-19367560D03*
D14*
X150759160Y-19367560D03*
G04 #@! TA.AperFunction,ComponentPad*
G36*
G01*
X21586900Y-54826800D02*
X22786900Y-54826800D01*
G75*
G02*
X23036900Y-55076800I0J-250000D01*
G01*
X23036900Y-56276800D01*
G75*
G02*
X22786900Y-56526800I-250000J0D01*
G01*
X21586900Y-56526800D01*
G75*
G02*
X21336900Y-56276800I0J250000D01*
G01*
X21336900Y-55076800D01*
G75*
G02*
X21586900Y-54826800I250000J0D01*
G01*
G37*
G04 #@! TD.AperFunction*
D12*
X24726900Y-55676800D03*
X27266900Y-55676800D03*
X29806900Y-55676800D03*
X32346900Y-55676800D03*
X34886900Y-55676800D03*
X37426900Y-55676800D03*
X39966900Y-55676800D03*
X42506900Y-55676800D03*
X45046900Y-55676800D03*
X47586900Y-55676800D03*
X50126900Y-55676800D03*
X52666900Y-55676800D03*
X55206900Y-55676800D03*
X57746900Y-55676800D03*
X60286900Y-55676800D03*
X62826900Y-55676800D03*
X22186900Y-58216800D03*
X24726900Y-58216800D03*
X27266900Y-58216800D03*
X29806900Y-58216800D03*
X32346900Y-58216800D03*
X34886900Y-58216800D03*
X37426900Y-58216800D03*
X39966900Y-58216800D03*
X42506900Y-58216800D03*
X45046900Y-58216800D03*
X47586900Y-58216800D03*
X50126900Y-58216800D03*
X52666900Y-58216800D03*
X55206900Y-58216800D03*
X57746900Y-58216800D03*
X60286900Y-58216800D03*
X62826900Y-58216800D03*
D16*
X37060000Y-37030000D03*
X18968720Y-43182540D03*
X17584420Y-46189900D03*
X24277320Y-36469320D03*
X28196540Y-29301440D03*
X180690520Y-24721820D03*
X185379360Y-27866340D03*
X93853000Y-20828000D03*
X96266000Y-33528000D03*
X95758000Y-38735000D03*
X95758000Y-43601640D03*
X60794900Y-27703780D03*
X67025520Y-27703780D03*
X61490860Y-42705020D03*
X57754520Y-50495042D03*
X82971640Y-29710380D03*
X82694780Y-34820860D03*
X85600540Y-31224220D03*
X93853000Y-28064460D03*
X186618880Y-26245820D03*
X184543688Y-24170640D03*
X130058160Y-33086040D03*
X131954270Y-38467030D03*
X198249540Y-18188940D03*
X201838560Y-18188940D03*
X141310360Y-32175290D03*
X110276640Y-32359600D03*
X113009680Y-35125660D03*
X95102680Y-36932710D03*
X129689860Y-21478240D03*
X127048260Y-18722340D03*
X106395520Y-18994120D03*
X113654840Y-17713960D03*
X134059641Y-25172381D03*
X76443840Y-30474920D03*
X76454000Y-33185100D03*
X105763060Y-21244560D03*
X101130100Y-28178760D03*
X72948800Y-26249901D03*
X68549520Y-26249901D03*
X82169000Y-38747700D03*
X61485780Y-40911780D03*
X82240120Y-49636680D03*
X80578960Y-42938700D03*
X30848300Y-48138080D03*
X35694620Y-27660600D03*
X30782260Y-32219900D03*
X30848300Y-43418760D03*
X178798220Y-24721820D03*
X196093080Y-21831300D03*
X32025740Y-38758937D03*
X49479200Y-31589980D03*
X134040880Y-29131260D03*
X81643220Y-35869880D03*
X85605620Y-35847020D03*
X72876410Y-37364670D03*
X51780440Y-40982900D03*
X81605120Y-26512520D03*
X83672680Y-20096480D03*
X100779580Y-19804380D03*
X121711720Y-18600420D03*
X135371840Y-44069000D03*
X138998960Y-29131260D03*
X135367235Y-40823990D03*
X104787700Y-47180500D03*
X106578400Y-35572700D03*
X111266130Y-18600420D03*
X116575840Y-21605240D03*
X118524020Y-23555240D03*
X118524020Y-25819100D03*
X57934860Y-28389580D03*
X76591160Y-51136710D03*
X105783380Y-22796500D03*
X105783380Y-24571960D03*
X99448620Y-53543200D03*
X144045940Y-46309280D03*
X103215440Y-31572200D03*
X107091480Y-20667980D03*
X103210360Y-33045400D03*
X98582482Y-52669440D03*
X95371920Y-45913040D03*
X33799780Y-37795200D03*
X51770280Y-42031920D03*
X82760820Y-31516320D03*
X100081082Y-44645578D03*
X64985900Y-30167580D03*
X63881000Y-51285140D03*
X63863220Y-30393640D03*
X53863240Y-49032160D03*
X55659020Y-26896062D03*
X48696880Y-35659060D03*
X48740060Y-27553920D03*
X81610202Y-23004780D03*
X53045360Y-36083240D03*
X54010600Y-32666900D03*
X54041040Y-26921462D03*
X54909720Y-37099240D03*
X32241319Y-28378110D03*
X34014335Y-50345665D03*
X62671960Y-30388560D03*
X68732400Y-18371820D03*
X186461400Y-17091660D03*
X48818800Y-24025860D03*
X50149760Y-40777160D03*
X47591978Y-27541220D03*
X84432140Y-17175480D03*
X32750740Y-30716200D03*
X59504580Y-47671980D03*
X34025655Y-51382304D03*
X97144840Y-40718740D03*
X61831220Y-51521360D03*
X99799140Y-38851840D03*
X101917500Y-21663662D03*
X80175100Y-50408840D03*
X102219760Y-41846500D03*
X144929860Y-32387540D03*
X80165839Y-49408871D03*
X82124956Y-47449740D03*
X99747230Y-43376690D03*
X26972260Y-42148760D03*
X47724060Y-48483520D03*
X54071520Y-42136060D03*
X68790820Y-34960560D03*
X79192120Y-33652460D03*
X110058200Y-25468580D03*
X78422500Y-39364920D03*
X80457040Y-32392620D03*
X84703920Y-25760680D03*
X59802874Y-34642525D03*
X67650360Y-36151820D03*
X92819220Y-38117780D03*
X111940380Y-20670480D03*
X119258080Y-20667980D03*
X111978860Y-22638600D03*
X113698020Y-22263100D03*
X59806840Y-37078920D03*
X130241040Y-25318713D03*
X66575300Y-34750000D03*
X59034680Y-32026860D03*
X58262520Y-39639240D03*
X58249820Y-35087560D03*
X58249820Y-37939994D03*
X50523140Y-36187380D03*
X53543200Y-38356540D03*
D17*
X44344600Y-29745400D02*
X37060000Y-37030000D01*
X44344600Y-29261150D02*
X44344600Y-29745400D01*
X18968720Y-43182540D02*
X17584420Y-44566840D01*
X17584420Y-44566840D02*
X17584420Y-46189900D01*
D18*
X24277320Y-36469320D02*
X24277320Y-33220660D01*
X24277320Y-33220660D02*
X28196540Y-29301440D01*
D17*
X28196540Y-29301440D02*
X28196540Y-29301440D01*
D18*
X36139120Y-56929020D02*
X37426900Y-58216800D01*
X36139120Y-55149466D02*
X36139120Y-56929020D01*
X29989562Y-48999908D02*
X36139120Y-55149466D01*
X29989562Y-29337218D02*
X29989562Y-48999908D01*
X36606480Y-22720300D02*
X29989562Y-29337218D01*
X37401500Y-22720300D02*
X36606480Y-22720300D01*
X183835040Y-27866340D02*
X185379360Y-27866340D01*
X180690520Y-24721820D02*
X183835040Y-27866340D01*
X57721500Y-22720300D02*
X55181500Y-20180300D01*
X29781500Y-22720300D02*
X27241500Y-20180300D01*
X57746900Y-58216800D02*
X55206900Y-55676800D01*
X29806900Y-58216800D02*
X27266900Y-55676800D01*
X29034740Y-23467060D02*
X29034740Y-53908960D01*
X29781500Y-22720300D02*
X29034740Y-23467060D01*
X29034740Y-53908960D02*
X27266900Y-55676800D01*
X54331501Y-19330301D02*
X55181500Y-20180300D01*
X52992020Y-17990820D02*
X54331501Y-19330301D01*
X29430980Y-17990820D02*
X52992020Y-17990820D01*
X27241500Y-20180300D02*
X29430980Y-17990820D01*
D17*
X93853000Y-31115000D02*
X96266000Y-33528000D01*
X93853000Y-20828000D02*
X93853000Y-28064460D01*
X95758000Y-38735000D02*
X95758000Y-43601640D01*
X95758000Y-43601640D02*
X95758000Y-43601640D01*
X60794900Y-27703780D02*
X67025520Y-27703780D01*
X67025520Y-27703780D02*
X67025520Y-27703780D01*
X61490860Y-46758702D02*
X57754520Y-50495042D01*
X61490860Y-42705020D02*
X61490860Y-46758702D01*
X57754520Y-50495042D02*
X57754520Y-50495042D01*
X85600540Y-31224220D02*
X85600540Y-31224220D01*
X93853000Y-28064460D02*
X93853000Y-31115000D01*
X186618880Y-26245820D02*
X184543700Y-24170640D01*
X184543700Y-24170640D02*
X184543688Y-24170640D01*
X130058160Y-36570920D02*
X130058160Y-33086040D01*
X131954270Y-38467030D02*
X130058160Y-36570920D01*
X133586220Y-40098980D02*
X139905741Y-40098980D01*
X131954270Y-38467030D02*
X133586220Y-40098980D01*
X198249540Y-18188940D02*
X201838560Y-18188940D01*
X139905741Y-40098980D02*
X141310360Y-38694361D01*
X141310360Y-38694361D02*
X141310360Y-32175290D01*
X110276640Y-32359600D02*
X113009680Y-35092640D01*
X113009680Y-35092640D02*
X113009680Y-35125660D01*
X95758000Y-37588030D02*
X95102680Y-36932710D01*
X95758000Y-38735000D02*
X95758000Y-37588030D01*
X129689860Y-21363940D02*
X129689860Y-21478240D01*
X127048260Y-18722340D02*
X129689860Y-21363940D01*
X106395520Y-18994120D02*
X107675680Y-17713960D01*
X107675680Y-17713960D02*
X113654840Y-17713960D01*
X113654840Y-17713960D02*
X113654840Y-17713960D01*
X129689860Y-21478240D02*
X133384001Y-25172381D01*
X133384001Y-25172381D02*
X134059641Y-25172381D01*
X76443840Y-33174940D02*
X76454000Y-33185100D01*
X76443840Y-30474920D02*
X76443840Y-33174940D01*
D18*
X101130100Y-25877520D02*
X101130100Y-28178760D01*
X105763060Y-21244560D02*
X101130100Y-25877520D01*
D17*
X68549520Y-26249901D02*
X69115205Y-26249901D01*
X69115205Y-26249901D02*
X72948800Y-26249901D01*
D18*
X82169000Y-38747700D02*
X82169000Y-38747700D01*
D17*
X61490860Y-40916860D02*
X61485780Y-40911780D01*
X61490860Y-42705020D02*
X61490860Y-40916860D01*
X82854800Y-45214540D02*
X80578960Y-42938700D01*
X82854800Y-49022000D02*
X82854800Y-45214540D01*
X82240120Y-49636680D02*
X82854800Y-49022000D01*
X82971640Y-29710380D02*
X84086700Y-29710380D01*
X84086700Y-29710380D02*
X85600540Y-31224220D01*
X81450180Y-33576260D02*
X82694780Y-34820860D01*
X81450180Y-30911800D02*
X81450180Y-33576260D01*
X82651600Y-29710380D02*
X81450180Y-30911800D01*
X82971640Y-29710380D02*
X82651600Y-29710380D01*
D18*
X38629301Y-56879201D02*
X37426900Y-55676800D01*
X46249301Y-56879201D02*
X38629301Y-56879201D01*
X47586900Y-58216800D02*
X46249301Y-56879201D01*
D17*
X30848300Y-48138080D02*
X30848300Y-43418760D01*
X34031831Y-27660600D02*
X30782260Y-30910171D01*
X35694620Y-27660600D02*
X34031831Y-27660600D01*
X30782260Y-30910171D02*
X30782260Y-32219900D01*
D18*
X196093080Y-21831300D02*
X196093080Y-21831300D01*
X189230000Y-28694380D02*
X196093080Y-21831300D01*
X182770780Y-28694380D02*
X189230000Y-28694380D01*
X178798220Y-24721820D02*
X182770780Y-28694380D01*
D17*
X30848300Y-39936377D02*
X32025740Y-38758937D01*
X30848300Y-43418760D02*
X30848300Y-39936377D01*
D18*
X150759160Y-19367560D02*
X150759160Y-24567560D01*
X150759160Y-24567560D02*
X150759160Y-29767560D01*
X150759160Y-29767560D02*
X150759160Y-34967560D01*
X87995760Y-19362480D02*
X87995760Y-24562480D01*
X87995760Y-24562480D02*
X87995760Y-29762480D01*
X87995760Y-29762480D02*
X87995760Y-34962480D01*
D17*
X125628400Y-29753560D02*
X133418580Y-29753560D01*
X133418580Y-29753560D02*
X134040880Y-29131260D01*
X134040880Y-29131260D02*
X134040880Y-29131260D01*
X81643220Y-35869880D02*
X85582760Y-35869880D01*
X85582760Y-35869880D02*
X85605620Y-35847020D01*
X69075300Y-38140640D02*
X72100440Y-38140640D01*
X72100440Y-38140640D02*
X72876410Y-37364670D01*
X49421881Y-31647299D02*
X49479200Y-31589980D01*
X49421881Y-38624341D02*
X49421881Y-31647299D01*
X51780440Y-40982900D02*
X49421881Y-38624341D01*
X83672680Y-24444960D02*
X81605120Y-26512520D01*
X83672680Y-20096480D02*
X83672680Y-24444960D01*
X121711720Y-18600420D02*
X121711720Y-18600420D01*
X135371840Y-40794940D02*
X135371840Y-40794940D01*
X134040880Y-29131260D02*
X138998960Y-29131260D01*
X138998960Y-29131260D02*
X138998960Y-29131260D01*
X135371840Y-44069000D02*
X135371840Y-40828595D01*
X135371840Y-40828595D02*
X135367235Y-40823990D01*
X104787700Y-47180500D02*
X104787700Y-37363400D01*
X104787700Y-37363400D02*
X106578400Y-35572700D01*
X106578400Y-35572700D02*
X106578400Y-35572700D01*
X121711720Y-18600420D02*
X111266130Y-18600420D01*
X100779580Y-19804380D02*
X110062170Y-19804380D01*
X110062170Y-19804380D02*
X111266130Y-18600420D01*
X116575840Y-21605240D02*
X118524020Y-23553420D01*
X118524020Y-23553420D02*
X118524020Y-23555240D01*
X118524020Y-25819100D02*
X118524020Y-23555240D01*
X69075300Y-38140640D02*
X76591160Y-45656500D01*
X76591160Y-45656500D02*
X76591160Y-51136710D01*
X79045819Y-26974903D02*
X59349537Y-26974903D01*
X83672680Y-22348042D02*
X79045819Y-26974903D01*
X59349537Y-26974903D02*
X57934860Y-28389580D01*
X83672680Y-20096480D02*
X83672680Y-22348042D01*
X105783380Y-22796500D02*
X105783380Y-24571960D01*
X105783380Y-24571960D02*
X105783380Y-24571960D01*
X99448620Y-53543200D02*
X99448620Y-53543200D01*
X96840040Y-52204620D02*
X98178620Y-53543200D01*
X96840040Y-48959622D02*
X96840040Y-52204620D01*
X98178620Y-53543200D02*
X99448620Y-53543200D01*
X100992940Y-44806722D02*
X96840040Y-48959622D01*
X100992940Y-29362400D02*
X100992940Y-44806722D01*
X105783380Y-24571960D02*
X100992940Y-29362400D01*
X144045940Y-46309280D02*
X144045940Y-46309280D01*
X144045940Y-46309280D02*
X146994159Y-43361061D01*
X146994159Y-43361061D02*
X146994159Y-33378837D01*
X103787371Y-31000269D02*
X103615439Y-31172201D01*
X103615439Y-31172201D02*
X103215440Y-31572200D01*
X146994159Y-33378837D02*
X144615591Y-31000269D01*
X144615591Y-31000269D02*
X103787371Y-31000269D01*
X103215440Y-31572200D02*
X107091480Y-27696160D01*
X107091480Y-27696160D02*
X107091480Y-20667980D01*
X85250020Y-52077620D02*
X86611460Y-50716180D01*
X85250020Y-54434740D02*
X85250020Y-52077620D01*
X86611460Y-55796180D02*
X85250020Y-54434740D01*
X101494759Y-34761001D02*
X101494759Y-49757163D01*
X103210360Y-33045400D02*
X101494759Y-34761001D01*
X101494759Y-49757163D02*
X98582482Y-52669440D01*
X145409920Y-52125880D02*
X146824700Y-50711100D01*
X145409920Y-54376320D02*
X145409920Y-52125880D01*
X146824700Y-55791100D02*
X145409920Y-54376320D01*
X87995760Y-40162480D02*
X93746320Y-45913040D01*
X93746320Y-45913040D02*
X95371920Y-45913040D01*
X38036500Y-42031920D02*
X51770280Y-42031920D01*
X33799780Y-37795200D02*
X38036500Y-42031920D01*
X100481081Y-44245579D02*
X100081082Y-44645578D01*
X82760820Y-31516320D02*
X87452200Y-36207700D01*
X87452200Y-36207700D02*
X96051516Y-36207700D01*
X96051516Y-36207700D02*
X100481081Y-40637265D01*
X100481081Y-40637265D02*
X100481081Y-44245579D01*
X20746720Y-54236620D02*
X22186900Y-55676800D01*
X20746720Y-21595080D02*
X20746720Y-54236620D01*
X22161500Y-20180300D02*
X20746720Y-21595080D01*
X62826900Y-58216800D02*
X61651899Y-57041799D01*
X61651899Y-57041799D02*
X61651899Y-55112799D01*
X61651899Y-55112799D02*
X64985900Y-51778798D01*
X64985900Y-51778798D02*
X64985900Y-30167580D01*
X61626499Y-21545299D02*
X62801500Y-22720300D01*
X61626499Y-19806297D02*
X61626499Y-21545299D01*
X58622302Y-16802100D02*
X61626499Y-19806297D01*
X25539700Y-16802100D02*
X58622302Y-16802100D01*
X22161500Y-20180300D02*
X25539700Y-16802100D01*
X63881000Y-51285140D02*
X63881000Y-30411420D01*
X63881000Y-30411420D02*
X63863220Y-30393640D01*
X53863240Y-49032160D02*
X55659020Y-47236380D01*
X55659020Y-47236380D02*
X55659020Y-26896062D01*
X48696880Y-35659060D02*
X48696880Y-27597100D01*
X48696880Y-27597100D02*
X48740060Y-27553920D01*
X79090091Y-25524891D02*
X81210203Y-23404779D01*
X81210203Y-23404779D02*
X81610202Y-23004780D01*
X45186087Y-22720300D02*
X47990678Y-25524891D01*
X45021500Y-22720300D02*
X45186087Y-22720300D01*
X47990678Y-25524891D02*
X79090091Y-25524891D01*
X45021500Y-20180300D02*
X43754040Y-21447760D01*
X43754040Y-21447760D02*
X41214040Y-21447760D01*
X41214040Y-21447760D02*
X39941500Y-22720300D01*
X48951899Y-56851801D02*
X50126900Y-55676800D01*
X48951899Y-58780801D02*
X48951899Y-56851801D01*
X48340899Y-59391801D02*
X48951899Y-58780801D01*
X36061901Y-59391801D02*
X48340899Y-59391801D01*
X34886900Y-58216800D02*
X36061901Y-59391801D01*
X37374458Y-18468340D02*
X48389540Y-18468340D01*
X36121340Y-19721458D02*
X37374458Y-18468340D01*
X36121340Y-21460460D02*
X36121340Y-19721458D01*
X48389540Y-18468340D02*
X50101500Y-20180300D01*
X34861500Y-22720300D02*
X36121340Y-21460460D01*
X54010600Y-35118000D02*
X53045360Y-36083240D01*
X54010600Y-32666900D02*
X54010600Y-35118000D01*
X54010600Y-32666900D02*
X54010600Y-26951902D01*
X54010600Y-26951902D02*
X54041040Y-26921462D01*
X32641318Y-27978111D02*
X32241319Y-28378110D01*
X34644527Y-25974902D02*
X32641318Y-27978111D01*
X54215744Y-25974902D02*
X34644527Y-25974902D01*
X54909720Y-26668878D02*
X54215744Y-25974902D01*
X54909720Y-37099240D02*
X54909720Y-26668878D01*
X54909720Y-40162480D02*
X44726535Y-50345665D01*
X54909720Y-37099240D02*
X54909720Y-40162480D01*
X44726535Y-50345665D02*
X34014335Y-50345665D01*
D18*
X23484840Y-56974740D02*
X24726900Y-58216800D01*
X23484840Y-23936960D02*
X23484840Y-56974740D01*
X24701500Y-22720300D02*
X23484840Y-23936960D01*
X57632600Y-60385960D02*
X26896060Y-60385960D01*
X59024520Y-58994040D02*
X57632600Y-60385960D01*
X59024520Y-56939180D02*
X59024520Y-58994040D01*
X26896060Y-60385960D02*
X24726900Y-58216800D01*
X60286900Y-55676800D02*
X59024520Y-56939180D01*
X60286900Y-55676800D02*
X62671960Y-53291740D01*
X62671960Y-53291740D02*
X62671960Y-30388560D01*
D17*
X62671960Y-30388560D02*
X62671960Y-30388560D01*
X70653741Y-16450479D02*
X185820219Y-16450479D01*
X68732400Y-18371820D02*
X70653741Y-16450479D01*
X185820219Y-16450479D02*
X186461400Y-17091660D01*
X186461400Y-17091660D02*
X186461400Y-17091660D01*
D18*
X50149760Y-40777160D02*
X48809056Y-40777160D01*
X48809056Y-40777160D02*
X45992199Y-37960303D01*
X45992199Y-37960303D02*
X45992199Y-29140999D01*
X45992199Y-29140999D02*
X47591978Y-27541220D01*
X51439099Y-21382701D02*
X52641500Y-20180300D01*
X49659545Y-21382701D02*
X51439099Y-21382701D01*
X48818800Y-22223446D02*
X49659545Y-21382701D01*
X48818800Y-24025860D02*
X48818800Y-22223446D01*
D17*
X41186100Y-18935700D02*
X39941500Y-20180300D01*
X45515902Y-18935700D02*
X41186100Y-18935700D01*
X46377860Y-23275662D02*
X46377860Y-19797658D01*
X48177078Y-25074880D02*
X46377860Y-23275662D01*
X73897638Y-25074880D02*
X48177078Y-25074880D01*
X46377860Y-19797658D02*
X45515902Y-18935700D01*
X81797038Y-17175480D02*
X73897638Y-25074880D01*
X84432140Y-17175480D02*
X81797038Y-17175480D01*
X29512151Y-27475289D02*
X29512151Y-50302051D01*
X34861500Y-20180300D02*
X33563560Y-21478240D01*
X33563560Y-21478240D02*
X33563560Y-23423880D01*
X33563560Y-23423880D02*
X29512151Y-27475289D01*
X29512151Y-50302051D02*
X34886900Y-55676800D01*
X34219339Y-51188620D02*
X34025655Y-51382304D01*
X55987940Y-51188620D02*
X34219339Y-51188620D01*
X59504580Y-47671980D02*
X55987940Y-51188620D01*
X32750740Y-50107389D02*
X34025655Y-51382304D01*
X32750740Y-30716200D02*
X32750740Y-50107389D01*
X97144840Y-40718740D02*
X97144840Y-40718740D01*
X39966900Y-55676800D02*
X44002964Y-51640736D01*
X44002964Y-51640736D02*
X61711844Y-51640736D01*
X61711844Y-51640736D02*
X61831220Y-51521360D01*
X99799140Y-38851840D02*
X99799140Y-23782022D01*
X99799140Y-23782022D02*
X101917500Y-21663662D01*
X97144840Y-45291630D02*
X95076455Y-47360015D01*
X97144840Y-40718740D02*
X97144840Y-45291630D01*
X83296760Y-50408840D02*
X80175100Y-50408840D01*
X85912960Y-47792640D02*
X83296760Y-50408840D01*
X94643830Y-47792640D02*
X85912960Y-47792640D01*
X95076455Y-47360015D02*
X94643830Y-47792640D01*
X91915000Y-47792640D02*
X89151460Y-50556180D01*
X94643830Y-47792640D02*
X91915000Y-47792640D01*
X144929860Y-32387540D02*
X144929860Y-32387540D01*
X143992600Y-31450280D02*
X144929860Y-32387540D01*
X109283500Y-31450280D02*
X143992600Y-31450280D01*
X102219760Y-38514020D02*
X109283500Y-31450280D01*
X102219760Y-41846500D02*
X102219760Y-38514020D01*
X80165839Y-49408871D02*
X82124956Y-47449754D01*
X82124956Y-47449754D02*
X82124956Y-47449740D01*
X65308480Y-58158380D02*
X62826900Y-55676800D01*
X91678760Y-58158380D02*
X65308480Y-58158380D01*
X96387920Y-53449220D02*
X91678760Y-58158380D01*
X96387920Y-46736000D02*
X96387920Y-53449220D01*
X99747230Y-43376690D02*
X96387920Y-46736000D01*
X26001980Y-43119040D02*
X26001980Y-56951880D01*
X26001980Y-56951880D02*
X27266900Y-58216800D01*
X26972260Y-42148760D02*
X26001980Y-43119040D01*
X47724060Y-48483520D02*
X54071520Y-42136060D01*
X54071520Y-42136060D02*
X54071520Y-42136060D01*
X68790820Y-34960560D02*
X77884020Y-34960560D01*
X77884020Y-34960560D02*
X79192120Y-33652460D01*
X153264700Y-46651100D02*
X149364700Y-50551100D01*
X153264700Y-20060098D02*
X153264700Y-46651100D01*
X142114783Y-18142559D02*
X151347161Y-18142559D01*
X131735682Y-28521660D02*
X142114783Y-18142559D01*
X151347161Y-18142559D02*
X153264700Y-20060098D01*
X113111280Y-28521660D02*
X131735682Y-28521660D01*
X110058200Y-25468580D02*
X113111280Y-28521660D01*
X78422500Y-39364920D02*
X78422500Y-37233860D01*
X78422500Y-37233860D02*
X80457040Y-35199320D01*
X80457040Y-35199320D02*
X80457040Y-32392620D01*
X80457040Y-32392620D02*
X80457040Y-32392620D01*
X84703920Y-25760680D02*
X84703920Y-25760680D01*
X81696560Y-28768040D02*
X62052200Y-28768040D01*
X84703920Y-25760680D02*
X81696560Y-28768040D01*
X62052200Y-28768040D02*
X59802874Y-31017366D01*
X59802874Y-31017366D02*
X59802874Y-34642525D01*
X92819220Y-38117780D02*
X92819220Y-38117780D01*
X88227458Y-38117780D02*
X92819220Y-38117780D01*
X86255317Y-40089921D02*
X88227458Y-38117780D01*
X78121341Y-40089921D02*
X86255317Y-40089921D01*
X74183240Y-36151820D02*
X78121341Y-40089921D01*
X67650360Y-36151820D02*
X74183240Y-36151820D01*
X111940380Y-20670480D02*
X119255580Y-20670480D01*
X119255580Y-20670480D02*
X119258080Y-20667980D01*
X111978860Y-22638600D02*
X113322520Y-22638600D01*
X113322520Y-22638600D02*
X113698020Y-22263100D01*
X59806840Y-37078920D02*
X59748420Y-37137340D01*
X130241040Y-24208740D02*
X130241040Y-25318713D01*
X88644078Y-16901160D02*
X122933460Y-16901160D01*
X85428921Y-26108681D02*
X85428921Y-20116317D01*
X122933460Y-16901160D02*
X130241040Y-24208740D01*
X82095023Y-29442579D02*
X85428921Y-26108681D01*
X85428921Y-20116317D02*
X88644078Y-16901160D01*
X62198081Y-29442579D02*
X82095023Y-29442579D01*
X60552161Y-31088499D02*
X62198081Y-29442579D01*
X60552161Y-36333599D02*
X60552161Y-31088499D01*
X59806840Y-37078920D02*
X60552161Y-36333599D01*
X66575300Y-40640640D02*
X66575300Y-34750000D01*
X59034680Y-32026860D02*
X59034680Y-38867080D01*
X59034680Y-38867080D02*
X58262520Y-39639240D01*
X58249820Y-35087560D02*
X58249820Y-37939994D01*
X50523140Y-36187380D02*
X50523140Y-36187380D01*
X50523140Y-36187380D02*
X52692300Y-38356540D01*
X52692300Y-38356540D02*
X53543200Y-38356540D01*
M02*
