G04 #@! TF.GenerationSoftware,KiCad,Pcbnew,5.1.10-6.fc34*
G04 #@! TF.CreationDate,2021-10-24T11:18:16+02:00*
G04 #@! TF.ProjectId,Amp Module,416d7020-4d6f-4647-956c-652e6b696361,rev?*
G04 #@! TF.SameCoordinates,Original*
G04 #@! TF.FileFunction,Legend,Top*
G04 #@! TF.FilePolarity,Positive*
%FSLAX46Y46*%
G04 Gerber Fmt 4.6, Leading zero omitted, Abs format (unit mm)*
G04 Created by KiCad (PCBNEW 5.1.10-6.fc34) date 2021-10-24 11:18:16*
%MOMM*%
%LPD*%
G01*
G04 APERTURE LIST*
%ADD10C,0.150000*%
%ADD11C,0.120000*%
%ADD12C,0.100000*%
%ADD13C,2.000000*%
%ADD14R,2.000000X2.000000*%
%ADD15C,1.000000*%
%ADD16C,1.700000*%
%ADD17C,1.620000*%
%ADD18C,1.800000*%
%ADD19R,1.800000X1.800000*%
G04 APERTURE END LIST*
D10*
X147838207Y-38463528D02*
X148600112Y-38463528D01*
X148219160Y-38844480D02*
X148219160Y-38082576D01*
X147812807Y-17597428D02*
X148574712Y-17597428D01*
X148193760Y-17978380D02*
X148193760Y-17216476D01*
X147820427Y-33251448D02*
X148582332Y-33251448D01*
X148201380Y-33632400D02*
X148201380Y-32870496D01*
X147828047Y-28087628D02*
X148589952Y-28087628D01*
X148209000Y-28468580D02*
X148209000Y-27706676D01*
X147812807Y-22875548D02*
X148574712Y-22875548D01*
X148193760Y-23256500D02*
X148193760Y-22494596D01*
X87622427Y-38455908D02*
X88384332Y-38455908D01*
X88003380Y-38836860D02*
X88003380Y-38074956D01*
X87604647Y-33243828D02*
X88366552Y-33243828D01*
X87985600Y-33624780D02*
X87985600Y-32862876D01*
X87612267Y-28080008D02*
X88374172Y-28080008D01*
X87993220Y-28460960D02*
X87993220Y-27699056D01*
X87597027Y-17589808D02*
X88358932Y-17589808D01*
X87977980Y-17970760D02*
X87977980Y-17208856D01*
X87597027Y-22867928D02*
X88358932Y-22867928D01*
X87977980Y-23248880D02*
X87977980Y-22486976D01*
D11*
X143364700Y-47251100D02*
X155364700Y-47251100D01*
X155364700Y-59251100D02*
X155364700Y-47251100D01*
X143364700Y-59251100D02*
X155364700Y-59251100D01*
X143364700Y-47251100D02*
X143364700Y-59251100D01*
X149364700Y-54013100D02*
X149364700Y-54775100D01*
X149364700Y-52489100D02*
X149364700Y-51727100D01*
X150380700Y-52489100D02*
X149364700Y-52489100D01*
X148348700Y-52489100D02*
X150380700Y-52489100D01*
D12*
G36*
X150380700Y-54013100D02*
G01*
X148348700Y-54013100D01*
X149364700Y-52489100D01*
X150380700Y-54013100D01*
G37*
X150380700Y-54013100D02*
X148348700Y-54013100D01*
X149364700Y-52489100D01*
X150380700Y-54013100D01*
D11*
X83151460Y-47256180D02*
X95151460Y-47256180D01*
X95151460Y-59256180D02*
X95151460Y-47256180D01*
X83151460Y-59256180D02*
X95151460Y-59256180D01*
X83151460Y-47256180D02*
X83151460Y-59256180D01*
X89151460Y-54018180D02*
X89151460Y-54780180D01*
X89151460Y-52494180D02*
X89151460Y-51732180D01*
X90167460Y-52494180D02*
X89151460Y-52494180D01*
X88135460Y-52494180D02*
X90167460Y-52494180D01*
D12*
G36*
X90167460Y-54018180D02*
G01*
X88135460Y-54018180D01*
X89151460Y-52494180D01*
X90167460Y-54018180D01*
G37*
X90167460Y-54018180D02*
X88135460Y-54018180D01*
X89151460Y-52494180D01*
X90167460Y-54018180D01*
D11*
X91825760Y-42722480D02*
X86705760Y-42722480D01*
X91825760Y-37602480D02*
X86705760Y-37602480D01*
X91825760Y-42722480D02*
X91825760Y-37602480D01*
X86705760Y-42722480D02*
X86705760Y-37602480D01*
X91705760Y-42722480D02*
X91705760Y-37602480D01*
X91586760Y-42722480D02*
X91586760Y-41242480D01*
X91586760Y-39082480D02*
X91586760Y-37602480D01*
X146929160Y-37607560D02*
X152049160Y-37607560D01*
X146929160Y-42727560D02*
X152049160Y-42727560D01*
X146929160Y-37607560D02*
X146929160Y-42727560D01*
X152049160Y-37607560D02*
X152049160Y-42727560D01*
X147049160Y-37607560D02*
X147049160Y-42727560D01*
X147168160Y-37607560D02*
X147168160Y-39087560D01*
X147168160Y-41247560D02*
X147168160Y-42727560D01*
X117147900Y-30842480D02*
X117147900Y-32322480D01*
X117147900Y-27202480D02*
X117147900Y-28682480D01*
X117028900Y-27202480D02*
X117028900Y-32322480D01*
X122028900Y-27202480D02*
X122028900Y-32322480D01*
X116908900Y-27202480D02*
X116908900Y-32322480D01*
X116908900Y-32322480D02*
X122028900Y-32322480D01*
X116908900Y-27202480D02*
X122028900Y-27202480D01*
X91825760Y-27122480D02*
X86705760Y-27122480D01*
X91825760Y-22002480D02*
X86705760Y-22002480D01*
X91825760Y-27122480D02*
X91825760Y-22002480D01*
X86705760Y-27122480D02*
X86705760Y-22002480D01*
X91705760Y-27122480D02*
X91705760Y-22002480D01*
X91586760Y-27122480D02*
X91586760Y-25642480D01*
X91586760Y-23482480D02*
X91586760Y-22002480D01*
X91825760Y-32322480D02*
X86705760Y-32322480D01*
X91825760Y-27202480D02*
X86705760Y-27202480D01*
X91825760Y-32322480D02*
X91825760Y-27202480D01*
X86705760Y-32322480D02*
X86705760Y-27202480D01*
X91705760Y-32322480D02*
X91705760Y-27202480D01*
X91586760Y-32322480D02*
X91586760Y-30842480D01*
X91586760Y-28682480D02*
X91586760Y-27202480D01*
X91586760Y-33882480D02*
X91586760Y-32402480D01*
X91586760Y-37522480D02*
X91586760Y-36042480D01*
X91705760Y-37522480D02*
X91705760Y-32402480D01*
X86705760Y-37522480D02*
X86705760Y-32402480D01*
X91825760Y-37522480D02*
X91825760Y-32402480D01*
X91825760Y-32402480D02*
X86705760Y-32402480D01*
X91825760Y-37522480D02*
X86705760Y-37522480D01*
X91586760Y-18282480D02*
X91586760Y-16802480D01*
X91586760Y-21922480D02*
X91586760Y-20442480D01*
X91705760Y-21922480D02*
X91705760Y-16802480D01*
X86705760Y-21922480D02*
X86705760Y-16802480D01*
X91825760Y-21922480D02*
X91825760Y-16802480D01*
X91825760Y-16802480D02*
X86705760Y-16802480D01*
X91825760Y-21922480D02*
X86705760Y-21922480D01*
X146929160Y-22007560D02*
X152049160Y-22007560D01*
X146929160Y-27127560D02*
X152049160Y-27127560D01*
X146929160Y-22007560D02*
X146929160Y-27127560D01*
X152049160Y-22007560D02*
X152049160Y-27127560D01*
X147049160Y-22007560D02*
X147049160Y-27127560D01*
X147168160Y-22007560D02*
X147168160Y-23487560D01*
X147168160Y-25647560D02*
X147168160Y-27127560D01*
X147168160Y-30847560D02*
X147168160Y-32327560D01*
X147168160Y-27207560D02*
X147168160Y-28687560D01*
X147049160Y-27207560D02*
X147049160Y-32327560D01*
X152049160Y-27207560D02*
X152049160Y-32327560D01*
X146929160Y-27207560D02*
X146929160Y-32327560D01*
X146929160Y-32327560D02*
X152049160Y-32327560D01*
X146929160Y-27207560D02*
X152049160Y-27207560D01*
X147168160Y-36047560D02*
X147168160Y-37527560D01*
X147168160Y-32407560D02*
X147168160Y-33887560D01*
X147049160Y-32407560D02*
X147049160Y-37527560D01*
X152049160Y-32407560D02*
X152049160Y-37527560D01*
X146929160Y-32407560D02*
X146929160Y-37527560D01*
X146929160Y-37527560D02*
X152049160Y-37527560D01*
X146929160Y-32407560D02*
X152049160Y-32407560D01*
X147168160Y-20447560D02*
X147168160Y-21927560D01*
X147168160Y-16807560D02*
X147168160Y-18287560D01*
X147049160Y-16807560D02*
X147049160Y-21927560D01*
X152049160Y-16807560D02*
X152049160Y-21927560D01*
X146929160Y-16807560D02*
X146929160Y-21927560D01*
X146929160Y-21927560D02*
X152049160Y-21927560D01*
X146929160Y-16807560D02*
X152049160Y-16807560D01*
%LPC*%
D13*
X36844600Y-47561150D03*
X39344600Y-47561150D03*
X34344600Y-47561150D03*
X41844600Y-47561150D03*
D14*
X44344600Y-47561150D03*
X44344600Y-29261150D03*
D13*
X41844600Y-29261150D03*
X34344600Y-29261150D03*
X36844600Y-29261150D03*
X39344600Y-29261150D03*
X47344600Y-37311150D03*
X31344600Y-37311150D03*
X196648700Y-47561150D03*
X199148700Y-47561150D03*
X194148700Y-47561150D03*
X201648700Y-47561150D03*
D14*
X204148700Y-47561150D03*
X204148700Y-29261150D03*
D13*
X201648700Y-29261150D03*
X194148700Y-29261150D03*
X196648700Y-29261150D03*
X199148700Y-29261150D03*
X207148700Y-37311150D03*
X191148700Y-37311150D03*
D15*
X146824700Y-53251100D03*
D13*
X151904700Y-55791100D03*
X151904700Y-50711100D03*
X146824700Y-50711100D03*
X146824700Y-55791100D03*
X149364700Y-55951100D03*
X149364700Y-50551100D03*
D15*
X86611460Y-53256180D03*
D13*
X91691460Y-55796180D03*
X91691460Y-50716180D03*
X86611460Y-50716180D03*
X86611460Y-55796180D03*
X89151460Y-55956180D03*
X89151460Y-50556180D03*
D16*
X62801500Y-22720300D03*
X60261500Y-22720300D03*
X57721500Y-22720300D03*
X55181500Y-22720300D03*
X52641500Y-22720300D03*
X50101500Y-22720300D03*
X47561500Y-22720300D03*
X45021500Y-22720300D03*
X42481500Y-22720300D03*
X39941500Y-22720300D03*
X37401500Y-22720300D03*
X34861500Y-22720300D03*
X32321500Y-22720300D03*
X29781500Y-22720300D03*
X27241500Y-22720300D03*
X24701500Y-22720300D03*
X22161500Y-22720300D03*
X62801500Y-20180300D03*
X60261500Y-20180300D03*
X57721500Y-20180300D03*
X55181500Y-20180300D03*
X52641500Y-20180300D03*
X50101500Y-20180300D03*
X47561500Y-20180300D03*
X45021500Y-20180300D03*
X42481500Y-20180300D03*
X39941500Y-20180300D03*
X37401500Y-20180300D03*
X34861500Y-20180300D03*
X32321500Y-20180300D03*
X29781500Y-20180300D03*
X27241500Y-20180300D03*
X24701500Y-20180300D03*
G36*
G01*
X21561500Y-19330300D02*
X22761500Y-19330300D01*
G75*
G02*
X23011500Y-19580300I0J-250000D01*
G01*
X23011500Y-20780300D01*
G75*
G02*
X22761500Y-21030300I-250000J0D01*
G01*
X21561500Y-21030300D01*
G75*
G02*
X21311500Y-20780300I0J250000D01*
G01*
X21311500Y-19580300D01*
G75*
G02*
X21561500Y-19330300I250000J0D01*
G01*
G37*
D17*
X128128400Y-27253560D03*
X125628400Y-24753560D03*
X125628400Y-29753560D03*
X69075300Y-38140640D03*
X69075300Y-43140640D03*
X66575300Y-40640640D03*
D18*
X87995760Y-40162480D03*
D19*
X90535760Y-40162480D03*
D18*
X150759160Y-40167560D03*
D19*
X148219160Y-40167560D03*
X118198900Y-29762480D03*
D18*
X120738900Y-29762480D03*
X87995760Y-24562480D03*
D19*
X90535760Y-24562480D03*
D18*
X87995760Y-29762480D03*
D19*
X90535760Y-29762480D03*
X90535760Y-34962480D03*
D18*
X87995760Y-34962480D03*
D19*
X90535760Y-19362480D03*
D18*
X87995760Y-19362480D03*
X150759160Y-24567560D03*
D19*
X148219160Y-24567560D03*
X148219160Y-29767560D03*
D18*
X150759160Y-29767560D03*
D19*
X148219160Y-34967560D03*
D18*
X150759160Y-34967560D03*
D19*
X148219160Y-19367560D03*
D18*
X150759160Y-19367560D03*
G36*
G01*
X21586900Y-54826800D02*
X22786900Y-54826800D01*
G75*
G02*
X23036900Y-55076800I0J-250000D01*
G01*
X23036900Y-56276800D01*
G75*
G02*
X22786900Y-56526800I-250000J0D01*
G01*
X21586900Y-56526800D01*
G75*
G02*
X21336900Y-56276800I0J250000D01*
G01*
X21336900Y-55076800D01*
G75*
G02*
X21586900Y-54826800I250000J0D01*
G01*
G37*
D16*
X24726900Y-55676800D03*
X27266900Y-55676800D03*
X29806900Y-55676800D03*
X32346900Y-55676800D03*
X34886900Y-55676800D03*
X37426900Y-55676800D03*
X39966900Y-55676800D03*
X42506900Y-55676800D03*
X45046900Y-55676800D03*
X47586900Y-55676800D03*
X50126900Y-55676800D03*
X52666900Y-55676800D03*
X55206900Y-55676800D03*
X57746900Y-55676800D03*
X60286900Y-55676800D03*
X62826900Y-55676800D03*
X22186900Y-58216800D03*
X24726900Y-58216800D03*
X27266900Y-58216800D03*
X29806900Y-58216800D03*
X32346900Y-58216800D03*
X34886900Y-58216800D03*
X37426900Y-58216800D03*
X39966900Y-58216800D03*
X42506900Y-58216800D03*
X45046900Y-58216800D03*
X47586900Y-58216800D03*
X50126900Y-58216800D03*
X52666900Y-58216800D03*
X55206900Y-58216800D03*
X57746900Y-58216800D03*
X60286900Y-58216800D03*
X62826900Y-58216800D03*
M02*
